<?xml version="1.0" standalone="no"?>
<!DOCTYPE svg PUBLIC "-//W3C//DTD SVG 1.1//EN" "http://www.w3.org/Graphics/SVG/1.1/DTD/svg11.dtd" >
<svg xmlns="http://www.w3.org/2000/svg">
<metadata>
This is a custom SVG webfont generated by Font Squirrel.
Copyright   : Copyright  1997 2001 Berthold LLC All rights reserved AkzidenzGrotesk is a trademark of Berthold Types Limited
</metadata>
<defs>
<font id="AkzidenzGroteskBQLightCondeRg" horiz-adv-x="641" >
<font-face units-per-em="2048" ascent="1638" descent="-410" />
<missing-glyph horiz-adv-x="382" />
<glyph unicode=" "  horiz-adv-x="382" />
<glyph unicode="&#x09;" horiz-adv-x="382" />
<glyph unicode="&#xa0;" horiz-adv-x="382" />
<glyph unicode="!" horiz-adv-x="382" d="M188 0v184h93v-184h-93zM188 676v770h99v-784l-23 -279h-57z" />
<glyph unicode="&#x22;" horiz-adv-x="557" d="M80 1516h119l-37 -590h-43zM358 1516h119l-39 -590h-43z" />
<glyph unicode="#" horiz-adv-x="1052" d="M41 539v82h283l20 229h-270v84h278l43 512h90l-43 -512h203l43 512h86l-43 -512h279v-84h-287l-18 -229h280v-82h-289l-43 -539h-88l47 539h-204l-46 -539h-90l45 539h-276zM416 621h202l19 229h-203z" />
<glyph unicode="$" horiz-adv-x="733" d="M61 432v27h91v-78q0 -111 26 -180q45 -111 189 -111q203 0 202 244q0 104 -34.5 169.5t-147.5 172.5q-168 160 -217 223q-70 90 -70 258q0 268 232 287v102h63v-102q119 -14 170 -80q35 -41 47.5 -96.5t12.5 -161.5v-29h-93v43q0 96 -18 148q-35 88 -152 88 q-88 0 -126.5 -48t-38.5 -157q0 -80 18 -125q12 -33 35 -65q47 -61 180 -185q139 -131 186.5 -218t47.5 -214q0 -315 -267 -342v-147h-63v147q-135 12 -201 96q-41 53 -56.5 123t-15.5 211z" />
<glyph unicode="%" horiz-adv-x="1193" d="M41 752v475q0 72 12 110q14 45 58.5 80t121.5 33q72 0 115 -29q35 -23 51.5 -61.5t17.5 -62t1 -78.5v-469q0 -61 -15 -105q-41 -113 -172 -113q-143 0 -180 127q-10 34 -10 93zM121 760q0 -109 57 -139q23 -12 53 -13q47 0 80 33q31 35 31 109v477v12v17q0 7 -1 20.5 t-4 22.5l-7 22q-4 12 -13.5 20.5t-19.5 16.5t-26.5 11t-37.5 3q-41 0 -66.5 -13t-34.5 -40t-10 -39t-1 -39v-481zM186 -121l752 1731l51 -25l-751 -1728zM766 209v475q0 39 2 57q16 106 82 142q45 25 110.5 24.5t110.5 -26.5q35 -23 52.5 -62t18.5 -62.5t1 -80.5v-469 q0 -59 -8 -92q-33 -125 -179 -125q-137 0 -176 114q-14 44 -14 105zM846 217q0 -98 45 -131q29 -20 65.5 -20t61.5 16q49 33 49 125v477q0 53 -8 80q-23 66 -101 65q-66 0 -94 -41q-18 -25 -18 -90v-481z" />
<glyph unicode="&#x26;" horiz-adv-x="894" d="M66 270q0 80 30.5 157t64.5 124t101 127q-72 203 -72 330q0 113 56 178q20 29 51 43q35 20 90 20q80 0 127 -48t47 -128q0 -49 -20 -110q-33 -90 -179 -293q104 -242 254 -477q59 88 82 204q18 109 15 303h90q0 -111 -3 -178t-23.5 -163.5t-61.5 -165.5q-6 -10 -43 -66 q45 -35 85 -43t101 -4v-84q-106 0 -153.5 13.5t-98.5 51.5q-16 -16 -43 -32q-82 -47 -194 -47q-131 0 -209 67q-94 84 -94 221zM158 281q0 -78 35.5 -127.5t76.5 -67.5q45 -20 109 -20q104 0 172 59q-6 8 -31.5 46t-38.5 60q-10 18 -86 158q-8 16 -25.5 48t-25.5 48 q-2 4 -45 97q-33 -41 -51 -68q-90 -129 -90 -233zM276 999q0 -76 27 -170q10 -35 25 -63q90 125 116 188q29 61 29 115q0 43 -23.5 72.5t-66.5 29.5q-49 0 -79 -44t-28 -128z" />
<glyph unicode="'" horiz-adv-x="280" d="M80 1516h119l-37 -590h-43z" />
<glyph unicode="(" horiz-adv-x="468" d="M59 596q0 186 58.5 379.5t165.5 341.5q33 45 106 131v-115q-45 -66 -65 -98q-80 -131 -126 -311.5t-46 -339.5q0 -201 62 -402.5t179 -349.5v-119q-88 96 -117 140q-100 147 -158.5 351t-58.5 392z" />
<glyph unicode=")" horiz-adv-x="468" d="M76 1331v119q59 -59 114 -137q102 -147 161 -350t59 -394q0 -180 -55.5 -369.5t-155.5 -332.5q-18 -27 -121 -150v115q115 143 177 348t62 400q0 324 -135 589q-34 72 -106 162z" />
<glyph unicode="*" horiz-adv-x="624" d="M59 1231l25 78l186 -52v197h82v-201l191 66l26 -74l-192 -71l117 -164l-64 -49l-121 161l-106 -161l-66 49l109 166z" />
<glyph unicode="+" horiz-adv-x="1142" d="M172 565v84h354v377h92v-377h353v-84h-353v-377h-92v377h-354z" />
<glyph unicode="," horiz-adv-x="299" d="M104 0v186h93v-186q0 -74 -17.5 -115t-75.5 -69v45q25 16 36.5 41.5t12.5 42t1 55.5h-50z" />
<glyph unicode="-" horiz-adv-x="507" d="M72 555v86h362v-86h-362z" />
<glyph unicode="." horiz-adv-x="299" d="M106 0v184h91v-184h-91z" />
<glyph unicode="/" d="M70 0l409 1446h92l-407 -1446h-94z" />
<glyph unicode="0" horiz-adv-x="724" d="M74 326v804q0 86 14 136q55 186 287 186q158 0 229 -100q51 -72 51 -242v-803q0 -70 -12 -108q-27 -96 -102.5 -147.5t-178.5 -51.5q-94 0 -165.5 46t-102.5 132q-20 62 -20 148zM168 346q0 -55 3 -87t22.5 -70.5t58.5 -65.5q47 -33 110 -33q29 0 60 7t69.5 38t57.5 84 q12 41 12 88v840q0 104 -44 158.5t-148 54.5q-152 0 -189 -117q-12 -43 -12 -113v-784z" />
<glyph unicode="1" horiz-adv-x="724" d="M102 1155v80q162 23 230 154q4 8 18 49h92v-1438h-102v1260q-29 -25 -45 -35q-72 -52 -193 -70z" />
<glyph unicode="2" horiz-adv-x="724" d="M84 0v106l18 56q33 78 125 207q16 23 64.5 90t72 103t56.5 93.5t53 108.5q49 123 49 317v35q0 160 -67 215q-35 31 -93 31q-92 0 -133 -80q-29 -55 -28 -205v-98h-90v137q0 104 12 154q16 66 71.5 122t167.5 56q88 0 150 -45q66 -47 84 -118t18 -171v-80q0 -121 -18 -200 q-16 -76 -64.5 -168.5t-78 -135.5t-105.5 -147q-98 -137 -123 -180q-25 -41 -55 -117h455v-86h-541z" />
<glyph unicode="3" horiz-adv-x="724" d="M70 440h92q0 -43 4 -133q8 -160 80 -207q43 -31 114 -30q41 0 66 10q84 29 113 119q14 41 14 98v80q0 86 -8 153q-14 102 -88 146q-72 43 -215 51l2 94q121 0 194 58q45 45 56 65q18 37 18 88v121q0 37 -4 78q-18 127 -156 127q-57 0 -90 -23q-61 -39 -61 -164v-151h-88 v158q0 88 20 141q49 127 225 127q94 0 149.5 -40t76.5 -91q20 -53 20 -137v-138q0 -53 -10 -88q-6 -20 -14.5 -38.5t-20.5 -34t-23.5 -27.5t-26.5 -22.5t-26.5 -17.5t-27 -13t-23.5 -9.5t-20.5 -8.5t-14.5 -5q18 -2 45 -10q123 -33 170 -137q29 -63 29 -166v-154 q0 -80 -14 -133q-55 -193 -275 -192q-164 0 -235 129q-20 35 -29.5 88t-11.5 87.5t-6 151.5z" />
<glyph unicode="4" horiz-adv-x="724" d="M39 461v94l373 881h127v-889h172v-86h-172v-461h-95v461h-405zM131 547h313v756z" />
<glyph unicode="5" horiz-adv-x="724" d="M94 309v146h90v-113q0 -129 19 -174q31 -88 143 -88q82 0 123 41q37 35 47 90t10 170v299q0 119 -49 168q-39 41 -108 41q-94 0 -140 -64q-31 -43 -30 -133h-76v748h475v-88h-383v-430q80 55 164 55q115 0 180 -84q59 -76 59 -242v-272q0 -147 -18 -215 q-47 -170 -244 -172q-98 0 -161 43q-45 31 -69 81t-28 87.5t-4 105.5z" />
<glyph unicode="6" horiz-adv-x="724" d="M98 328v827q0 80 21 137q63 166 276 166q133 0 203 -80q59 -66 59 -250v-67l-94 2q0 106 -8 164q-8 84 -76 119q-37 20 -90 20q-61 0 -110 -29q-86 -53 -86 -200v-346q23 20 47 36q76 51 170 52q135 -2 202 -103q43 -68 43 -254v-266q-12 -90 -18 -104q-18 -51 -56 -87 t-82 -49.5t-72 -18.5t-52 -5q-147 0 -221 94q-56 70 -56 242zM190 340q0 -55 2.5 -86t20.5 -74t53 -67q47 -29 107 -29q72 0 114.5 30.5t57.5 69.5q16 41 16 97v301q0 127 -59 174q-39 33 -99 32q-98 0 -161 -67q-51 -53 -52 -168v-213z" />
<glyph unicode="7" horiz-adv-x="724" d="M96 1350v90h555v-90q-70 -154 -114 -273q-137 -362 -181 -708q-12 -102 -12 -205v-164h-100v96q0 147 14 271.5t66 337.5q37 156 85 294t68.5 183t77.5 168h-459z" />
<glyph unicode="8" horiz-adv-x="724" d="M84 305v248q0 47 10 98q12 51 44 88t51.5 46.5t52.5 23.5q-43 20 -74 45q-63 53 -64 166v201q0 66 17 108q20 53 80.5 92t163.5 39q119 0 184 -49q37 -25 55 -68q23 -55 23 -149v-168q0 -57 -11 -90q-14 -51 -46.5 -76.5t-92.5 -48.5q88 -35 123 -88q45 -66 45 -197v-264 q0 -53 -12 -98q-16 -59 -53 -99t-83 -54.5t-75 -19.5t-55 -5q-158 0 -232 100q-51 67 -51 219zM178 319q0 -94 18.5 -142t63.5 -75q51 -29 107 -28q59 2 104 30q78 45 78 185v254q0 31 -2 47q-6 92 -70 139q-45 35 -108 35q-59 0 -99 -23q-92 -43 -92 -190v-232zM199 1016 q0 -45 10 -70q39 -92 156 -92q55 0 99 27.5t60 79.5q8 25 8 73v148q0 76 -12 108q-31 84 -162 84q-51 0 -88 -18q-72 -35 -71 -142v-198z" />
<glyph unicode="9" horiz-adv-x="724" d="M68 301v88h94v-113q0 -37 8 -69q27 -127 168 -127q61 0 108 24q55 29 73 74t18 115v369q-25 -27 -52 -41q-72 -47 -166 -48q-127 0 -192 78q-57 66 -57 201v256q0 78 4 121t30.5 98t79.5 88q70 45 170 45q154 0 224 -94q27 -33 39 -81t13 -76.5t1 -88.5v-819 q0 -88 -19 -141q-18 -57 -56 -96t-84 -53.5t-75.5 -19.5t-56.5 -5q-203 0 -254 157q-18 54 -18 158zM166 831q0 -35 12 -71q35 -96 139 -96q92 0 141.5 45t67.5 98q12 41 13 125v194q0 102 -21 152q-43 90 -170 90q-23 0 -50.5 -5t-66 -31.5t-55.5 -74.5q-10 -33 -10 -75 v-351z" />
<glyph unicode=":" horiz-adv-x="382" d="M188 0v184h91v-184h-91zM188 745v187h91v-187h-91z" />
<glyph unicode=";" horiz-adv-x="382" d="M186 0v186h93v-186q0 -74 -17.5 -115t-75.5 -69v45q25 16 37.5 40.5t13.5 41t1 57.5h-52zM186 745v187h95v-187h-95z" />
<glyph unicode="&#x3c;" horiz-adv-x="1144" d="M182 553v92l731 399v-100l-639 -340l639 -342v-106z" />
<glyph unicode="=" horiz-adv-x="1144" d="M174 416v86h797v-86h-797zM174 711v86h797v-86h-797z" />
<glyph unicode="&#x3e;" horiz-adv-x="1144" d="M231 156v98l639 342l-639 342v104l732 -395v-92z" />
<glyph unicode="?" horiz-adv-x="724" d="M145.5 1174.5q6.5 115.5 40.5 179.5q68 117 211 116q156 0 217 -133q37 -78 37 -280q0 -102 -17.5 -164t-70.5 -141q-10 -16 -30.5 -43t-36 -50.5t-27.5 -44.5q-23 -43 -23 -98v-160h-98v170v13v13v12q0 9 1 14l3 12q2 8 4 13t5.5 14.5t7.5 16.5t10 17l12 21l49 71 q8 10 23.5 33t23.5 35q25 37 35 56.5t21.5 66.5t11.5 106q0 70 -2 105q-4 182 -92 225q-31 14 -68 14q-45 0 -80 -26q-74 -57 -73 -246q0 -43 4 -125h-97q-8 72 -1.5 187.5zM348 0v184h98v-184h-98z" />
<glyph unicode="@" horiz-adv-x="1798" d="M117 475q0 408 277.5 696.5t670.5 288.5q279 0 441.5 -159.5t162.5 -430.5q0 -209 -90 -399q-70 -145 -172 -233t-203 -88q-72 0 -116 46t-44 119q0 4 1.5 14.5t1.5 20.5q-131 -197 -306 -196q-121 0 -190.5 86t-69.5 233q0 229 127 404.5t293 175.5q100 0 160.5 -64.5 t83.5 -142.5l37 160h94l-66 -295q-31 -133 -51 -240q-10 -66 -10 -119q0 -115 92 -114q53 0 109 49q111 98 175 256.5t64 330.5q0 236 -144.5 374t-387.5 138q-229 0 -427 -122.5t-312.5 -331.5t-114.5 -453q0 -293 191.5 -474t500.5 -181q84 0 158 14q172 29 329 121 q113 68 215 164l48 -53q-319 -319 -748 -320q-346 0 -563 201.5t-217 523.5zM580 471q0 -109 52 -174.5t140 -65.5q106 0 187 88.5t115 199t34 212.5q0 109 -55.5 177.5t-141.5 68.5q-131 0 -231 -152.5t-100 -353.5z" />
<glyph unicode="A" horiz-adv-x="768" d="M49 0l264 1454h140l262 -1454h-107l-73 440h-304l-75 -440h-107zM248 535h268l-113 671q-8 45 -20 135q-4 -43 -16 -124z" />
<glyph unicode="B" horiz-adv-x="768" d="M121 0v1446h274q133 0 187 -62q49 -57 49 -165v-215q0 -68 -10 -99q-14 -47 -52.5 -75.5t-55.5 -33.5t-52 -12q100 -10 153 -55q68 -57 68 -213v-248q0 -141 -72 -207q-72 -61 -200 -61h-289zM221 823h98q55 0 99 13q115 35 114 190v174q0 57 -10 84q-27 76 -174 76h-127 v-537zM223 88h170q88 0 133 33q35 27 45.5 67.5t10.5 124.5v205q0 61 -13 98q-43 119 -243 119h-103v-647z" />
<glyph unicode="C" horiz-adv-x="768" d="M106 328v784q0 61 1.5 89t13.5 72t39 79q78 109 233 108q197 0 254 -149q20 -51 21 -129v-203h-99v96q0 164 -26 215q-14 31 -54 53q-45 25 -94 25q-57 0 -104 -29q-86 -51 -86 -198v-713v-35v-41q0 -12 1 -39.5t3 -45t6 -39t11 -40t16 -32.5q18 -37 59 -60 q47 -25 105 -24q49 0 90 20q86 45 86 174v232h102v-224q0 -82 -18 -135q-57 -162 -277 -162q-115 0 -177 55.5t-85 121.5q-21 61 -21 174z" />
<glyph unicode="D" horiz-adv-x="811" d="M123 0v1446h125q121 0 207 -22.5t147 -96.5q57 -70 77.5 -175t20.5 -298v-322q0 -84 -2 -129q-14 -221 -127 -317q-70 -57 -143 -74q-47 -12 -115 -12h-190zM223 90h82q106 0 178 49q68 49 93.5 135t25.5 250v332q0 270 -51 367q-47 88 -150 116q-57 14 -102 15h-76 v-1264z" />
<glyph unicode="E" horiz-adv-x="681" d="M121 0v1446h512v-90h-414v-557h340v-88h-340v-621h412v-90h-510z" />
<glyph unicode="F" d="M121 0v1446h510v-90h-412v-557h363v-88h-363v-711h-98z" />
<glyph unicode="G" horiz-adv-x="811" d="M113 373v760q0 176 69 245q20 23 47 39q68 45 185 45q215 0 268 -174q10 -39 10 -106v-201h-96v149q0 106 -21 154q-41 92 -167 92q-78 0 -127 -39q-14 -12 -25.5 -26.5t-19 -26.5t-12.5 -32.5t-8 -30t-4 -36t-1 -31.5v-36v-33v-684q0 -178 29 -235q16 -35 55 -66.5 t102 -31.5q57 0 111 43q94 78 94 229v231h-213v88h313v-659h-75v115q-23 -33 -37 -47q-82 -88 -205 -88q-147 0 -217 110q-33 49 -44 107.5t-11 175.5z" />
<glyph unicode="H" horiz-adv-x="811" d="M121 0v1446h98v-643h373v643h100v-1446h-100v715h-373v-715h-98z" />
<glyph unicode="I" horiz-adv-x="342" d="M119 0v1446h104v-1446h-104z" />
<glyph unicode="J" horiz-adv-x="681" d="M86 248v209h98v-189q0 -43 2 -66.5t15.5 -54t42.5 -51.5q35 -27 82 -26q43 0 77 22q63 41 64 146v1208h98v-1182q0 -37 -2 -55q-8 -127 -98 -189q-59 -41 -143 -40q-68 0 -121 28q-115 62 -115 240z" />
<glyph unicode="K" horiz-adv-x="724" d="M119 0v1446h100v-709l361 709h112l-307 -576l311 -870h-108l-264 750l-107 -201v-549h-98z" />
<glyph unicode="L" d="M119 0v1446h100v-1356h377v-90h-477z" />
<glyph unicode="M" horiz-adv-x="1024" d="M111 0l12 1446h147l240 -1247l240 1247h147l14 -1446h-96l-2 1337l-256 -1337h-92l-256 1337l2 -1337h-100z" />
<glyph unicode="N" horiz-adv-x="811" d="M113 0v1446h147l346 -1391l-14 1391h98v-1446h-153l-336 1366l8 -1366h-96z" />
<glyph unicode="O" horiz-adv-x="811" d="M111 309v815q0 98 22 164q29 88 105 132q72 42 163 42h9q111 0 184 -53q47 -37 71.5 -96.5t27.5 -101.5t3 -117v-799q0 -119 -43 -189q-72 -125 -254 -124q-152 0 -225 88q-63 79 -63 239zM209 348q0 -115 16 -164q14 -41 59.5 -76.5t121.5 -35.5q66 0 112 34 q37 27 55.5 68t22.5 74t4 86v704q0 176 -35 244q-23 47 -65 68q-39 23 -97 22q-61 0 -110 -31q-84 -55 -84 -196v-797z" />
<glyph unicode="P" horiz-adv-x="768" d="M119 0v1446h225q68 0 95.5 -1t78.5 -14.5t86 -41.5q37 -31 54.5 -77t20.5 -82t3 -106v-163q0 -141 -57 -209q-78 -92 -258 -93h-148v-659h-100zM217 743h164q106 0 156 52q47 47 47 166v124q0 111 -10.5 162t-49.5 80q-45 35 -153 35h-154v-619z" />
<glyph unicode="Q" horiz-adv-x="811" d="M111 469v653q0 94 16 150q57 195 285 194q188 0 254 -143q31 -63 30 -176v-801q0 -172 -71 -260q-18 -23 -56 -51l189 -172l-60 -64l-219 195q-51 -10 -82 -10q-106 0 -178 53q-31 25 -53 59q-37 55 -46 132t-9 241zM209 424q0 -203 41 -270q45 -80 149 -80q66 0 113 37 q86 66 86 233v805q0 66 -14 104q-20 55 -68.5 88t-109.5 33q-197 0 -197 -262v-688z" />
<glyph unicode="R" horiz-adv-x="768" d="M121 0v1446h280q137 0 205 -51q80 -61 80 -201v-225q0 -59 -8 -92q-27 -100 -139 -150q-33 -12 -54 -16l265 -711h-107l-264 705h-158v-705h-100zM221 791h185q51 0 86 12q88 31 88 141v223q0 135 -66 172q-39 20 -104 21h-189v-569z" />
<glyph unicode="S" horiz-adv-x="768" d="M86 268v205h100v-117v-90q12 -201 213 -200q61 0 105 26q80 47 80 211q0 125 -52 207q-35 53 -88 109.5t-75 76.5q-117 115 -166 183q-82 111 -82 268q0 68 8 108q37 211 264 211q104 0 170 -41q47 -31 70.5 -86t27 -95t3.5 -111v-105h-99v129q0 68 -6 96 q-20 127 -164 127q-61 0 -102 -24q-72 -45 -72 -193q0 -96 26.5 -153.5t98.5 -139.5q31 -39 98 -108q111 -111 148 -158q92 -117 92 -285q0 -160 -51 -235q-72 -106 -246 -107q-102 0 -166 35q-25 14 -47 35q-47 41 -72 105q-16 46 -16 116z" />
<glyph unicode="T" d="M14 1356v90h611v-90h-256v-1356h-103v1356h-252z" />
<glyph unicode="U" horiz-adv-x="811" d="M117 342v1104h98v-1120q0 -131 33 -183q47 -74 160 -73q76 0 118 34q33 25 47.5 67t16.5 79t2 133v1063h100v-1159q0 -90 -20 -146q-61 -166 -271 -166q-113 0 -182 54q-25 16 -45 47q-29 39 -42 90t-14 78.5t-1 97.5z" />
<glyph unicode="V" horiz-adv-x="724" d="M55 1446h105l194 -1233l211 1233h103l-262 -1446h-105z" />
<glyph unicode="W" horiz-adv-x="1150" d="M43 1446h102l195 -1229l186 1229h107l188 -1229l189 1229h100l-236 -1446h-108l-186 1243l-187 -1243h-104z" />
<glyph unicode="X" horiz-adv-x="724" d="M49 0l262 797l-202 649h104l156 -549l168 549h104l-219 -651l254 -795h-105l-209 686l-210 -686h-103z" />
<glyph unicode="Y" horiz-adv-x="724" d="M29 1446h106l232 -680l229 680h111l-295 -807v-639h-99v639z" />
<glyph unicode="Z" horiz-adv-x="724" d="M55 0v66l480 1292h-394v88h510v-68l-483 -1288h481v-90h-594z" />
<glyph unicode="[" horiz-adv-x="468" d="M109 -289v1735h290v-74h-202v-1583h202v-78h-290z" />
<glyph unicode="\" d="M70 1446h90l415 -1446h-96z" />
<glyph unicode="]" horiz-adv-x="468" d="M66 1372v74h294v-1735h-288v78h200v1583h-206z" />
<glyph unicode="^" horiz-adv-x="1144" d="M154 731l368 715h96l371 -715h-104l-316 623l-309 -623h-106z" />
<glyph unicode="_" horiz-adv-x="1024" d="M-20 -317h1064v-89h-1064v89z" />
<glyph unicode="`" horiz-adv-x="468" d="M45 1389h199l180 -224h-66z" />
<glyph unicode="a" d="M57 242q0 92 37 161q20 39 57 73t59.5 48.5t82 46t72.5 37.5q53 31 90 60v116q0 117 -49 150q-25 18 -82 18q-88 0 -117 -65q-19 -43 -19 -138v-36h-88q0 158 25 211q51 113 211 112q66 0 121 -28q55 -31 71.5 -78t16.5 -121v-692q2 -16 13 -24.5t19.5 -9.5t28.5 -1v-82 q-90 0 -121 29q-20 16 -28 51q-102 -80 -199 -80q-100 0 -150.5 69t-50.5 173zM145 240q0 -20 3.5 -40t15.5 -50.5t42 -49t75 -18.5q88 0 176 96v393q-29 -23 -66 -43q-18 -12 -53 -29.5t-49 -25.5q-74 -45 -109 -98t-35 -135z" />
<glyph unicode="b" horiz-adv-x="681" d="M106 0v1446h87v-504l12 16l22 23q59 61 156 61q53 0 96 -22q102 -51 103 -250v-532q0 -86 -39 -146q-61 -98 -178 -98q-61 0 -107 29q-25 18 -39 32q-8 10 -20 31v-86h-93zM195 276q0 -72 34 -129q49 -76 129 -75q66 0 105 57q33 47 33 139v508q0 184 -138 185 q-117 0 -153 -113q-10 -37 -10 -74v-498z" />
<glyph unicode="c" d="M82 295v475q0 68 16 117q47 143 221 143q236 0 236 -276v-90h-86v79q0 49 -8 91q-27 121 -139 120q-109 0 -140 -98q-12 -35 -12 -92v-442q0 -104 14 -150q33 -96 148 -96q104 0 133 90q10 31 10 78v149h88v-133q0 -80 -12 -117q-45 -150 -238 -149q-76 0 -135 39 q-43 29 -65.5 76t-26.5 86t-4 100z" />
<glyph unicode="d" horiz-adv-x="681" d="M98 252v518q0 160 90 223q47 37 117 37q18 0 34.5 -2t31 -7t26 -9t22.5 -12.5t18 -13.5t16.5 -15t13.5 -13.5t12 -13.5l8 -10v512h86v-1446h-81v109q-8 -18 -33 -48q-57 -70 -156 -69q-106 0 -162 80q-43 61 -43 180zM184 268q0 -121 54 -168q37 -31 88 -30q63 0 106 44 t55 105v547l-4 14q-2 14 -4 25.5t-8 31t-14 34t-22.5 31t-31.5 26.5q-35 20 -77 20q-47 0 -83 -28.5t-50 -75.5q-8 -25 -9 -76v-500z" />
<glyph unicode="e" d="M88 250v541q0 53 12 96q47 150 222 149q133 0 196 -90q41 -61 41 -233v-207h-385v-254q0 -43 8 -74q31 -100 146 -100q63 0 102 37q20 20 29 45q14 39 14 198h86v-116q0 -100 -45 -160q-63 -84 -192 -84q-47 0 -89 12q-18 6 -39.5 17.5t-49 41t-40.5 66.5q-16 41 -16 115 zM174 580h297v188q0 119 -57 162q-41 29 -90 28q-53 0 -91 -28q-59 -47 -59 -170v-180z" />
<glyph unicode="f" horiz-adv-x="382" d="M35 948v82h123v244q0 106 84 149q41 23 98 23q18 0 51 -4v-80q-17 2 -32 2q-92 0 -113 -76q-4 -18 -4 -53v-205h127v-82h-131v-948h-86v948h-117z" />
<glyph unicode="g" horiz-adv-x="681" d="M94 -104h88q0 -2 1 -15.5t4 -30t10 -30.5q31 -59 127 -60q115 0 151 86q12 27 12 76v170l-10 -10l-14 -14q-4 -4 -16.5 -14.5t-20.5 -15.5t-22.5 -13.5t-29 -12.5t-31.5 -7t-36 -3q-61 0 -110 31q-43 27 -64.5 74t-25 81.5t-3.5 98.5v520q0 61 15 106q43 127 196 127 q104 0 172 -94v84h88v-1079q0 -80 -14 -121q-53 -154 -239 -154q-63 0 -122 26t-83 79q-17 35 -23 115zM190 283q0 -131 54 -172q35 -25 84 -25q86 0 135 82q14 27 26 72v577q-12 61 -55 104q-41 40 -99 40h-5q-43 0 -76 -21q-29 -20 -44 -54t-17.5 -58.5t-2.5 -69.5v-475z " />
<glyph unicode="h" horiz-adv-x="681" d="M111 0v1446h88l2 -496q51 57 104 78q41 14 80 14q31 0 74 -12q90 -35 116 -125q10 -33 11 -88v-817h-88v764q0 37 -2 58.5t-10.5 51t-28 49t-49.5 27.5q-18 6 -46 6q-98 0 -145 -86q-18 -31 -18 -51v-819h-88z" />
<glyph unicode="i" horiz-adv-x="299" d="M104 0v1030h86v-1030h-86zM104 1151v160h89v-160h-89z" />
<glyph unicode="j" horiz-adv-x="342" d="M14 -246q51 12 80 41q18 18 29.5 39t15.5 53.5t4 42.5v54v1046h86v-1093q0 -143 -75 -209q-16 -16 -66 -41q-31 -14 -74 -21v88zM143 1149v160h86v-160h-86z" />
<glyph unicode="k" d="M106 0v1446h87v-899l296 483h101l-240 -393l264 -637h-96l-225 543l-98 -160v-383h-89z" />
<glyph unicode="l" horiz-adv-x="299" d="M106 0v1446h87v-1446h-87z" />
<glyph unicode="m" horiz-adv-x="1067" d="M109 0v1030h88v-86q8 10 32 35q70 63 160 63q53 0 94 -26.5t53.5 -46t28.5 -49.5q86 125 207 124.5t168 -102.5q25 -51 25 -213v-729h-88v737q0 100 -9.5 142.5t-48.5 64.5q-27 16 -71 17q-86 -2 -136 -68q-18 -25 -32 -59v-834h-88v813q0 41 -9 64q-12 41 -46 63.5 t-77 22.5q-72 0 -124 -54q-20 -20 -41 -59v-850h-86z" />
<glyph unicode="n" horiz-adv-x="681" d="M113 0v1030h86v-98q16 27 39 49q61 61 151 61q150 -4 184 -131q10 -35 11 -84v-827h-86v825l-2 23q-4 25 -9 41q-30 78 -112 78h-4q-92 0 -146 -78q-12 -16 -26 -51v-838h-86z" />
<glyph unicode="o" d="M80 248v540q0 98 43 156q66 92 205 92q111 0 172 -59q29 -29 47 -76q14 -41 14 -119v-491q0 -86 -14 -133q-14 -51 -46 -87t-70 -50.5t-63.5 -19.5t-50.5 -5q-72 0 -133 32.5t-86 94.5q-18 43 -18 125zM168 250q0 -41 6 -68q27 -102 143 -102q104 0 142 88q14 37 14 90 v516q0 111 -59 152q-33 25 -86 24q-61 0 -99 -28q-29 -20 -43 -52t-16 -55.5t-2 -66.5v-498z" />
<glyph unicode="p" horiz-adv-x="681" d="M111 -334v1364h88v-90q4 4 9 11t10 13.5t11 12.5q70 63 160 63q68 0 115 -39q39 -31 57.5 -82t20.5 -85.5t2 -102.5v-500q0 -51 -17 -100q-20 -63 -72.5 -100t-119.5 -37q-78 0 -135 47q-18 14 -41 43v-418h-88zM199 193q8 -27 20 -46q49 -72 139 -71q41 0 76 20 q61 39 62 180v525q0 27 -7 57q-27 102 -127 103q-100 -2 -145 -87q-14 -23 -18 -47v-634z" />
<glyph unicode="q" horiz-adv-x="681" d="M100 256v506q0 41 2 63q8 104 70 164q53 53 141 53q92 0 144 -57q8 -8 13 -15t9 -14.5t6 -9.5v84h84v-1364h-86v428q-61 -100 -186 -100q-98 0 -154 76q-43 59 -43 186zM186 334q0 -141 19 -184q35 -78 117 -78q51 0 91 31.5t58 80.5q6 20 14 72v492l-2 14q0 12 -1 22.5 t-4 27.5t-9 32.5t-14.5 33t-21.5 32t-30 26.5q-37 25 -77 25q-57 0 -99 -46q-41 -49 -41 -163v-418z" />
<glyph unicode="r" horiz-adv-x="425" d="M109 0v1030h84v-180q23 49 61 96q61 63 154 111v-117q-61 -18 -80 -31q-78 -45 -133 -182v-727h-86z" />
<glyph unicode="s" horiz-adv-x="598" d="M57 274v88h86v-59q0 -123 29 -166q14 -25 41 -37q39 -20 90 -20q47 0 74 12q78 33 78 160q0 55 -19.5 97t-40 60.5t-76.5 65.5q-82 66 -147 131q-76 86 -76 207q0 221 217 221q61 0 105.5 -20.5t65 -45t31.5 -66.5t12 -61.5t1 -54.5v-69h-88v74q0 127 -71 153 q-23 8 -58 8q-127 0 -127 -131q0 -90 43 -139q35 -45 154 -143q61 -49 90 -78q72 -76 72 -209q0 -172 -117 -229q-59 -27 -123 -27q-88 0 -149 37q-25 16 -45 37q-12 16 -21 34q-31 61 -31 170z" />
<glyph unicode="t" horiz-adv-x="382" d="M18 948v82h109v266h88v-266h156v-82h-156v-811q0 -59 78 -59q25 0 78 4v-82q-47 -5 -85 -5q-29 0 -53 3q-55 6 -81 35q-25 29 -25 84v831h-109z" />
<glyph unicode="u" horiz-adv-x="681" d="M102 236v794h86v-762q0 -150 78 -186q20 -12 58 -12q80 0 125 63q20 29 34 70v827h88v-1030h-88v96q-25 -31 -32 -39q-68 -63 -154 -63q-100 0 -154 76q-41 55 -41 166z" />
<glyph unicode="v" horiz-adv-x="555" d="M29 1030h90l155 -895l152 895h94l-196 -1030h-101z" />
<glyph unicode="w" horiz-adv-x="894" d="M29 1030h88l141 -883l156 883h71l140 -883l155 883h90l-198 -1030h-88l-135 842l-148 -842h-90z" />
<glyph unicode="x" d="M25 0l223 537l-205 493h94l160 -405l164 405h94l-207 -483l219 -547h-96l-174 463l-176 -463h-96z" />
<glyph unicode="y" horiz-adv-x="598" d="M18 -336l2 86q22 -3 42 -3q107 0 149 85q12 23 18 57l27 119l-225 1022h88l180 -856l182 856h92l-264 -1147q-25 -104 -71 -153q-64 -66 -220 -66z" />
<glyph unicode="z" horiz-adv-x="598" d="M74 0v78l354 866h-326v86h430v-72l-358 -872h356v-86h-456z" />
<glyph unicode="{" horiz-adv-x="724" d="M158 547v67q51 10 71 27q61 45 62 246v180q0 168 59.5 268.5t216.5 110.5v-64q-88 -23 -129 -64.5t-53 -131.5q-12 -80 -7 -179.5t-5.5 -213t-46.5 -158.5q-29 -33 -72 -51v-6q49 -20 78 -64q45 -63 46 -289.5t7 -261.5q16 -84 57 -125t125 -59v-66q-131 12 -196.5 88 t-73.5 183.5t-3 217t-9.5 203t-69.5 123.5q-30 17 -57 19z" />
<glyph unicode="|" horiz-adv-x="468" d="M190 -512v2044h89v-2044h-89z" />
<glyph unicode="}" horiz-adv-x="724" d="M158 -221q115 23 152.5 98.5t37.5 206.5v84q0 274 39 340q31 51 84 70v6q-39 14 -70 51q-37 43 -48 159.5t-5 220t-8 181.5q-16 86 -56 125t-126 61v64q45 -2 81.5 -13.5t63.5 -25.5t47.5 -41t33.5 -47.5t23.5 -59t14.5 -61t6 -70t2 -68.5v-72v-66q0 -238 66 -283 q25 -16 71 -25v-67q-49 -8 -69 -25q-68 -45 -68 -248q0 -20 1 -86.5t1 -95.5t-5 -88t-15.5 -89t-31 -73t-49 -64.5t-72.5 -41t-101 -23.5v66z" />
<glyph unicode="~" horiz-adv-x="1163" d="M135 567q51 61 86 90q66 55 160 56q70 0 156 -37l118 -51q84 -37 125 -37q80 0 178 112l68 -55q-57 -70 -113 -104q-63 -41 -137 -41t-190 53l-54 25q-98 45 -159 45q-78 0 -158 -97l-12 -12z" />
<glyph unicode="&#xa1;" horiz-adv-x="382" d="M96 1266v180h92v-180h-92zM98 0v788l19 279h53l29 -299v-768h-101z" />
<glyph unicode="&#xa2;" d="M82 295v475q0 131 54 187.5t147 70.5v127h59v-125q86 -8 135 -51t63.5 -95.5t14.5 -129.5v-90h-86v77q0 131 -55 181q-37 33 -92 32q-152 0 -152 -190v-459q0 -49 4 -80.5t18.5 -70.5t49 -58.5t90.5 -19.5q143 0 143 168v149h88v-133v-6q2 -236 -209 -258v-141h-59v139 q-82 10 -125 45q-51 41 -69.5 97.5t-18.5 158.5z" />
<glyph unicode="&#xa3;" horiz-adv-x="817" d="M61 0v100q84 16 140 39q184 78 184 295q0 68 -23 125q-14 35 -57 94h-231v76h182q-45 76 -57.5 144.5t-12.5 222.5q0 133 23.5 205.5t83.5 113.5q63 45 160 45q166 0 219 -133q18 -45 24 -92q6 -55 6 -119v-121h-94v29q0 184 -14 244q-25 106 -150 106q-109 0 -143 -84 q-20 -49 -20 -188q0 -201 30 -277q12 -33 56 -96h247v-76h-198q68 -100 67 -213q0 -229 -207 -340q57 -2 91 -6q33 -2 79 -6t73.5 -6t41.5 -2q12 0 105 6q37 4 104 18v-90q-102 -23 -199 -22h-14q-6 0 -10 1t-20.5 2t-41.5 3l-180 10q-55 4 -94 4q-74 0 -150 -12z" />
<glyph unicode="&#xa4;" horiz-adv-x="1267" d="M115 217l141 145q-113 143 -113 334q0 182 111 332l-139 152l73 67l136 -145q139 119 313 119q166 0 307 -117l139 143l68 -71l-137 -148q111 -152 110 -336q0 -172 -112 -330l139 -153l-72 -72l-135 152q-143 -119 -313 -119q-168 0 -307 117l-140 -144zM244 696 q0 -188 113.5 -314t283.5 -126q164 0 272.5 126t108.5 312q0 190 -109.5 315.5t-277.5 125.5q-166 0 -278.5 -126.5t-112.5 -312.5z" />
<glyph unicode="&#xa5;" horiz-adv-x="724" d="M29 1446h106l234 -682l241 682h97l-224 -610h176v-88h-206l-33 -89v-34h239v-88h-247v-537h-99v537h-247v88h241v34l-31 89h-210v88h178z" />
<glyph unicode="&#xa6;" horiz-adv-x="468" d="M190 389h89v-901h-89v901zM190 631v899h89v-899h-89z" />
<glyph unicode="&#xa7;" horiz-adv-x="768" d="M92 125v108h92v-110q0 -61 2 -85t19.5 -60.5t56.5 -61.5q45 -29 117 -29q111 0 156 54.5t45 164.5q0 70 -12.5 106t-37 57.5t-90.5 60.5q-18 10 -84.5 47t-98.5 58.5t-78 59t-66.5 83t-20.5 98.5q0 143 131 233q-61 49 -84.5 103.5t-23.5 136.5q0 158 68.5 236.5 t222.5 78.5q182 0 241 -116q23 -45 23 -127v-166h-90v149q0 92 -42 132t-137 40q-109 0 -152.5 -57t-43.5 -170q0 -70 26.5 -112t87.5 -83q35 -23 96.5 -55.5t104.5 -57t89 -61.5t69.5 -87t23.5 -111q0 -121 -98 -244q68 -68 68 -209q0 -158 -65.5 -241t-223.5 -83 q-164 0 -227.5 78t-63.5 242zM180 692q0 -61 35 -104q16 -20 66.5 -55t90.5 -57.5t108.5 -60.5t74.5 -42q57 72 57 168q0 35 -5 62.5t-19.5 51t-23.5 38t-36.5 32.5t-39 26.5t-49.5 29t-50 26.5q-86 49 -113 67q-96 -49 -96 -182z" />
<glyph unicode="&#xa8;" horiz-adv-x="468" d="M84 1198v158h98v-158h-98zM287 1198v158h98v-158h-98z" />
<glyph unicode="&#xa9;" horiz-adv-x="1705" d="M125 727q0 305 211 515t518 210q305 0 517 -210t212 -513v-10q0 -305 -214 -515t-517 -210q-305 0 -516 213t-211 520zM190 721q0 -274 195 -468t469 -194t469 193.5t195 466.5q0 281 -191.5 474t-470 193t-472.5 -193t-194 -472zM606 528v375q0 104 12.5 149.5 t53.5 80.5q66 55 172 55q109 0 168 -49q39 -33 52 -75t13 -138v-72h-100v70q0 100 -23 127q-29 39 -112 39q-74 0 -105 -35q-29 -29 -28 -133v-414q0 -102 28 -133q31 -33 105 -33q84 0 112 39q23 25 23 125v80h100v-80q0 -98 -13 -140t-52 -75q-61 -47 -168 -47 q-111 0 -172 55q-39 33 -52.5 79t-13.5 150z" />
<glyph unicode="&#xaa;" horiz-adv-x="382" d="M33 1004q0 20 2 38.5t9 34t12 26.5t17.5 23.5t17.5 18.5t22.5 16t20.5 13.5t22 13.5l20 10q61 35 84 51v54q0 31 -2 47t-18.5 32.5t-46.5 16.5q-47 0 -59.5 -32t-12.5 -103h-64v41q0 154 138 155q59 0 84 -20q10 -8 18 -16.5t13 -15.5t8.5 -18.5t5.5 -16.5t3 -18.5 t1 -17.5v-18v-16v-355q0 -29 32 -28v-58q-4 0 -12 -1t-12 -1q-49 0 -76 37q-55 -37 -104 -37q-59 0 -91 44.5t-32 99.5zM102 1008q0 -41 19.5 -61.5t48.5 -20.5q37 -2 90 45v200q-92 -41 -125 -75.5t-33 -87.5z" />
<glyph unicode="&#xab;" horiz-adv-x="768" d="M55 600l256 205h125l-258 -203l250 -207h-123zM344 600l256 205h121l-250 -205l240 -205h-115z" />
<glyph unicode="&#xac;" horiz-adv-x="1144" d="M135 561v84h838v-463h-92v379h-746z" />
<glyph unicode="&#xad;" horiz-adv-x="507" d="M72 555v86h362v-86h-362z" />
<glyph unicode="&#xae;" horiz-adv-x="1705" d="M125 727q0 305 211 515t518 210q305 0 517 -210t212 -513v-10q0 -305 -214 -515t-517 -210q-305 0 -516 213t-211 520zM190 721q0 -274 195 -468t469 -194t469 193.5t195 466.5q0 281 -191.5 474t-470 193t-472.5 -193t-194 -472zM649 258v920h144q70 0 96 -2 q86 -2 133 -39q80 -61 80 -207q0 -102 -49 -174q-39 -53 -119 -76l201 -422h-115l-193 410h-73v-410h-105zM754 758h47q109 0 145 28q49 39 49 140q0 94 -43 131q-33 27 -135 26h-63v-325z" />
<glyph unicode="&#xaf;" horiz-adv-x="468" d="M41 1198v86h387v-86h-387z" />
<glyph unicode="&#xb0;" horiz-adv-x="724" d="M72 1233q0 119 85 205t205.5 86t205.5 -85t85 -206t-85 -206t-205.5 -85t-205.5 85t-85 206zM164 1233q0 -82 58.5 -141.5t139.5 -59.5q84 0 142.5 59.5t58.5 141.5t-58.5 140.5t-142.5 58.5q-82 0 -140 -58.5t-58 -140.5z" />
<glyph unicode="&#xb1;" horiz-adv-x="1144" d="M174 0v86h797v-86h-797zM174 561v86h356v377l86 -2v-375h355v-86h-355v-375h-86v375h-356z" />
<glyph unicode="&#xb2;" horiz-adv-x="468" d="M51 543v71q6 43 66 134q27 39 74 104.5t61 90t36.5 71.5t29 90t6.5 104v6v9q2 156 -88.5 155.5t-90.5 -123.5v-110h-73v110q0 41 2 64.5t20.5 57.5t55.5 57q31 18 88 18q162 0 161 -209q0 -123 -8 -164q-4 -27 -16.5 -56.5t-21.5 -51t-31.5 -58t-31.5 -50t-40 -58.5 t-37 -53q-68 -94 -82 -138h268v-71h-348z" />
<glyph unicode="&#xb3;" horiz-adv-x="468" d="M47 774q0 12 1 29.5t1 27.5h74q0 -51 1 -77.5t7 -60.5t17.5 -50t33 -28.5t51.5 -12.5q111 0 111 150v84q0 49 -13.5 79.5t-43 46t-56 20.5t-71.5 7v76q168 0 168 135v68v8v14q0 6 -1 17.5t-4.5 20.5t-9.5 18.5t-15 16.5t-22.5 11t-31.5 4q-49 0 -66.5 -26.5t-19.5 -75.5 l-2 -102h-74v92q0 186 162 186q51 0 88 -20q43 -27 58.5 -63t15.5 -105q0 -111 -18.5 -156t-90.5 -78q68 -27 95.5 -69.5t27.5 -135.5q0 -119 -11.5 -172t-62.5 -92q-43 -31 -113 -31q-186 0 -186 244z" />
<glyph unicode="&#xb4;" horiz-adv-x="468" d="M51 1161l172 223h195l-293 -223h-74z" />
<glyph unicode="&#xb5;" horiz-adv-x="681" d="M102 -334v1364h86v-786q0 -84 36 -129t100 -45q57 0 93 29.5t66 103.5v827h86v-880q0 -45 8.5 -57.5t38.5 -12.5h19v-82h-10q-76 0 -103.5 18.5t-34.5 73.5q-68 -94 -174 -94q-78 0 -125 55v-385h-86z" />
<glyph unicode="&#xb6;" horiz-adv-x="1284" d="M190 1057q0 127 61.5 223t170.5 137q74 29 196 29h396v-86h-68v-1702h-90v1702h-276v-1702h-93v1034q-141 18 -219 114.5t-78 250.5z" />
<glyph unicode="&#xb7;" horiz-adv-x="299" d="M102 500v184h91v-184h-91z" />
<glyph unicode="&#xb8;" horiz-adv-x="468" d="M70 -266l39 47q74 -41 110 -41q39 2 56.5 23.5t17.5 44t-12 38.5q-6 8 -16.5 16.5t-21 12.5t-21.5 8t-18 6t-16 5h-8l10 159h68l-6 -104q90 -25 125 -80q23 -33 22 -70q-2 -45 -36.5 -86t-108 -40.5t-184.5 61.5z" />
<glyph unicode="&#xb9;" horiz-adv-x="468" d="M88 1249v72q70 18 97.5 47t43.5 80h70v-905h-80v762q-59 -44 -131 -56z" />
<glyph unicode="&#xba;" horiz-adv-x="382" d="M45 1018v6v268q0 170 145.5 170t145.5 -155v-283q0 -168 -152 -166q-141 2 -139 160zM111 1024q0 -98 77 -100q78 -4 78 100v268q0 25 -2 40.5t-8 32.5t-23.5 25.5t-44.5 8.5q-41 -2 -59 -25.5t-18 -81.5v-268z" />
<glyph unicode="&#xbb;" horiz-adv-x="768" d="M41 391l254 209l-238 201h113l250 -201l-254 -209h-125zM326 391l264 207l-250 203h125l248 -201l-258 -209h-129z" />
<glyph unicode="&#xbc;" horiz-adv-x="1193" d="M88 1249v72q70 18 97.5 47t43.5 80h70v-905h-80v762q-59 -44 -131 -56zM186 -121l752 1731l51 -25l-751 -1728zM760 270v88l231 545h96v-561h107v-72h-107v-270h-75v270h-252zM827 342h185v453z" />
<glyph unicode="&#xbd;" horiz-adv-x="1193" d="M88 1249v72q70 18 97.5 47t43.5 80h70v-905h-80v762q-59 -44 -131 -56zM168 -121l752 1731l51 -25l-752 -1728zM776 0v72q12 47 55 116q31 45 76 108.5t63.5 92.5t41 75t30 92t7.5 110v6v8q0 43 -2.5 68.5t-24 56.5t-61.5 31q-90 0 -91 -123v-111h-73v111q0 43 3 67.5 t22.5 58t58.5 54.5q45 25 82 16q162 0 161 -209q0 -160 -28.5 -234.5t-147.5 -242.5q-80 -113 -92 -151h270v-72h-350z" />
<glyph unicode="&#xbe;" horiz-adv-x="1193" d="M47 774q0 12 1 29.5t1 27.5h74q0 -51 1 -77.5t7 -60.5t17.5 -50t33 -28.5t51.5 -12.5q111 0 111 150v84q0 49 -13.5 79.5t-43 46t-56 20.5t-71.5 7v76q168 0 168 135v68v8v14q0 6 -1 17.5t-4.5 20.5t-9.5 18.5t-15 16.5t-22.5 11t-31.5 4q-49 0 -66.5 -26.5t-19.5 -75.5 l-2 -102h-74v92q0 186 162 186q51 0 88 -20q43 -27 58.5 -63t15.5 -105q0 -111 -18.5 -156t-90.5 -78q68 -27 95.5 -69.5t27.5 -135.5q0 -119 -11.5 -172t-62.5 -92q-43 -31 -113 -31q-186 0 -186 244zM229 -121l750 1731l53 -25l-753 -1728zM760 270v88l231 545h96v-561 h107v-72h-107v-270h-75v270h-252zM827 342h185v453z" />
<glyph unicode="&#xbf;" horiz-adv-x="724" d="M74 391q0 104 17.5 167t74.5 142q76 106 86 125q23 41 29 107v160h96v-174q0 -78 -43 -142l-49 -71q-23 -31 -47 -70q-23 -33 -34 -54.5t-22.5 -67.5t-11.5 -105q0 -80 6 -158q14 -139 92 -174q27 -12 64 -13q45 0 80 27q74 57 73 246q0 43 -4 125h97q8 -72 2.5 -187.5 t-41.5 -179.5q-68 -117 -211 -117q-156 0 -217 134q-37 77 -37 280zM281 1262v184h96v-184h-96z" />
<glyph unicode="&#xc0;" horiz-adv-x="768" d="M49 0l264 1454h140l262 -1454h-107l-73 440h-304l-75 -440h-107zM123 1802h199l180 -223h-68zM248 535h268l-113 671q-8 45 -20 135q-4 -43 -16 -124z" />
<glyph unicode="&#xc1;" horiz-adv-x="768" d="M49 0l264 1454h140l262 -1454h-107l-73 440h-304l-75 -440h-107zM248 535h268l-113 671q-8 45 -20 135q-4 -43 -16 -124zM260 1575l172 223h193l-291 -223h-74z" />
<glyph unicode="&#xc2;" horiz-adv-x="768" d="M49 0l264 1454h140l262 -1454h-107l-73 440h-304l-75 -440h-107zM174 1575l158 223h104l148 -221h-80l-121 139l-125 -141h-84zM248 535h268l-113 671q-8 45 -20 135q-4 -43 -16 -124z" />
<glyph unicode="&#xc3;" horiz-adv-x="768" d="M49 0l264 1454h140l262 -1454h-107l-73 440h-304l-75 -440h-107zM162 1622q74 113 151 113q39 0 86 -21q57 -29 84 -28q23 0 39 8q14 8 58 57l32 -27q-20 -33 -32 -47q-59 -80 -119 -80q-16 0 -129 39q-25 12 -49 13q-45 0 -90 -54zM248 535h268l-113 671q-8 45 -20 135 q-4 -43 -16 -124z" />
<glyph unicode="&#xc4;" horiz-adv-x="768" d="M49 0l264 1454h140l262 -1454h-107l-73 440h-304l-75 -440h-107zM178 1616v156h107v-156h-107zM248 535h268l-113 671q-8 45 -20 135q-4 -43 -16 -124zM481 1616v156h107v-156h-107z" />
<glyph unicode="&#xc5;" horiz-adv-x="768" d="M49 0l264 1454h140l262 -1454h-107l-73 440h-304l-75 -440h-107zM248 535h268l-113 671q-8 45 -20 135q-4 -43 -16 -124zM248 1667q0 57 40 96t95 39q57 0 96 -40t39 -95q0 -57 -40 -96t-95 -39q-57 0 -96 39t-39 96zM293 1667q0 -39 26 -65q29 -25 64 -25 q39 0 64.5 26.5t25.5 63.5q0 39 -26.5 64.5t-63.5 25.5q-39 0 -64.5 -26.5t-25.5 -63.5z" />
<glyph unicode="&#xc6;" horiz-adv-x="1024" d="M43 0l371 1446h534v-88h-325v-559h299v-90h-299v-619h360v-90h-461v627h-221l-154 -627h-104zM322 711h200v647h-37z" />
<glyph unicode="&#xc7;" horiz-adv-x="768" d="M106 328v784v16q0 63 3.5 98.5t29 90.5t76.5 92q70 51 178 51q201 0 258 -160q6 -18 10.5 -47.5t6.5 -50.5v-20v-203h-99v94v38v43q0 11 -2 42t-7 45t-12 39t-20.5 37t-32 25.5t-44 19.5t-56.5 6q-78 0 -134 -48t-56 -163v-727q0 -6 -1 -48t0 -58.5t5 -57.5t11 -60.5 t21.5 -50t36 -46t53 -26.5t72.5 -11q178 0 179 194v232h102v-224q0 -39 -2 -66.5t-17.5 -72.5t-42 -73.5t-81 -53t-129.5 -31.5l-2 -28q141 -35 147 -142q2 -45 -33 -90t-110 -45q-25 0 -48.5 4.5t-46 13.5t-37 15t-34 17.5t-21.5 11.5l39 47q78 -41 107 -41 q39 -2 58.5 20.5t19.5 46.5q0 61 -113 87l6 88q-96 12 -148.5 64t-70.5 112q-6 20 -10 46.5t-5 47t-1 22.5q-1 34 -3 54z" />
<glyph unicode="&#xc8;" horiz-adv-x="681" d="M80 1802h199l180 -223h-68zM121 0v1446h512v-90h-414v-557h340v-88h-340v-621h412v-90h-510z" />
<glyph unicode="&#xc9;" horiz-adv-x="681" d="M121 0v1446h512v-90h-414v-557h340v-88h-340v-621h412v-90h-510zM248 1575l174 223h192l-290 -223h-76z" />
<glyph unicode="&#xca;" horiz-adv-x="681" d="M121 0v1446h512v-90h-414v-557h340v-88h-340v-621h412v-90h-510zM152 1575l159 223h103l149 -221h-82l-119 139l-124 -141h-86z" />
<glyph unicode="&#xcb;" horiz-adv-x="681" d="M121 0v1446h512v-90h-414v-557h340v-88h-340v-621h412v-90h-510zM160 1616v156h106v-156h-106zM463 1616v156h106v-156h-106z" />
<glyph unicode="&#xcc;" horiz-adv-x="342" d="M-90 1802h199l180 -223h-68zM119 0v1446h104v-1446h-104z" />
<glyph unicode="&#xcd;" horiz-adv-x="342" d="M45 1575l174 223h193l-291 -223h-76zM119 0v1446h104v-1446h-104z" />
<glyph unicode="&#xce;" horiz-adv-x="342" d="M-39 1575l158 223h104l148 -221h-80l-121 139l-125 -141h-84zM119 0v1446h104v-1446h-104z" />
<glyph unicode="&#xcf;" horiz-adv-x="342" d="M-33 1616v156h107v-156h-107zM119 0v1446h104v-1446h-104zM272 1616v156h105v-156h-105z" />
<glyph unicode="&#xd0;" horiz-adv-x="811" d="M-2 758v86h123v602h168q100 0 176 -23.5t139 -101.5q55 -68 74.5 -177.5t19.5 -295.5v-332q0 -84 -2 -131t-23.5 -127t-62.5 -131q-68 -84 -170 -111q-57 -16 -149 -16h-168v758h-125zM221 92h86q82 0 135 25q55 27 91 73t48.5 109t15.5 101t3 100v14v344 q0 180 -19.5 276.5t-84.5 153.5q-74 66 -207 66h-68v-510h225v-86h-225v-666z" />
<glyph unicode="&#xd1;" horiz-adv-x="811" d="M113 0v1446h147l346 -1391l-14 1391h98v-1446h-153l-336 1366l8 -1366h-96zM182 1622q25 35 41.5 54.5t47 39t63.5 19.5q39 0 86 -21q61 -29 86 -28q20 0 37 8q8 4 14 9t11 11t15.5 17.5t18.5 19.5l31 -27q-20 -33 -31 -47q-59 -80 -121 -80q-12 0 -129 39q-25 12 -49 13 q-43 0 -88 -54z" />
<glyph unicode="&#xd2;" horiz-adv-x="811" d="M111 309v815v31q2 33 7 69t15 64q29 88 104.5 132t172.5 42q111 0 184 -53q47 -37 71.5 -96.5t27.5 -101.5t3 -117v-799q0 -119 -43 -189q-72 -125 -254 -124q-152 0 -225 88q-63 79 -63 239zM143 1802h199l180 -223h-65zM209 348q0 -115 16 -164q14 -41 59.5 -76.5 t121.5 -35.5q66 0 112 34q37 27 55.5 68t22.5 74t4 86v704q0 176 -35 244q-23 47 -65 68q-39 23 -97 22q-61 0 -110 -31q-84 -55 -84 -196v-797z" />
<glyph unicode="&#xd3;" horiz-adv-x="811" d="M111 309v815v31q2 33 7 69t15 64q29 88 104.5 132t172.5 42q111 0 184 -53q47 -37 71.5 -96.5t27.5 -101.5t3 -117v-799q0 -119 -43 -189q-72 -125 -254 -124q-152 0 -225 88q-63 79 -63 239zM209 348q0 -115 16 -164q14 -41 59.5 -76.5t121.5 -35.5q66 0 112 34 q37 27 55.5 68t22.5 74t4 86v704q0 176 -35 244q-23 47 -65 68q-39 23 -97 22q-61 0 -110 -31q-84 -55 -84 -196v-797zM281 1575l172 223h192l-291 -223h-73z" />
<glyph unicode="&#xd4;" horiz-adv-x="811" d="M111 309v815v31q2 33 7 69t15 64q29 88 104.5 132t172.5 42q111 0 184 -53q47 -37 71.5 -96.5t27.5 -101.5t3 -117v-799q0 -119 -43 -189q-72 -125 -254 -124q-152 0 -225 88q-63 79 -63 239zM195 1575l159 223h103l149 -221h-82l-121 139l-124 -141h-84zM209 348 q0 -115 16 -164q14 -41 59.5 -76.5t121.5 -35.5q66 0 112 34q37 27 55.5 68t22.5 74t4 86v704q0 176 -35 244q-23 47 -65 68q-39 23 -97 22q-61 0 -110 -31q-84 -55 -84 -196v-797z" />
<glyph unicode="&#xd5;" horiz-adv-x="811" d="M111 309v815v31q2 33 7 69t15 64q29 88 104.5 132t172.5 42q111 0 184 -53q47 -37 71.5 -96.5t27.5 -101.5t3 -117v-799q0 -119 -43 -189q-72 -125 -254 -124q-152 0 -225 88q-63 79 -63 239zM182 1622q25 35 41.5 54.5t47 39t63.5 19.5q39 0 86 -21q61 -29 86 -28 q20 0 37 8q8 4 14 9t11 11t15.5 17.5t18.5 19.5l31 -27q-20 -33 -31 -47q-59 -80 -121 -80q-12 0 -129 39q-25 12 -49 13q-43 0 -88 -54zM209 348q0 -115 16 -164q14 -41 59.5 -76.5t121.5 -35.5q66 0 112 34q37 27 55.5 68t22.5 74t4 86v704q0 176 -35 244q-23 47 -65 68 q-39 23 -97 22q-61 0 -110 -31q-84 -55 -84 -196v-797z" />
<glyph unicode="&#xd6;" horiz-adv-x="811" d="M111 309v815v31q2 33 7 69t15 64q29 88 104.5 132t172.5 42q111 0 184 -53q47 -37 71.5 -96.5t27.5 -101.5t3 -117v-799q0 -119 -43 -189q-72 -125 -254 -124q-152 0 -225 88q-63 79 -63 239zM199 1616v156h106v-156h-106zM209 348q0 -115 16 -164q14 -41 59.5 -76.5 t121.5 -35.5q66 0 112 34q37 27 55.5 68t22.5 74t4 86v704q0 176 -35 244q-23 47 -65 68q-39 23 -97 22q-61 0 -110 -31q-84 -55 -84 -196v-797zM502 1616v156h106v-156h-106z" />
<glyph unicode="&#xd7;" horiz-adv-x="1142" d="M244 874l63 64l264 -264l242 268l61 -59l-243 -271l260 -260l-62 -65l-260 258l-229 -258l-66 57l236 260z" />
<glyph unicode="&#xd8;" horiz-adv-x="811" d="M72 -37l73 174q-35 70 -34 164v729q0 141 4 180q16 125 96 195q80 68 201 68q127 0 198 -78q29 -29 45 -62l58 135l57 -26l-84 -193q10 -55 10 -104v-830q0 -66 -14 -127q-27 -102 -101.5 -153t-181.5 -51q-59 0 -105 16t-65.5 31.5t-46.5 46.5l-57 -137zM209 283 l385 907q0 2 -2 15.5t-5 29.5t-7 29q-37 117 -177 116q-61 0 -104 -28q-57 -35 -73.5 -94.5t-16.5 -145.5v-829zM229 188q16 -37 19 -41q47 -72 155 -71q96 0 144 55q51 57 51 201v706z" />
<glyph unicode="&#xd9;" horiz-adv-x="811" d="M117 342v1104h98v-1120q0 -131 33 -183q47 -74 160 -73q76 0 118 34q33 25 47.5 67t16.5 79t2 133v1063h100v-1159q0 -90 -20 -146q-61 -166 -271 -166q-113 0 -182 54q-25 16 -45 47q-29 39 -42 90t-14 78.5t-1 97.5zM143 1802h199l180 -223h-65z" />
<glyph unicode="&#xda;" horiz-adv-x="811" d="M117 342v1104h98v-1120q0 -131 33 -183q47 -74 160 -73q76 0 118 34q33 25 47.5 67t16.5 79t2 133v1063h100v-1159q0 -90 -20 -146q-61 -166 -271 -166q-113 0 -182 54q-25 16 -45 47q-29 39 -42 90t-14 78.5t-1 97.5zM281 1575l172 223h192l-291 -223h-73z" />
<glyph unicode="&#xdb;" horiz-adv-x="811" d="M117 342v1104h98v-1120q0 -131 33 -183q47 -74 160 -73q76 0 118 34q33 25 47.5 67t16.5 79t2 133v1063h100v-1159q0 -90 -20 -146q-61 -166 -271 -166q-113 0 -182 54q-25 16 -45 47q-29 39 -42 90t-14 78.5t-1 97.5zM195 1575l159 223h103l149 -221h-82l-121 139 l-124 -141h-84z" />
<glyph unicode="&#xdc;" horiz-adv-x="811" d="M117 342v1104h98v-1120q0 -131 33 -183q47 -74 160 -73q76 0 118 34q33 25 47.5 67t16.5 79t2 133v1063h100v-1159q0 -90 -20 -146q-61 -166 -271 -166q-113 0 -182 54q-25 16 -45 47q-29 39 -42 90t-14 78.5t-1 97.5zM199 1616v156h106v-156h-106zM502 1616v156h106 v-156h-106z" />
<glyph unicode="&#xdd;" horiz-adv-x="724" d="M29 1446h106l232 -680l229 680h111l-295 -807v-639h-99v639zM238 1575l172 223h194l-291 -223h-75z" />
<glyph unicode="&#xde;" horiz-adv-x="768" d="M119 0v1446h98v-240h125q100 0 150 -8q63 -12 104 -42t58.5 -74t22.5 -81.5t5 -93.5v-205q0 -68 -10 -98q-49 -186 -305 -186h-148v-418h-100zM217 502h164q45 0 74.5 6t62.5 26.5t49.5 67.5t16.5 119v123q0 102 -10.5 156.5t-45.5 84.5q-41 35 -157 35l-154 -2v-616z " />
<glyph unicode="&#xdf;" horiz-adv-x="724" d="M111 0v1182q0 160 71 225q61 55 187 55q160 0 206 -110q16 -37 17 -101v-164q0 -43 -8 -73q-23 -88 -138 -123q98 -39 140 -90q41 -53 41 -178v-453q0 -41 -9 -72q-33 -115 -169 -114q-33 0 -66 12q-78 29 -78 131v160h60v-133q0 -57 41 -78q18 -10 43 -10q90 2 90 122 v377q0 59 -1 85t-16.5 71t-46.5 72q-45 39 -151 47v88q88 4 129 39q35 29 43 61.5t8 89.5v92q0 57 -6 82q-27 86 -136 86q-55 0 -92 -18q-35 -16 -51 -55t-18 -65t-2 -77v-1163h-88z" />
<glyph unicode="&#xe0;" d="M57 242q0 92 37 161q20 39 57 73t59.5 48.5t82 46t72.5 37.5q53 31 90 60v116q0 117 -49 150q-25 18 -82 18q-88 0 -117 -65q-23 -51 -19 -174h-88q0 158 25 211q51 113 211 112q66 0 121 -28q55 -31 71.5 -78t16.5 -121v-692q2 -16 13 -24.5t19.5 -9.5t28.5 -1v-82 q-90 0 -121 29q-20 16 -28 51q-102 -80 -199 -80q-100 0 -150.5 69t-50.5 173zM82 1389h199l178 -224h-68zM145 240q0 -20 3.5 -40t15.5 -50.5t42 -49t75 -18.5q88 0 176 96v393q-29 -23 -66 -43q-18 -12 -53 -29.5t-49 -25.5q-74 -45 -109 -98t-35 -135z" />
<glyph unicode="&#xe1;" d="M57 242q0 92 37 161q20 39 57 73t59.5 48.5t82 46t72.5 37.5q53 31 90 60v116q0 117 -49 150q-25 18 -82 18q-88 0 -117 -65q-23 -51 -19 -174h-88q0 158 25 211q51 113 211 112q66 0 121 -28q55 -31 71.5 -78t16.5 -121v-692q2 -16 13 -24.5t19.5 -9.5t28.5 -1v-82 q-90 0 -121 29q-20 16 -28 51q-102 -80 -199 -80q-100 0 -150.5 69t-50.5 173zM145 240q0 -20 3.5 -40t15.5 -50.5t42 -49t75 -18.5q88 0 176 96v393q-29 -23 -66 -43q-18 -12 -53 -29.5t-49 -25.5q-74 -45 -109 -98t-35 -135zM215 1161l172 223h193l-291 -223h-74z" />
<glyph unicode="&#xe2;" d="M57 242q0 92 37 161q20 39 57 73t59.5 48.5t82 46t72.5 37.5q53 31 90 60v116q0 117 -49 150q-25 18 -82 18q-88 0 -117 -65q-23 -51 -19 -174h-88q0 158 25 211q51 113 211 112q66 0 121 -28q55 -31 71.5 -78t16.5 -121v-692q2 -16 13 -24.5t19.5 -9.5t28.5 -1v-82 q-90 0 -121 29q-20 16 -28 51q-102 -80 -199 -80q-100 0 -150.5 69t-50.5 173zM133 1163l156 223h104l148 -223h-80l-119 142l-127 -142h-82zM145 240q0 -20 3.5 -40t15.5 -50.5t42 -49t75 -18.5q88 0 176 96v393q-29 -23 -66 -43q-18 -12 -53 -29.5t-49 -25.5 q-74 -45 -109 -98t-35 -135z" />
<glyph unicode="&#xe3;" d="M57 242q0 92 37 161q20 39 57 73t59.5 48.5t82 46t72.5 37.5q53 31 90 60v116q0 117 -49 150q-25 18 -82 18q-88 0 -117 -65q-23 -51 -19 -174h-88q0 158 25 211q51 113 211 112q66 0 121 -28q55 -31 71.5 -78t16.5 -121v-692q2 -16 13 -24.5t19.5 -9.5t28.5 -1v-82 q-90 0 -121 29q-20 16 -28 51q-102 -80 -199 -80q-100 0 -150.5 69t-50.5 173zM119 1210q74 113 151 113q39 0 84 -20q74 -29 86 -29q23 0 39 10q18 10 58 55l32 -26q-4 -8 -16 -23.5t-16 -23.5q-59 -80 -119 -80q-10 0 -129 41q-31 10 -49 10q-45 0 -90 -53zM145 240 q0 -20 3.5 -40t15.5 -50.5t42 -49t75 -18.5q88 0 176 96v393q-29 -23 -66 -43q-18 -12 -53 -29.5t-49 -25.5q-74 -45 -109 -98t-35 -135z" />
<glyph unicode="&#xe4;" d="M57 242q0 92 37 161q20 39 57 73t59.5 48.5t82 46t72.5 37.5q53 31 90 60v116q0 117 -49 150q-25 18 -82 18q-88 0 -117 -65q-23 -51 -19 -174h-88q0 158 25 211q51 113 211 112q66 0 121 -28q55 -31 71.5 -78t16.5 -121v-692q2 -16 13 -24.5t19.5 -9.5t28.5 -1v-82 q-90 0 -121 29q-20 16 -28 51q-102 -80 -199 -80q-100 0 -150.5 69t-50.5 173zM145 240q0 -20 3.5 -40t15.5 -50.5t42 -49t75 -18.5q88 0 176 96v393q-29 -23 -66 -43q-18 -12 -53 -29.5t-49 -25.5q-74 -45 -109 -98t-35 -135zM186 1198v158h99v-158h-99zM389 1198v158h98 v-158h-98z" />
<glyph unicode="&#xe5;" d="M57 242q0 92 37 161q20 39 57 73t59.5 48.5t82 46t72.5 37.5q53 31 90 60v116q0 117 -49 150q-25 18 -82 18q-88 0 -117 -65q-23 -51 -19 -174h-88q0 158 25 211q51 113 211 112q66 0 121 -28q55 -31 71.5 -78t16.5 -121v-692q2 -16 13 -24.5t19.5 -9.5t28.5 -1v-82 q-90 0 -121 29q-20 16 -28 51q-102 -80 -199 -80q-100 0 -150.5 69t-50.5 173zM145 240q0 -20 3.5 -40t15.5 -50.5t42 -49t75 -18.5q88 0 176 96v393q-29 -23 -66 -43q-18 -12 -53 -29.5t-49 -25.5q-74 -45 -109 -98t-35 -135zM203 1261.5q0 57.5 40 96.5t95 39t95 -41 t40 -96q0 -57 -40 -96.5t-95 -39.5t-96 41q-39 39 -39 96.5zM248 1259.5q0 -36.5 26.5 -63.5t63.5 -27t63.5 28t26.5 64.5t-26.5 63.5t-63.5 27q-39 -2 -64.5 -29t-25.5 -63.5z" />
<glyph unicode="&#xe6;" horiz-adv-x="1024" d="M61 240q0 182 150 278q14 10 117 64q49 25 139 82v161q0 88 -61 115q-33 14 -68 14q-39 0 -76 -20q-31 -16 -46 -55t-17 -65t-2 -75v-22h-86v74q0 168 110 219q53 23 121 22q104 0 158 -53q18 -18 24 -27q2 2 7.5 8.5t9.5 10.5t8 6q59 57 162 57q66 0 113.5 -22.5t69 -51 t34 -74.5t13.5 -69.5t1 -60.5v-11v-219h-389v-215q0 -88 15.5 -134t56.5 -73q35 -27 82 -26q41 0 67 16q82 39 82 164v94h88v-63q0 -127 -37 -189q-23 -37 -55 -61q-63 -45 -141 -45q-111 0 -174 69q-14 16 -43 58q-10 -20 -37 -47q-78 -78 -185 -78q-82 0 -146.5 55.5 t-64.5 188.5zM147 240q0 -37 13 -74q31 -88 133 -88q41 0 72.5 13t54 42t28 37t19.5 37v368q-49 -35 -160 -94q-109 -57 -141 -149q-19 -45 -19 -92zM553 600h303v180q0 115 -63 152q-39 23 -84 22q-82 0 -123 -59q-33 -47 -33 -150v-145z" />
<glyph unicode="&#xe7;" d="M82 295v475q0 80 22.5 135.5t62.5 81t78 34.5t83 9q227 -6 227 -276v-90h-86v77q0 131 -55 181q-37 33 -92 32q-152 0 -152 -190v-459q0 -49 4 -80.5t18.5 -70.5t49 -58.5t90.5 -19.5q143 0 143 168v149h88v-133v-47q0 -14 -11 -60.5t-30.5 -72t-64.5 -52t-109 -32.5 l-2 -47q141 -35 148 -142q2 -45 -33 -90t-113 -45q-23 0 -46 4.5t-46 13.5t-37 15t-33.5 17.5t-21.5 11.5l39 47q78 -41 106 -41q39 -2 58.5 20.5t19.5 46.5q0 61 -113 87l7 102q-53 8 -91 30.5t-58.5 49t-32 67.5t-14.5 74t-3 78z" />
<glyph unicode="&#xe8;" d="M59 1389h199l178 -224h-65zM88 250v541q0 53 12 96q47 150 222 149q133 0 196 -90q41 -61 41 -233v-207h-385v-254q0 -43 8 -74q31 -100 146 -100q63 0 102 37q20 20 29 45q14 39 14 198h86v-116q0 -100 -45 -160q-63 -84 -192 -84q-47 0 -89 12q-18 6 -39.5 17.5t-49 41 t-40.5 66.5q-16 41 -16 115zM174 580h297v188q0 119 -57 162q-41 29 -90 28q-53 0 -91 -28q-59 -47 -59 -170v-180z" />
<glyph unicode="&#xe9;" d="M88 250v541q0 53 12 96q47 150 222 149q133 0 196 -90q41 -61 41 -233v-207h-385v-254q0 -43 8 -74q31 -100 146 -100q63 0 102 37q20 20 29 45q14 39 14 198h86v-116q0 -100 -45 -160q-63 -84 -192 -84q-47 0 -89 12q-18 6 -39.5 17.5t-49 41t-40.5 66.5q-16 41 -16 115 zM174 580h297v188q0 119 -57 162q-41 29 -90 28q-53 0 -91 -28q-59 -47 -59 -170v-180zM193 1161l172 223h194l-293 -223h-73z" />
<glyph unicode="&#xea;" d="M88 250v541q0 53 12 96q47 150 222 149q133 0 196 -90q41 -61 41 -233v-207h-385v-254q0 -43 8 -74q31 -100 146 -100q63 0 102 37q20 20 29 45q14 39 14 198h86v-116q0 -100 -45 -160q-63 -84 -192 -84q-47 0 -89 12q-18 6 -39.5 17.5t-49 41t-40.5 66.5q-16 41 -16 115 zM111 1163l157 223h105l147 -223h-80l-121 142l-124 -142h-84zM174 580h297v188q0 119 -57 162q-41 29 -90 28q-53 0 -91 -28q-59 -47 -59 -170v-180z" />
<glyph unicode="&#xeb;" d="M88 250v541q0 53 12 96q47 150 222 149q133 0 196 -90q41 -61 41 -233v-207h-385v-254q0 -43 8 -74q31 -100 146 -100q63 0 102 37q20 20 29 45q14 39 14 198h86v-116q0 -100 -45 -160q-63 -84 -192 -84q-47 0 -89 12q-18 6 -39.5 17.5t-49 41t-40.5 66.5q-16 41 -16 115 zM164 1198v158h98v-158h-98zM174 580h297v188q0 119 -57 162q-41 29 -90 28q-53 0 -91 -28q-59 -47 -59 -170v-180zM367 1198v158h98v-158h-98z" />
<glyph unicode="&#xec;" horiz-adv-x="299" d="M-111 1389h199l178 -224h-67zM106 0v1032h89v-1032h-89z" />
<glyph unicode="&#xed;" horiz-adv-x="299" d="M23 1161l172 223h192l-291 -223h-73zM106 0v1032h89v-1032h-89z" />
<glyph unicode="&#xee;" horiz-adv-x="299" d="M-59 1163l157 223h103l147 -223h-80l-118 142l-125 -142h-84zM106 0v1032h89v-1032h-89z" />
<glyph unicode="&#xef;" horiz-adv-x="299" d="M-6 1198v158h98v-158h-98zM106 0v1032h89v-1032h-89zM197 1198v158h98v-158h-98z" />
<glyph unicode="&#xf0;" d="M80 248v540q0 59 14 99q18 51 53 84t74 45t60.5 16t35.5 4q96 0 160 -84q-14 174 -80 273l-211 -78l-28 61l196 76q-59 74 -141 135l72 37q94 -82 143 -143l131 49l29 -64l-117 -45q53 -92 72.5 -186t19.5 -272l-2 -504q0 -45 -2 -73t-13 -70t-40 -73.5t-74 -54.5 q-51 -25 -115 -24q-158 0 -217 121q-20 43 -20 131zM168 250q0 -174 154 -170q152 4 151 178v514q0 2 -1 14.5t-1 23.5t-4 28.5t-9 32t-16.5 29.5t-26 25.5t-37 17.5t-50.5 7q-27 0 -48.5 -5t-37 -13t-27.5 -20.5t-20.5 -23.5t-13.5 -27.5t-8 -29t-4 -28t-1 -23.5v-20v-12 v-498z" />
<glyph unicode="&#xf1;" horiz-adv-x="681" d="M113 0v1030h86v-98q16 27 39 49q61 61 151 61q150 -4 184 -131q10 -35 11 -84v-827h-86v825l-2 23q-4 25 -9 41q-31 80 -116 78q-92 0 -146 -78q-12 -16 -26 -51v-838h-86zM119 1210q74 113 151 113q39 0 84 -20q74 -29 86 -29q23 0 39 10q18 10 58 55l32 -26 q-4 -8 -16 -23.5t-16 -23.5q-59 -80 -119 -80q-10 0 -129 41q-31 10 -49 10q-45 0 -90 -53z" />
<glyph unicode="&#xf2;" d="M59 1389h199l178 -224h-65zM80 248v540q0 98 43 156q66 92 205 92q111 0 172 -59q29 -29 47 -76q14 -41 14 -119v-491q0 -86 -14 -133q-14 -51 -46 -87t-70 -50.5t-63.5 -19.5t-50.5 -5q-72 0 -133 32.5t-86 94.5q-18 43 -18 125zM168 250q0 -41 6 -68q27 -102 143 -102 q104 0 142 88q14 37 14 90v516q0 111 -59 152q-33 25 -86 24q-61 0 -99 -28q-29 -20 -43 -52t-16 -55.5t-2 -66.5v-498z" />
<glyph unicode="&#xf3;" d="M80 248v540q0 98 43 156q66 92 205 92q111 0 172 -59q29 -29 47 -76q14 -41 14 -119v-491q0 -86 -14 -133q-14 -51 -46 -87t-70 -50.5t-63.5 -19.5t-50.5 -5q-72 0 -133 32.5t-86 94.5q-18 43 -18 125zM168 250q0 -41 6 -68q27 -102 143 -102q104 0 142 88q14 37 14 90 v516q0 111 -59 152q-33 25 -86 24q-61 0 -99 -28q-29 -20 -43 -52t-16 -55.5t-2 -66.5v-498zM193 1161l172 223h194l-293 -223h-73z" />
<glyph unicode="&#xf4;" d="M80 248v540q0 98 43 156q66 92 205 92q111 0 172 -59q29 -29 47 -76q14 -41 14 -119v-491q0 -86 -14 -133q-14 -51 -46 -87t-70 -50.5t-63.5 -19.5t-50.5 -5q-72 0 -133 32.5t-86 94.5q-18 43 -18 125zM111 1163l157 223h105l147 -223h-80l-121 142l-124 -142h-84z M168 250q0 -41 6 -68q27 -102 143 -102q104 0 142 88q14 37 14 90v516q0 111 -59 152q-33 25 -86 24q-61 0 -99 -28q-29 -20 -43 -52t-16 -55.5t-2 -66.5v-498z" />
<glyph unicode="&#xf5;" d="M80 248v540q0 98 43 156q66 92 205 92q111 0 172 -59q29 -29 47 -76q14 -41 14 -119v-491q0 -86 -14 -133q-14 -51 -46 -87t-70 -50.5t-63.5 -19.5t-50.5 -5q-72 0 -133 32.5t-86 94.5q-18 43 -18 125zM96 1210q25 35 41.5 54.5t47 39t63.5 19.5q41 0 86 -20 q74 -29 86 -29q23 0 37 10q14 8 59 55l31 -26q-6 -8 -16.5 -23.5t-14.5 -23.5q-59 -80 -121 -80q-6 0 -129 41q-20 10 -47 10q-45 0 -90 -53zM168 250q0 -41 6 -68q27 -102 143 -102q104 0 142 88q14 37 14 90v516q0 111 -59 152q-33 25 -86 24q-61 0 -99 -28 q-29 -20 -43 -52t-16 -55.5t-2 -66.5v-498z" />
<glyph unicode="&#xf6;" d="M80 248v540q0 98 43 156q66 92 205 92q111 0 172 -59q29 -29 47 -76q14 -41 14 -119v-491q0 -86 -14 -133q-14 -51 -46 -87t-70 -50.5t-63.5 -19.5t-50.5 -5q-72 0 -133 32.5t-86 94.5q-18 43 -18 125zM168 250q0 -41 6 -68q27 -102 143 -102q104 0 142 88q14 37 14 90 v516q0 111 -59 152q-33 25 -86 24q-61 0 -99 -28q-29 -20 -43 -52t-16 -55.5t-2 -66.5v-498zM170 1198v158h98v-158h-98zM373 1198v158h98v-158h-98z" />
<glyph unicode="&#xf7;" horiz-adv-x="1144" d="M174 563v86h799v-86h-799zM524 285v151h101v-151h-101zM524 774v152h101v-152h-101z" />
<glyph unicode="&#xf8;" d="M45 12l55 109q-23 70 -22 119v520q0 145 67 211q66 66 183 65q94 0 153 -45q23 -14 39 -41l45 84l37 -20l-59 -115q16 -49 16 -108v-545q0 -55 -16 -103q-20 -63 -72.5 -99t-89.5 -42t-70 -4q-66 0 -112 22q-23 10 -39 21q-8 6 -15.5 14t-12.5 14.5t-7 8.5l-45 -86z M166 252l299 586q-6 25 -12.5 38t-21.5 33.5t-43 30.5t-66 10q-78 0 -117 -47q-39 -45 -39 -149v-502zM176 176q8 -33 21 -45q39 -53 120 -53q57 0 97 28q29 23 43 63t15 65.5t1 76.5v447z" />
<glyph unicode="&#xf9;" horiz-adv-x="681" d="M82 1389h199l178 -224h-68zM102 236v794h86v-762q0 -150 78 -186q20 -12 58 -12q80 0 125 63q20 29 34 70v827h88v-1030h-88v96q-25 -31 -32 -39q-68 -63 -154 -63q-100 0 -154 76q-41 55 -41 166z" />
<glyph unicode="&#xfa;" horiz-adv-x="681" d="M102 236v794h86v-762q0 -150 78 -186q20 -12 58 -12q80 0 125 63q20 29 34 70v827h88v-1030h-88v96q-25 -31 -32 -39q-68 -63 -154 -63q-100 0 -154 76q-41 55 -41 166zM215 1161l172 223h193l-291 -223h-74z" />
<glyph unicode="&#xfb;" horiz-adv-x="681" d="M102 236v794h86v-762q0 -150 78 -186q20 -12 58 -12q80 0 125 63q20 29 34 70v827h88v-1030h-88v96q-25 -31 -32 -39q-68 -63 -154 -63q-100 0 -154 76q-41 55 -41 166zM133 1163l156 223h104l148 -223h-80l-119 142l-127 -142h-82z" />
<glyph unicode="&#xfc;" horiz-adv-x="681" d="M102 236v794h86v-762q0 -150 78 -186q20 -12 58 -12q80 0 125 63q20 29 34 70v827h88v-1030h-88v96q-25 -31 -32 -39q-68 -63 -154 -63q-100 0 -154 76q-41 55 -41 166zM186 1198v158h99v-158h-99zM389 1198v158h98v-158h-98z" />
<glyph unicode="&#xfd;" horiz-adv-x="598" d="M18 -336l2 86q141 -18 191 82q12 23 18 57l27 119l-225 1022h88l180 -856l182 856h92l-264 -1147q-25 -104 -71 -153q-64 -66 -220 -66zM172 1161l172 223h193l-291 -223h-74z" />
<glyph unicode="&#xfe;" horiz-adv-x="681" d="M111 -334v1780h82v-512q84 104 190 106q70 0 115 -34q41 -31 61.5 -83.5t22.5 -86t2 -91.5v-14v-498q0 -143 -95 -206q-51 -33 -114 -33q-106 0 -176 90v-418h-88zM199 193q41 -117 159 -117q137 0 138 188v537q0 84 -40 122t-94 38q-125 0 -163 -134v-634z" />
<glyph unicode="&#xff;" horiz-adv-x="598" d="M18 -336l2 86q141 -18 191 82q12 23 18 57l27 119l-225 1022h88l180 -856l182 856h92l-264 -1147q-25 -104 -71 -153q-64 -66 -220 -66zM164 1198v158h98v-158h-98zM367 1198v158h98v-158h-98z" />
<glyph unicode="&#x152;" horiz-adv-x="1110" d="M102 283v833q0 109 22.5 179.5t94.5 119.5q68 47 172 47q119 0 205 -82v66h473v-88h-377v-565h334v-86h-332v-619h377v-88h-473v82q-23 -29 -39 -41q-76 -61 -186 -61q-92 0 -160 45q-111 74 -111 258zM199 334q0 -59 2 -86t17 -69t48 -70q51 -43 123 -43q39 0 82 16 q86 39 113 117q14 35 14 90v772q0 53 -2 86t-12.5 80t-37 79.5t-67.5 51.5q-49 18 -92 18q-94 -2 -141 -59t-47 -152v-831z" />
<glyph unicode="&#x153;" horiz-adv-x="1024" d="M86 264v467v17q0 61 3 93.5t23.5 77t61.5 70.5q61 43 150 43q106 0 168 -61q4 -4 15 -18.5t15 -20.5q10 20 33 43q61 59 168 59q84 0 139 -41q41 -31 61.5 -87t21.5 -87t1 -106v-191h-385v-205q0 -59 1 -83.5t17.5 -66.5t51.5 -65q37 -27 86 -26q92 0 125 71q16 33 16 93 v106h88v-90q0 -78 -14 -123q-43 -143 -211 -141q-106 0 -166 57q-18 18 -41 62q-18 -27 -27 -37q-70 -82 -180 -82q-68 0 -123 31q-61 35 -79.5 93t-18.5 148zM172 319q0 -98 11.5 -143t47.5 -74q35 -27 86 -26q80 0 121 57q35 45 35 143v494q0 182 -149 182 q-66 0 -101 -33.5t-43 -70.5q-8 -27 -8 -78v-451zM559 596h299v168q0 74 -16 113q-33 78 -125 77q-68 0 -102.5 -36.5t-45.5 -75.5q-10 -33 -10 -76v-170z" />
<glyph unicode="&#x178;" horiz-adv-x="724" d="M29 1446h106l232 -680l229 680h111l-295 -807v-639h-99v639zM160 1616v156h106v-156h-106zM463 1616v156h106v-156h-106z" />
<glyph unicode="&#x2c6;" horiz-adv-x="468" d="M29 1163l157 223h103l151 -223h-82l-118 142l-125 -142h-86z" />
<glyph unicode="&#x2dc;" horiz-adv-x="468" d="M8 1210q25 35 41.5 54.5t47 39t63.5 19.5q39 0 86 -20q70 -29 86 -29q20 0 37 10q16 8 57 55l35 -26q-12 -20 -33 -47q-59 -80 -119 -80q-12 0 -29.5 5t-48 17.5t-51.5 18.5q-20 10 -49 10q-41 0 -90 -53z" />
<glyph unicode="&#x2013;" horiz-adv-x="727" d="M72 555v86h581v-86h-581z" />
<glyph unicode="&#x2014;" horiz-adv-x="1007" d="M72 561v86h862v-86h-862z" />
<glyph unicode="&#x2018;" horiz-adv-x="299" d="M111 1075v187q0 72 18 113.5t74 70.5v-45q-25 -16 -36 -42t-12 -42.5t-1 -54.5h49v-187h-92z" />
<glyph unicode="&#x2019;" horiz-adv-x="299" d="M102 1075v45q35 23 43.5 53.5t8.5 86.5h-50v186h93v-186q0 -72 -19 -114t-76 -71z" />
<glyph unicode="&#x201a;" horiz-adv-x="299" d="M102 -139q35 23 43.5 53.5t8.5 85.5h-50v186h93v-186q0 -74 -18.5 -115t-76.5 -69v45z" />
<glyph unicode="&#x201c;" horiz-adv-x="512" d="M88 1075v187q0 74 17.5 115.5t74.5 70.5v-45q-25 -16 -36 -42t-12 -43.5t-1 -55.5h49v-187h-92zM311 1075v187q0 72 18.5 114.5t73.5 71.5v-45q-25 -18 -36 -43t-12 -41t-1 -57h49v-187h-92z" />
<glyph unicode="&#x201d;" horiz-adv-x="512" d="M96 1075v45q35 23 43 53.5t8 86.5h-49v186h92v-186q0 -72 -18.5 -114t-75.5 -71zM319 1075v45q35 23 43.5 53.5t8.5 86.5h-52v186h93v-186q0 -74 -18 -115t-75 -70z" />
<glyph unicode="&#x201e;" horiz-adv-x="512" d="M96 -139q25 16 37 40.5t13 41t1 57.5h-49v186h92v-186q0 -74 -18 -115t-76 -69v45zM319 0v186h93v-186q0 -74 -17.5 -115t-75.5 -69v45q35 23 43.5 53.5t8.5 85.5h-52z" />
<glyph unicode="&#x2022;" horiz-adv-x="681" d="M195 524v408h292l-2 -408h-290z" />
<glyph unicode="&#x2026;" horiz-adv-x="2048" d="M289 0v133h106v-133h-106zM971 0v133h106v-133h-106zM1653 0v133h104v-133h-104z" />
<glyph unicode="&#x2039;" horiz-adv-x="512" d="M72 600l254 205h123l-250 -205l239 -205h-114z" />
<glyph unicode="&#x203a;" horiz-adv-x="512" d="M55 391l264 207l-249 203h123l247 -201l-258 -209h-127z" />
<glyph unicode="&#x20ac;" horiz-adv-x="790" d="M53 635l17 78h106v104h-123l17 78h106v176q0 74 2 105q6 131 72 202q74 84 219 84q172 0 264 -119l-33 -102q-49 72 -101 101.5t-128 29.5q-123 0 -166 -78q-35 -61 -35 -213v-186h367l-25 -78h-342v-104h324l-23 -78h-299v-205q0 -188 27 -254q43 -106 180 -106 q141 0 252 127v-129q-119 -90 -260 -91q-180 0 -254 129q-41 72 -41 222v307h-123z" />
<glyph unicode="&#x2122;" horiz-adv-x="1052" d="M45 1372v74h332v-74h-123v-606h-82v606h-127zM438 1446h117l123 -606l123 606h119l2 -680h-80l8 614l-127 -614h-90l-127 614l14 -614h-80z" />
<glyph unicode="&#xe000;" horiz-adv-x="1030" d="M0 1030h1030v-1030h-1030v1030z" />
<glyph unicode="&#xfb01;" horiz-adv-x="681" d="M487 0v1030h86v-1030h-86zM487 1151v160h89v-160h-89zM35 948v82h123v244q0 106 84 149q41 23 98 23q18 0 51 -4v-80q-17 2 -32 2q-92 0 -113 -76q-4 -18 -4 -53v-205h127v-82h-131v-948h-86v948h-117z" />
<glyph unicode="&#xfb02;" horiz-adv-x="681" d="M489 0v1446h87v-1446h-87zM35 948v82h123v244q0 106 84 149q41 23 98 23q18 0 51 -4v-80q-17 2 -32 2q-92 0 -113 -76q-4 -18 -4 -53v-205h127v-82h-131v-948h-86v948h-117z" />
<glyph unicode="&#xfb03;" horiz-adv-x="1064" d="M870 0v1030h86v-1030h-86zM870 1151v160h89v-160h-89zM418 948v82h123v244q0 106 84 149q41 23 98 23q18 0 51 -4v-80q-17 2 -32 2q-92 0 -113 -76q-4 -18 -4 -53v-205h127v-82h-131v-948h-86v948h-117zM35 948v82h123v244q0 106 84 149q41 23 98 23q18 0 51 -4v-80 q-17 2 -32 2q-92 0 -113 -76q-4 -18 -4 -53v-205h127v-82h-131v-948h-86v948h-117z" />
<glyph unicode="&#xfb04;" horiz-adv-x="1064" d="M872 0v1446h87v-1446h-87zM418 948v82h123v244q0 106 84 149q41 23 98 23q18 0 51 -4v-80q-17 2 -32 2q-92 0 -113 -76q-4 -18 -4 -53v-205h127v-82h-131v-948h-86v948h-117zM35 948v82h123v244q0 106 84 149q41 23 98 23q18 0 51 -4v-80q-17 2 -32 2q-92 0 -113 -76 q-4 -18 -4 -53v-205h127v-82h-131v-948h-86v948h-117z" />
</font>
</defs>
</svg>
