<?xml version="1.0" standalone="no"?>
<!DOCTYPE svg PUBLIC "-//W3C//DTD SVG 1.1//EN" "http://www.w3.org/Graphics/SVG/1.1/DTD/svg11.dtd" >
<svg xmlns="http://www.w3.org/2000/svg">
<metadata>
This is a custom SVG webfont generated by Font Squirrel.
Copyright   : Copyright c 2002 2005 Parachute wwwparachutegr  All rights reserved
Designer    : Panos Vassiliou
Foundry     : Parachute Worldwide
Foundry URL : httpwwwparachutegr
</metadata>
<defs>
<font id="PFDinTextCondProLightItalic" horiz-adv-x="870" >
<font-face units-per-em="2048" ascent="1536" descent="-512" />
<missing-glyph horiz-adv-x="409" />
<glyph unicode=" "  horiz-adv-x="409" />
<glyph unicode="&#x09;" horiz-adv-x="409" />
<glyph unicode="&#xa0;" horiz-adv-x="409" />
<glyph unicode="!" horiz-adv-x="450" d="M74 0l28 145h140l-31 -145h-137zM164 358q18 111 43.5 250.5t51.5 283.5t51.5 283.5t45.5 249.5h127l-223 -1067h-96z" />
<glyph unicode="&#x22;" horiz-adv-x="507" d="M221 1040l76 385h98l-73 -385h-101zM430 1040l76 385h98l-76 -385h-98z" />
<glyph unicode="#" horiz-adv-x="876" d="M23 0l161 455h-157l16 88h172l123 348h-156l17 90h172l161 446h91l-160 -446h235l160 446h92l-159 -446h163l-18 -90h-176l-127 -348h164l-19 -88h-176l-158 -455h-94l160 455h-236l-159 -455h-92zM305 543h238l123 348h-234z" />
<glyph unicode="$" d="M20 227l109 58q27 -66 76 -116t131 -58l110 565q-119 51 -191.5 120.5t-72.5 186.5q0 98 32 180t87 140.5t130 91t161 35.5l33 165h73q-10 -43 -17 -86t-15 -84q57 -6 102 -26.5t79 -51t55.5 -67.5t31.5 -74l-107 -59q-10 27 -24.5 52.5t-36 47t-52 36.5t-71.5 22 q-6 -25 -14 -66t-17.5 -91t-20.5 -104.5t-20.5 -104.5t-17.5 -91t-12 -66q61 -25 112.5 -53.5t88 -65t57 -84t20.5 -110.5q0 -109 -30.5 -197t-88 -150.5t-136.5 -97t-177 -36.5q-10 -53 -20.5 -104.5t-20.5 -104.5h-74l41 213q-121 10 -188.5 75.5t-104.5 159.5zM315 995 q0 -66 44 -107.5t114 -74.5q23 123 46.5 246t47.5 246q-53 -4 -99 -30t-80 -67t-53.5 -96.5t-19.5 -116.5zM410 109q66 6 117 33.5t86.5 72.5t54 103.5t18.5 125.5q0 82 -50 127t-120 76q-29 -135 -53 -269t-53 -269z" />
<glyph unicode="%" horiz-adv-x="1269" d="M98 -35l1049 1495h104l-1050 -1495h-103zM137 805l82 418q18 96 76.5 151.5t161.5 55.5q104 0 160.5 -67t37.5 -169l-77 -424q-16 -92 -74 -149.5t-162 -57.5q-111 0 -169.5 68t-35.5 174zM236 782q-12 -51 16.5 -89t91.5 -38q66 0 94.5 36t38.5 83l84 438 q10 49 -19.5 86t-88.5 37t-91 -32.5t-43 -81.5zM707 231l81 418q18 96 77 151.5t161 55.5q104 0 160.5 -66.5t38.5 -168.5l-78 -424q-16 -92 -73.5 -149.5t-162.5 -57.5q-111 0 -169 67.5t-35 173.5zM805 209q-12 -51 16.5 -89t91.5 -38q66 0 94.5 36t39.5 83l83 438 q10 49 -19.5 86t-88.5 37t-91 -33t-42 -82z" />
<glyph unicode="&#x26;" horiz-adv-x="1050" d="M78 281q0 145 86 270t250 229q-29 72 -60.5 153t-31.5 175q0 68 22.5 127t65.5 104t106.5 72t145.5 27q86 0 155.5 -31t110.5 -102l-99 -68q-27 49 -70.5 69.5t-103.5 20.5q-55 0 -95 -19.5t-64.5 -51t-37 -70.5t-12.5 -78q0 -33 16.5 -88t42 -124t57.5 -144.5 t64.5 -148.5t63.5 -137.5t53 -109.5q41 57 66 122t43 122l113 -4q-23 -86 -65 -181.5t-101 -176.5q29 -59 57.5 -120t56.5 -118h-141l-70 141q-92 -90 -171.5 -121.5t-170.5 -31.5q-127 0 -204.5 77t-77.5 216zM201 289q0 -86 45 -138.5t135 -52.5q66 0 142.5 38t135.5 102 l-198 438q-139 -92 -199.5 -189.5t-60.5 -197.5z" />
<glyph unicode="'" horiz-adv-x="378" d="M260 1040l74 385h100l-74 -385h-100z" />
<glyph unicode="(" horiz-adv-x="495" d="M119 373q0 154 39 307.5t106.5 295.5t156.5 270t189 231l58 -37q-94 -117 -172 -247t-134.5 -271.5t-87 -289t-30.5 -296.5q0 -141 26.5 -277.5t79.5 -255.5l-67 -41q-78 129 -121 286t-43 325z" />
<glyph unicode=")" horiz-adv-x="495" d="M-66 -197q92 111 169 242t134.5 273.5t89 292t31.5 296.5q0 139 -27.5 275.5t-78.5 255.5q16 10 35.5 19t36.5 18q76 -129 117.5 -282t41.5 -321q0 -158 -38.5 -312t-106.5 -297.5t-158 -270.5t-192 -230z" />
<glyph unicode="*" horiz-adv-x="708" d="M201 1167q2 6 9 20.5t16.5 32t16.5 33t11 21.5l207 -96q2 10 6 47t9 77.5t10.5 77.5t5.5 47h108l-65 -249q10 4 44.5 17t75.5 28.5t77 30t46 20.5l17 -107l-250 -65l123 -193l-105 -65l-88 215l-172 -217q-4 4 -15.5 13t-23.5 20.5t-24.5 19.5t-16.5 12l197 195 q-10 2 -42 12t-68 20.5t-68.5 20.5t-40.5 12z" />
<glyph unicode="+" d="M63 543l21 102h344l70 361h100l-70 -361h342l-18 -102h-344l-70 -363h-100l70 363h-345z" />
<glyph unicode="," horiz-adv-x="387" d="M-23 -219l93 213h-41l32 170h156l-31 -164l-133 -219h-76z" />
<glyph unicode="-" horiz-adv-x="733" d="M119 508l24 117h537l-23 -117h-538z" />
<glyph unicode="." horiz-adv-x="378" d="M31 0l30 166h156l-31 -166h-155z" />
<glyph unicode="/" horiz-adv-x="563" d="M-111 -86l750 1571h102l-753 -1571h-99z" />
<glyph unicode="0" d="M62.5 201.5q-15.5 68.5 0.5 154.5l146 754q33 160 127 244t242 84q66 0 125 -22.5t100 -67.5t59.5 -109.5t1.5 -146.5l-147 -777q-29 -156 -121 -241.5t-246 -85.5q-72 0 -132 25.5t-100 72.5t-55.5 115.5zM186 348q-20 -113 28 -176t144 -63q51 0 91 17t68 46t45.5 66.5 t25.5 78.5l151 777q18 96 -32 158.5t-144 62.5t-152.5 -55.5t-76.5 -151.5z" />
<glyph unicode="1" d="M307 0l250 1288l-229 -147l26 137l228 147h129l-277 -1425h-127z" />
<glyph unicode="2" d="M-25 0l23 121l620 747q115 143 115 273q0 74 -43 124t-133 50q-80 0 -148.5 -58.5t-93.5 -162.5l-125 24q37 150 138.5 234t242.5 84q133 0 213 -72t80 -207q2 -106 -43 -190t-106 -162l-568 -684h508l-22 -121h-658z" />
<glyph unicode="3" d="M-23 264l121 23q8 -84 45 -133.5t129 -49.5q76 0 130.5 34t88 89.5t50 125t16.5 141.5q0 88 -41 139t-139 51h-68l23 113h71q59 0 108.5 26.5t84.5 73.5t54.5 110.5t19.5 137.5q0 72 -42 122t-128 50q-78 0 -141.5 -49t-90.5 -146l-123 25q37 145 136.5 217t232.5 72 q143 0 214 -76t71 -191q0 -55 -11.5 -117.5t-38 -122t-71.5 -109.5t-115 -83q37 -14 59.5 -38.5t37 -54.5t19.5 -61.5t5 -62.5q0 -82 -19.5 -175t-66.5 -173t-130 -132t-208 -52q-129 0 -200 65.5t-83 210.5z" />
<glyph unicode="4" d="M8 229l25 121l602 1075h129l-602 -1077h391l80 414h123l-80 -414h112l-22 -119h-113l-45 -229h-123l43 229h-520z" />
<glyph unicode="5" d="M47 264l127 23q0 -41 8 -75t28.5 -58.5t53.5 -38t84 -13.5q84 0 141.5 54.5t91 136.5t48 176t14.5 172t-38 127t-126 49q-55 0 -113.5 -29.5t-95.5 -78.5h-116q35 180 69.5 358t69.5 358h625l-25 -120h-508q-23 -117 -44.5 -230.5t-43.5 -230.5h2q55 47 115.5 66.5 t117.5 19.5q129 0 183.5 -69.5t54.5 -182.5q0 -143 -24.5 -269t-78 -219.5t-136 -147.5t-199.5 -54q-125 0 -205 65.5t-80 210.5z" />
<glyph unicode="6" d="M63 272q2 113 31 218.5t90 203.5l471 731h133q-135 -217 -236 -374.5t-179 -280.5l2 -2q35 23 77 34t80 11q66 0 110 -23.5t69.5 -63.5t37 -90t11.5 -106q0 -94 -23.5 -190t-73 -175t-127 -128t-188.5 -49q-141 0 -213 77.5t-72 206.5zM195 295q0 -86 37.5 -138.5 t129.5 -52.5q80 0 132.5 45.5t83 111t43 138t12.5 129.5q0 82 -39 127t-125 45q-78 0 -131 -39.5t-85 -100t-45 -132.5t-13 -133z" />
<glyph unicode="7" d="M72 0l690 1307h-416l-37 -199h-121l64 317h666l-23 -118l-690 -1307h-133z" />
<glyph unicode="8" d="M41 276q0 43 9 111t36 137.5t76 130t127 84.5q-49 31 -78 83t-29 118q0 92 24.5 181t75 159t125 113t177.5 43q137 0 211.5 -78t74.5 -201q0 -53 -11 -117.5t-38.5 -126t-71.5 -109.5t-108 -67q59 -29 88 -91t29 -134q0 -92 -21.5 -185.5t-70 -168t-127 -122.5 t-193.5 -48q-135 0 -220 75.5t-85 212.5zM166 305q0 -35 7 -70.5t27.5 -64.5t56.5 -48.5t93 -19.5q82 0 135.5 39t85 97.5t46 125t16.5 119.5q0 84 -42 143.5t-136 59.5q-84 0 -139.5 -40t-88 -98.5t-47 -124t-14.5 -118.5zM309 942q0 -66 47 -106.5t121 -40.5 q72 0 123 31.5t83 80.5t47 111.5t15 124.5q0 78 -47 127t-133 49q-72 0 -121 -35t-78.5 -89t-43 -120.5t-13.5 -132.5z" />
<glyph unicode="9" d="M121 0q135 217 236.5 374.5t179.5 280.5l-2 2q-35 -23 -77 -34t-81 -11q-66 0 -110 23.5t-70.5 63.5t-36.5 90.5t-10 105.5q0 94 23.5 190.5t72.5 174t127 128t188 50.5q141 0 213 -78t72 -207q-2 -113 -35 -224.5t-86 -197.5l-471 -731h-133zM276 897q0 -82 39 -127 t125 -45q78 0 131.5 40t85 100.5t45 132t13.5 132.5q0 86 -38 138.5t-130 52.5q-80 0 -132.5 -45t-83 -110.5t-43 -138.5t-12.5 -130z" />
<glyph unicode=":" horiz-adv-x="380" d="M29 0l30 166h156l-33 -166h-153zM150 616l30 168h154l-31 -168h-153z" />
<glyph unicode=";" horiz-adv-x="380" d="M-25 -219l95 213h-41l32 170h156l-31 -164l-133 -219h-78zM150 616l32 166h156q-2 -8 -7 -31.5t-10.5 -51t-9.5 -51t-6 -32.5h-155z" />
<glyph unicode="&#x3c;" d="M78 547l18 96l832 381l-21 -117l-706 -317q10 -4 54 -27.5t105.5 -57.5t132 -73t132 -72.5t106.5 -58.5t55 -29l-24 -104z" />
<glyph unicode="=" d="M29 365l22 106h787l-21 -106h-788zM96 709l21 102h786l-20 -102h-787z" />
<glyph unicode="&#x3e;" d="M4 168l23 117q10 4 64 28.5t128 58.5t160 71.5t159.5 71.5t127 57.5t65.5 27.5l-581 320l22 104l686 -381l-18 -96z" />
<glyph unicode="?" horiz-adv-x="847" d="M193 1108q49 166 151 247t256 81q152 0 232.5 -82t80.5 -217q0 -63 -13 -113.5t-36.5 -92.5t-54.5 -78t-68 -73q-33 -35 -66.5 -68.5t-64 -69.5t-54.5 -76t-34 -87l-26 -131h-129l28 141q14 66 54 126.5t89.5 116.5t99.5 107.5t85 98.5q29 37 44 83t15 101 q0 82 -46 136.5t-148 54.5q-53 0 -97.5 -18.5t-78 -50.5t-56 -74t-34.5 -91q-33 8 -64.5 15.5t-64.5 13.5zM293 0l31 147h139l-31 -147h-139z" />
<glyph unicode="@" horiz-adv-x="1579" d="M139 520q0 195 61.5 364t171 292.5t263 194.5t338.5 71q133 0 240.5 -39t182 -110.5t115.5 -172t41 -223.5q0 -152 -35.5 -268.5t-94 -194.5t-133.5 -118t-152 -40q-23 0 -52.5 7.5t-57.5 23t-48.5 39t-24.5 55.5h-2q-43 -57 -105.5 -86.5t-123.5 -29.5q-59 0 -99 20.5 t-64.5 54t-35 75.5t-10.5 83q0 88 13.5 186.5t51 180.5t105.5 136t178 54q53 0 106.5 -27.5t75.5 -68.5l3 2l16 90h104q-29 -141 -56.5 -282.5t-55.5 -282.5q-10 -49 13.5 -91t76.5 -42q57 0 112.5 34.5t98.5 101t68.5 164t25.5 220.5q0 109 -37 192.5t-101.5 142 t-151.5 89.5t-187 31q-170 0 -305.5 -65.5t-228.5 -177.5t-143 -259.5t-50 -308.5q0 -242 129 -382.5t387 -140.5q100 0 194.5 19.5t194.5 64.5l31 -92q-100 -35 -207 -59.5t-217 -24.5q-143 0 -258 39t-195 116t-123 187.5t-43 255.5zM616 532q0 -63 28 -106t110 -43 q80 0 133 60.5t80 144.5q18 66 28.5 138.5t10.5 117.5q0 61 -46.5 98t-111.5 37q-72 0 -117 -44t-70.5 -111.5t-35 -145.5t-9.5 -146z" />
<glyph unicode="A" horiz-adv-x="989" d="M-61 0q172 358 342 712.5t344 712.5h125q35 -358 67.5 -712.5t67.5 -712.5h-131l-25 342h-496q-39 -86 -78.5 -171t-80.5 -171h-135zM287 459h434q-10 111 -18.5 217t-18.5 217q-8 86 -13 174t-14 174h-6l-153 -338z" />
<glyph unicode="B" horiz-adv-x="1015" d="M47 0l279 1425h381q158 0 244.5 -74.5t86.5 -222.5q0 -145 -63.5 -245.5t-196.5 -141.5l-2 -4q86 -23 126 -96.5t40 -169.5q-6 -131 -48 -221t-109.5 -145.5t-155.5 -80t-187 -24.5h-395zM199 119h290q80 0 140.5 29.5t101.5 78.5t61.5 114t20.5 134q0 98 -55.5 152.5 t-163.5 54.5h-285q-29 -141 -55 -281.5t-55 -281.5zM332 797h231q68 0 130.5 17t110.5 54t77.5 95.5t29.5 140.5q0 100 -62.5 151.5t-172.5 51.5h-244q-27 -129 -51 -255t-49 -255z" />
<glyph unicode="C" horiz-adv-x="948" d="M92 315q0 39 8.5 98.5t18.5 110.5l78 398q18 96 47.5 188t82 165t135.5 117t206 44q170 0 260 -83t100 -218l-133 -39q-2 94 -62.5 154.5t-166.5 60.5q-86 0 -141.5 -31t-92.5 -79t-57.5 -108.5t-34.5 -121.5q-10 -31 -22.5 -92.5t-25.5 -131t-24.5 -132t-17.5 -93.5 q-10 -47 -17.5 -99t-7.5 -93q0 -45 11.5 -85t37 -71t68.5 -48t107 -17q109 0 186.5 58t118.5 169l127 -45q-53 -150 -165 -226.5t-272 -76.5q-178 0 -265 92t-87 235z" />
<glyph unicode="D" horiz-adv-x="1044" d="M49 0l275 1425h383q346 0 346 -305q0 -59 -15.5 -171.5t-38.5 -237.5q-14 -78 -28.5 -151t-29.5 -137.5t-31.5 -115.5t-32.5 -82q-72 -133 -178.5 -179t-239.5 -46h-410zM201 119h256q109 0 180.5 38t112.5 105q23 39 40 89t27 104q18 98 40 195.5t38 195.5 q10 61 20.5 132t10.5 116q0 94 -51.5 152.5t-190.5 58.5h-252z" />
<glyph unicode="E" horiz-adv-x="907" d="M49 0l277 1425h733l-27 -120h-600l-100 -521h518l-23 -118h-516l-108 -545h600l-21 -121h-733z" />
<glyph unicode="F" horiz-adv-x="886" d="M49 0l277 1425h733l-25 -120h-600l-100 -525h516l-25 -118h-516l-127 -662h-133z" />
<glyph unicode="G" horiz-adv-x="1007" d="M84 315q0 39 8 98.5t19 110.5l77 398q18 96 48 188t82.5 165t135.5 117t205 44q170 0 260.5 -83t100.5 -218l-133 -39q-2 94 -62.5 154.5t-167.5 60.5q-86 0 -141 -31t-92 -79t-57.5 -108.5t-34.5 -121.5q-10 -31 -22.5 -92.5t-26 -131t-24.5 -132t-17 -93.5 q-10 -47 -17.5 -99t-7.5 -93q0 -45 11.5 -85t37 -71t68.5 -48t106 -17q127 0 204 69.5t112 173.5q12 35 21 71t18 75l26 131h-239l22 116h371q-12 -66 -25.5 -132t-27.5 -132q-10 -53 -24.5 -103t-33.5 -97q-53 -135 -157.5 -213t-270.5 -80q-178 0 -265 92t-87 235z" />
<glyph unicode="H" horiz-adv-x="1062" d="M49 0l279 1425h131l-127 -641h538l125 641h131l-276 -1425h-131l129 666h-537l-129 -666h-133z" />
<glyph unicode="I" horiz-adv-x="415" d="M59 0l279 1425h131l-276 -1425h-134z" />
<glyph unicode="J" horiz-adv-x="800" d="M-41 111l98 79q29 -37 82.5 -59t100.5 -22q49 0 94 12t81 43t62.5 82t42.5 129l205 1050h133l-207 -1065q-20 -102 -56 -173.5t-88 -115.5t-121 -63.5t-153 -19.5q-86 0 -159.5 32t-114.5 91z" />
<glyph unicode="K" horiz-adv-x="1030" d="M47 0l279 1425h129q-39 -201 -80 -402.5t-80 -401.5h4l317 372l373 432h148l-471 -561l256 -864h-138l-219 748l-155 -177q-78 -88 -156 -178l-78 -393h-129z" />
<glyph unicode="L" horiz-adv-x="849" d="M57 0l277 1425h131l-256 -1304h588l-23 -121h-717z" />
<glyph unicode="M" horiz-adv-x="1310" d="M47 0l279 1425h127l129 -579q23 -92 42 -183.5t40 -183.5h4l252 412l327 534h135l-278 -1425h-127l106 549l107 549h-6l-252 -416l-256 -403h-92q-31 123 -60.5 246.5t-58.5 248.5l-72 316h-4l-211 -1090h-131z" />
<glyph unicode="N" horiz-adv-x="1122" d="M47 0l279 1425h125l278 -825l105 -315h6l221 1140h127l-277 -1425h-125l-268 797l-117 354h-4q-20 -113 -49 -262.5t-59.5 -308t-60 -311t-52.5 -269.5h-129z" />
<glyph unicode="O" horiz-adv-x="1005" d="M94 269q-5 36 -5 73q0 49 9 100l113 570q14 76 45 152.5t84 136t132 97.5t194 38q104 0 179 -36t120 -96.5t58 -137.5q6 -37 6 -75q0 -41 -7 -83l-107 -592q-18 -96 -54 -174t-92 -135.5t-132 -88t-174 -30.5q-115 0 -191.5 36.5t-121 99t-56.5 145.5zM221 313 q4 -59 32 -104t80 -72.5t132 -27.5q70 0 122 23.5t91 63.5t63.5 94t36.5 116l115 600q5 30 5 62q0 20 -2 40q-5 53 -32.5 98t-80 75t-138.5 30q-76 0 -129 -29t-89 -73t-57.5 -98t-31.5 -105l-109 -570q-9 -48 -9 -93q0 -15 1 -30z" />
<glyph unicode="P" horiz-adv-x="966" d="M49 0l279 1425h381q166 0 257 -78.5t91 -232.5q0 -115 -32 -210t-93.5 -165.5t-150.5 -109.5t-206 -39h-278l-115 -590h-133zM319 715h263q80 0 143 27.5t107.5 76.5t67 117t22.5 149q0 104 -59.5 162t-180.5 58h-248z" />
<glyph unicode="Q" horiz-adv-x="1011" d="M94 269q-5 36 -5 73q0 49 9 100l113 570q14 76 45 152.5t84 136t132 97.5t194 38q104 0 179 -36t120 -96.5t58 -137.5q6 -37 6 -75q0 -41 -7 -83l-107 -592q-29 -147 -98 -252l115 -109l-84 -84l-113 105q-106 -88 -272 -88q-115 0 -191.5 36.5t-121 99t-56.5 145.5z M221 313q4 -59 32 -104t80 -72.5t132 -27.5q53 0 97 14t79 41l-152 143l89 86l145 -139q20 35 32.5 73t22.5 79l115 600q5 30 5 62q0 20 -2 40q-5 53 -32.5 98t-80 75t-138.5 30q-76 0 -129 -29t-89 -73t-57.5 -98t-31.5 -105l-109 -570q-9 -48 -9 -93q0 -15 1 -30z" />
<glyph unicode="R" horiz-adv-x="1009" d="M49 0l277 1425h409q162 0 245 -83q79 -79 79 -222v-14q-4 -184 -94.5 -296t-247.5 -151l151 -659h-143l-141 643l-279 -2q-6 -27 -15 -78t-21.5 -112.5t-26 -130t-24.5 -130t-21.5 -112.5t-16.5 -78h-131zM328 758h252q70 0 132 19.5t109 60.5t76 105.5t31 154.5v13 q0 95 -58 143q-61 52 -178 53h-258z" />
<glyph unicode="S" horiz-adv-x="952" d="M41 231l123 62q27 -78 93.5 -129t182.5 -51q82 0 140.5 26.5t97.5 71.5t57.5 101.5t18.5 115.5q0 55 -15.5 92t-44 63.5t-70.5 44t-96 36.5q-86 29 -147.5 60.5t-99 70.5t-55 87t-17.5 113q0 98 30.5 180t88 140.5t139.5 90.5t184 32q141 0 226.5 -59.5t119.5 -143.5 l-120 -72q-29 72 -91.5 110t-148.5 38q-72 0 -125 -24.5t-89 -65.5t-54.5 -95.5t-18.5 -111.5q0 -53 18.5 -88t53.5 -60.5t84 -46t110 -41.5q147 -51 215 -124.5t68 -204.5q0 -102 -31.5 -187.5t-92 -147t-148.5 -95t-203 -33.5q-160 0 -255 67t-128 178z" />
<glyph unicode="T" horiz-adv-x="811" d="M178 1307l23 118h798l-24 -118h-332l-254 -1307h-131l254 1307h-334z" />
<glyph unicode="U" horiz-adv-x="1032" d="M106 257q-4 30 -3 62q0 51 10 107l192 999h129q-8 -41 -22.5 -117.5t-34 -173t-40 -203t-38.5 -203.5t-33.5 -177t-23.5 -123q-10 -48 -10 -93v-23q3 -56 27 -99t72 -69.5t126 -26.5q82 0 141 27.5t99 75.5t63.5 110.5t36.5 132.5l186 962h133q-10 -53 -25.5 -130.5 t-34 -169t-37 -188.5t-35.5 -188.5t-31.5 -170t-24.5 -129.5q-18 -98 -54 -182.5t-93.5 -147t-138.5 -97t-189 -34.5q-111 0 -183.5 34.5t-113 95t-50.5 139.5z" />
<glyph unicode="V" horiz-adv-x="933" d="M221 1425h129q2 -29 5 -84t7.5 -123.5t8.5 -143.5t7 -143.5t6 -123.5t5 -84q2 -37 6 -105.5t8.5 -143.5t7.5 -143.5t7 -105.5h8q20 45 50 114t61.5 141.5t61.5 140l50 112.5q4 10 27.5 62.5t56.5 126t70 157.5t69.5 158t56 126t27.5 62h144q-29 -59 -80 -171.5 t-114.5 -251t-133.5 -290t-134.5 -289.5t-115.5 -251t-78 -172h-129z" />
<glyph unicode="W" horiz-adv-x="1415" d="M229 1425h129q-1 -98 -1 -196v-99q0 -29 1 -58q0 -118 -4 -236q0 -16 -1 -60.5t-2 -102t-2 -123t-2 -123.5t-2 -102t-1 -61h6l232 549l256 612h118q2 -55 4.5 -125.5t5.5 -153.5t5 -174t4 -184l16 -526h6q41 117 84 231.5t86 231.5q8 20 29 74.5t47.5 125t56 150.5 t57 150.5t48 125t29.5 74.5h137l-561 -1425h-125l-35 1165h-6l-199 -483q-23 -57 -61.5 -149.5t-79.5 -191.5t-80 -191.5t-64 -149.5h-124z" />
<glyph unicode="X" horiz-adv-x="884" d="M-66 0l502 735l-203 690h136l155 -567l375 567h148l-476 -690l220 -735h-136l-170 608l-405 -608h-146z" />
<glyph unicode="Y" horiz-adv-x="866" d="M209 1425h127q6 -29 20.5 -96t30.5 -141t30.5 -141.5t20.5 -96.5l47 -205h9q41 68 80.5 135.5t80.5 135.5q59 104 121 204.5t123 204.5h141l-514 -829l-114 -596h-127l114 596q-47 209 -95 414.5t-95 414.5z" />
<glyph unicode="Z" horiz-adv-x="819" d="M-33 0l25 121l807 1186h-549l24 118h691l-23 -114l-811 -1190h574l-23 -121h-715z" />
<glyph unicode="[" horiz-adv-x="458" d="M14 -215l320 1645h287l-19 -91h-170l-285 -1466h170l-18 -88h-285z" />
<glyph unicode="\" horiz-adv-x="530" d="M190 1468h101l104 -1529h-100z" />
<glyph unicode="]" horiz-adv-x="458" d="M-61 -217l14 90h170l285 1466h-170l18 91h285l-320 -1647h-282z" />
<glyph unicode="^" d="M98 702l490 719h92l209 -719h-107l-170 601q-6 -8 -35.5 -53.5t-72.5 -110t-91 -137t-91 -136t-73 -109.5t-36 -55h-115z" />
<glyph unicode="_" horiz-adv-x="1011" d="M-131 -250l22 103h1008l-20 -103h-1010z" />
<glyph unicode="`" horiz-adv-x="854" d="M440 1460l111 51l160 -346l-70 -30z" />
<glyph unicode="a" horiz-adv-x="897" d="M78 279q0 59 8 123.5t20 127.5q20 104 52 194.5t80.5 157t115 103.5t158.5 37q78 0 138.5 -34t88.5 -95l2 2l13 57q6 29 10 58h123l-197 -1010h-123l25 119h-6q-53 -66 -112.5 -98.5t-151.5 -32.5q-127 0 -185.5 82t-58.5 209zM207 301q0 -39 8 -73.5t26.5 -61.5 t50.5 -42t79 -15q53 0 95 21.5t72.5 57t52 79.5t36.5 87q12 39 22 82t18.5 84t13.5 77t9 60q3 24 3 47t-3 45q-6 44 -25.5 77.5t-53 53t-85.5 19.5q-66 0 -113.5 -27.5t-82.5 -80.5q-31 -47 -52.5 -116t-37.5 -140q-14 -66 -23.5 -126.5t-9.5 -107.5z" />
<glyph unicode="b" horiz-adv-x="851" d="M10 0l289 1483h125l-117 -600h4q43 55 115 96t158 41q66 0 111.5 -20.5t74.5 -55.5t41 -83t12 -105q0 -63 -10 -155.5t-33 -184.5q-18 -82 -50 -159t-79 -137.5t-111.5 -96t-152.5 -35.5q-166 0 -225 125h-4l-25 -113h-123zM207 285q0 -47 14.5 -87t49 -66t100.5 -26 q70 0 120 33t84.5 87.5t56 125t38.5 144.5q12 59 18 116.5t6 100.5q0 92 -38 139t-121 47q-47 0 -86 -17.5t-71 -45t-55.5 -63.5t-37.5 -73q-27 -76 -44.5 -168t-27.5 -155q-6 -45 -6 -92z" />
<glyph unicode="c" horiz-adv-x="768" d="M57 295q0 59 7.5 119.5t17.5 120.5q16 94 50 182t88 155.5t132 108.5t183 41q106 0 181 -51t91 -150l-117 -55q-10 66 -55 101.5t-111 35.5q-72 0 -125 -32.5t-91 -86t-61.5 -121t-37.5 -139.5q-23 -113 -23 -207q0 -96 40 -153.5t149 -57.5q68 0 126 36t87 98l108 -60 q-49 -86 -135 -139t-203 -53q-90 0 -148 26.5t-92 69.5t-47.5 98.5t-13.5 112.5z" />
<glyph unicode="d" horiz-adv-x="849" d="M57 264q2 66 11.5 134.5t19.5 127.5q18 98 48 188.5t78 158t116.5 108.5t163.5 41q78 0 136 -37t89 -94h2q29 150 58.5 298t58.5 296h125q-72 -375 -145 -742.5t-146 -742.5h-123q4 29 10 56.5t10 56.5q-2 0 -4 2q-53 -59 -115.5 -93t-150.5 -34q-131 0 -186.5 74.5 t-55.5 201.5zM184 289q0 -86 36 -133t138 -47q39 0 75 15t66.5 40.5t55.5 59.5t37 69q18 51 34.5 121.5t39.5 203.5q7 44 7 88v11q-1 49 -18.5 89t-53.5 65.5t-97 25.5q-70 0 -119 -33t-83 -87t-55.5 -122.5t-35.5 -138.5q-10 -59 -18.5 -119.5t-8.5 -107.5z" />
<glyph unicode="e" horiz-adv-x="839" d="M68 301q0 72 9 154t30.5 161.5t56.5 153.5t85 130t118.5 90t158.5 34q143 0 220 -66.5t77 -175.5q0 -164 -119.5 -260t-377.5 -96q-23 0 -59 1t-68 5q-4 -29 -7.5 -58.5t-3.5 -56.5q0 -90 38 -150.5t141 -60.5q61 0 128.5 34t104.5 89l102 -57q-55 -82 -143 -133 t-205 -51q-84 0 -139 27.5t-88 71.5t-46 100.5t-13 113.5zM219 545q29 -4 66 -6t61 -2q94 0 161.5 17t109.5 48t61.5 72t19.5 90q0 63 -48 103t-134 40q-123 0 -194.5 -99t-102.5 -263z" />
<glyph unicode="f" horiz-adv-x="495" d="M-164 -270l19 118q18 -4 26 -4h25q41 0 69.5 12.5t47 33t27.5 46t16 52.5l178 913h-127l22 107h127l41 211q12 55 31.5 105t52.5 88t82 59.5t121 21.5q16 0 30.5 -1t43.5 -5l-21 -117q-31 6 -59 6q-43 0 -72 -16.5t-45 -41t-25.5 -55t-15.5 -59.5l-39 -196h178l-20 -107 h-178l-170 -874q-12 -61 -30.5 -115.5t-52.5 -96.5t-85 -66.5t-127 -24.5q-31 0 -70 6z" />
<glyph unicode="g" horiz-adv-x="878" d="M-2 -244l104 68q16 -53 60.5 -87t116.5 -34q109 0 170 56.5t83 148.5q16 53 27.5 107.5t24.5 111.5h-4q-109 -135 -275 -135q-68 0 -114 21.5t-73.5 58.5t-38.5 86t-11 104q0 61 8 134t23.5 147.5t38 146.5t50.5 131q100 203 316 203q74 0 135 -34t88 -95q2 0 2 1t2 1 l25 113h123l-199 -1028q-14 -86 -42 -159t-75 -126t-116.5 -83t-167.5 -30q-96 0 -177 43t-104 129zM198 265q7 -65 42.5 -108.5t121.5 -43.5q49 0 89.5 18.5t73 49t56 69.5t35.5 80q23 70 40.5 162t25.5 172q4 25 4 49q0 17 -2 35q-4 43 -22.5 76.5t-52.5 55t-87 21.5 q-72 0 -121 -28.5t-82.5 -79t-55 -118t-36.5 -143.5q-12 -57 -24 -130q-8 -46 -8 -88q0 -25 3 -49z" />
<glyph unicode="h" horiz-adv-x="897" d="M29 0l286 1489h127l-118 -608h4q59 74 134 107.5t146 33.5q131 0 195 -85q46 -61 46 -148q0 -33 -7 -70q-2 -12 -9.5 -54t-19.5 -103.5t-26.5 -136.5t-29 -150.5t-27.5 -147.5t-23 -127h-129q20 104 41.5 210.5t39 200t30.5 164t20 105.5q6 30 6 58q0 11 -1 22 q-3 39 -20.5 68.5t-51.5 48t-87 18.5q-61 0 -108.5 -23.5t-83 -62.5t-58 -92t-35.5 -111l-116 -606h-125z" />
<glyph unicode="i" horiz-adv-x="378" d="M43 0l197 1012h127l-197 -1012h-127zM289 1272l24 133h131l-26 -133h-129z" />
<glyph unicode="j" horiz-adv-x="399" d="M-182 -410l20 119q4 0 12.5 -1t16.5 -1q78 0 112.5 42t51.5 128l221 1133h127l-227 -1164q-10 -55 -32 -102t-54.5 -82t-79.5 -54.5t-109 -19.5h-31q-20 0 -28 2zM301 1272l27 131h131l-27 -131h-131z" />
<glyph unicode="k" horiz-adv-x="864" d="M31 0q12 61 34.5 179t51 262.5t59.5 303t58.5 303t50 262t34.5 179.5h125l-200 -1018h4q23 25 63.5 68t89 94t100.5 107.5t100 108.5t88 95t63 68h151l-356 -387l225 -625h-137l-184 532q-18 -18 -51 -55t-70 -77t-71 -75.5t-50 -54.5q-4 -16 -11.5 -54t-15.5 -81 t-15 -81t-11 -54h-125z" />
<glyph unicode="l" horiz-adv-x="425" d="M76 134q-2 17 -3 36q0 30 7 63l246 1254h127l-242 -1233q-6 -29 -5 -53.5t10 -45t31.5 -31.5t59.5 -11h29l-25 -119h-22q-12 -1 -24 -1q-50 0 -87 14q-45 17 -70.5 49t-31.5 78z" />
<glyph unicode="m" horiz-adv-x="1452" d="M41 0q47 254 97 504t98 504h124l-24 -125h6q55 70 126 102.5t144 32.5q92 0 151.5 -39t78.5 -111q133 152 303 152q86 0 138 -29.5t77.5 -79t29.5 -109.5q1 -12 0 -24q0 -48 -10 -98l-133 -680h-127l133 678q6 27 6 54q0 10 -1 21q-3 38 -19 68.5t-49 49t-84 18.5 q-59 0 -106.5 -23.5t-83 -61.5t-59 -88t-34.5 -106l-116 -610h-127l133 680q6 30 6 58q0 11 -1 22q-3 39 -21.5 69.5t-53.5 49t-90 18.5q-61 0 -107.5 -24.5t-79 -66.5t-54 -97.5t-31.5 -116.5l-117 -592h-123z" />
<glyph unicode="n" horiz-adv-x="892" d="M27 0l196 1012h125l-24 -131h4q59 76 134 108.5t146 32.5q66 0 114 -22.5t78.5 -61.5t42.5 -93q6 -28 6 -59q0 -28 -5 -57q0 -4 -8.5 -47t-20.5 -109.5t-28.5 -147.5t-32 -161t-28.5 -150.5t-21 -113.5h-130q8 39 21.5 103.5t28 138t30 150.5t27.5 140.5t19.5 103.5 t7.5 44q5 35 5 69v11q-1 39 -18.5 68.5t-52.5 48t-96 18.5q-59 0 -106.5 -23.5t-81 -62.5t-56 -91t-33.5 -110l-118 -608h-125z" />
<glyph unicode="o" horiz-adv-x="866" d="M70 281q0 82 8 161.5t28 157.5q23 88 53.5 162t71.5 125q53 66 124 100.5t167 34.5q80 0 137.5 -24.5t93 -67.5t53 -98.5t17.5 -116.5q0 -63 -10 -136t-25 -139q-23 -109 -55.5 -193.5t-81.5 -142t-118.5 -87t-165.5 -29.5q-86 0 -143.5 24.5t-91.5 66.5t-48 94.5 t-14 107.5zM190 311q0 -41 7.5 -78.5t28 -67.5t56 -47.5t95.5 -17.5q90 0 145.5 46.5t85.5 123.5q18 45 34.5 101.5t29 116t19.5 117t7 104.5q0 98 -50 149t-136 51q-88 0 -154 -59q-43 -39 -73.5 -106.5t-52 -144.5t-32 -154t-10.5 -134z" />
<glyph unicode="p" horiz-adv-x="872" d="M-63 -406q66 356 135 708.5t139 709.5h125l-23 -115h4q53 59 116 93t153 34q117 0 178 -67.5t61 -198.5q0 -12 1 -24q0 -55 -8 -119q-9 -77 -21 -140q-20 -102 -52 -191t-80.5 -153.5t-118 -101.5t-163.5 -37q-78 0 -133 34.5t-86 92.5h-4l-101 -525h-122zM214 272 q3 -45 20.5 -79.5t51 -57t89.5 -22.5q78 0 128 34.5t82.5 92t52 127t34.5 141.5q20 104 24 194q0 41 -7 77t-26.5 63.5t-53.5 43t-85 15.5q-86 0 -146.5 -56.5t-86.5 -131.5q-29 -86 -48.5 -175t-27.5 -173q-2 -27 -2 -54q0 -20 1 -39z" />
<glyph unicode="q" horiz-adv-x="882" d="M76 276q0 80 14 182.5t41 196.5q20 74 52 140.5t78 117t107.5 80t143.5 29.5q76 0 139.5 -35t85.5 -94h4q4 29 10.5 58.5t12.5 58.5h125q-70 -356 -136.5 -708.5t-136.5 -704.5h-129l105 526l-2 2q-47 -59 -114.5 -97t-149.5 -38q-72 0 -120 23.5t-77 63.5t-41 91 t-12 108zM209 299q0 -86 36 -138t132 -52q45 0 85 22.5t70.5 56t53 72.5t35.5 74q29 78 45 162t22 155q1 22 1 44t-1 44q-2 45 -19.5 81t-52 58.5t-96.5 22.5q-66 0 -112 -28.5t-79.5 -80t-56 -120t-36.5 -148.5q-12 -61 -19.5 -119.5t-7.5 -105.5z" />
<glyph unicode="r" horiz-adv-x="610" d="M41 0l197 1012h127l-31 -150h6q57 92 132 128q71 34 150 34h9q23 0 45 -5t35 -11l-49 -138q-20 10 -46 14.5t-45 4.5q-106 0 -183 -74t-99 -201l-121 -614h-127z" />
<glyph unicode="s" horiz-adv-x="806" d="M16 186l109 58q27 -66 79 -103t142 -37q45 0 89 13.5t77 39t53.5 64.5t20.5 90q0 39 -17.5 63.5t-46 42t-68.5 29t-85 23.5q-111 33 -171.5 83t-60.5 148q0 74 28 133.5t76 102.5t114.5 65.5t146.5 22.5q115 0 189.5 -48t105.5 -134l-115 -58q-43 119 -195 119 q-98 0 -158.5 -53t-60.5 -131q0 -63 53.5 -91t147.5 -53q55 -14 101 -32.5t79 -47t51.5 -69.5t18.5 -96q0 -160 -102.5 -251t-282.5 -91q-121 0 -205 50t-113 148z" />
<glyph unicode="t" horiz-adv-x="499" d="M110 139q-2 14 -2 28q0 28 7 58l131 680h-119q4 27 9 52.5t11 52.5h119l51 268h129q-14 -68 -27 -134.5t-26 -133.5h158q-6 -27 -11 -52.5t-10 -52.5h-157l-125 -647q-6 -31 -7 -56.5t8 -44t31.5 -29.5t63.5 -11h57l-22 -119h-78q-61 0 -101 18.5t-62.5 50t-27.5 72.5z " />
<glyph unicode="u" horiz-adv-x="901" d="M84 281q0 2 8 45t20.5 109.5t28 148.5t30.5 161.5t28.5 150.5t21.5 116h127q-8 -39 -20.5 -104.5t-26.5 -140.5t-28.5 -152.5t-27 -141t-19.5 -104.5t-7 -43q-7 -36 -6 -69v-15q2 -39 20.5 -69t54.5 -46t95 -16q100 0 172 72.5t94 176.5l125 652h127q-8 -41 -23.5 -121 t-35 -179.5t-41 -207t-40 -205.5t-33.5 -178t-23 -121h-127q2 8 5 25.5t7 37t8 37t6 25.5h-6q-59 -74 -132 -105.5t-144 -31.5q-135 0 -198 82q-46 60 -46 145q0 32 6 66z" />
<glyph unicode="v" horiz-adv-x="765" d="M90 1010h131l49 -496q8 -80 14.5 -166t6.5 -184h6q121 197 217 400.5t180 445.5h140q-51 -139 -105.5 -268.5t-116 -253t-131 -244.5t-151.5 -244h-127z" />
<glyph unicode="w" horiz-adv-x="1265" d="M94 1012h131l33 -559q4 -66 6 -130q1 -32 1 -69.5t-1 -79.5h6q100 182 190.5 395t176.5 443h145l39 -527q4 -70 7 -141q2 -43 2 -93q0 -33 -1 -69h5q106 193 194 391.5t168 438.5h133q-47 -143 -98 -271.5t-108.5 -251t-123 -243.5t-141.5 -246h-129l-39 563 q-4 51 -6 120q-1 34 -1 70.5t1 73.5h-8q-41 -119 -83 -224t-88 -204.5t-97.5 -198t-108.5 -200.5h-129z" />
<glyph unicode="x" horiz-adv-x="774" d="M-39 0l391 520q-6 12 -20.5 50t-31.5 88.5t-37.5 106.5t-38 106.5t-32 88t-20.5 52.5h143l123 -389q8 10 29.5 39.5t49.5 69.5l59.5 85l59.5 85t48.5 69.5t28.5 40.5h153l-377 -496q6 -14 21.5 -54t35 -92.5t41 -111.5t41 -111.5t35 -92.5t21.5 -54h-143l-135 408 q-8 -10 -31 -42t-52.5 -73t-62.5 -89t-62.5 -89t-52 -73t-30.5 -42h-154z" />
<glyph unicode="y" horiz-adv-x="753" d="M-119 -299q72 4 133.5 28.5t118.5 100.5q23 29 41.5 58.5t40.5 72.5l-123 1049h129q10 -111 20.5 -220.5t20.5 -220.5q6 -55 12.5 -119.5t10.5 -130t7 -129.5q2 -38 2 -71q0 -22 -1 -43h4q51 92 104.5 206.5t104.5 238.5t98 250t86 239h129q-129 -362 -259 -645 t-265 -506q-74 -127 -169 -196t-224 -69h-21v107z" />
<glyph unicode="z" horiz-adv-x="737" d="M-37 0l23 113l628 784h-446l20 113h592l-20 -109l-627 -782h473l-24 -119h-619z" />
<glyph unicode="{" horiz-adv-x="475" d="M76 575l14 80q45 8 78 36t56.5 67t37.5 86t25 96l55 279q16 92 72.5 149t142.5 57h90l-16 -84h-49q-37 0 -60.5 -16t-40 -40.5t-24.5 -55.5t-15 -58l-53 -272q-12 -66 -35.5 -115t-50.5 -82.5t-53.5 -54t-46.5 -26.5l-2 -7q39 -14 70.5 -80.5t9.5 -189.5l-56 -299 q-6 -33 -8 -64.5t4 -57t23.5 -41t48.5 -15.5h51l-16 -84h-74q-86 0 -126 60.5t-22 158.5l56 291q23 119 8.5 192.5t-94.5 89.5z" />
<glyph unicode="|" horiz-adv-x="391" d="M147 -330v1805h103v-1805h-103z" />
<glyph unicode="}" horiz-adv-x="475" d="M-82 -217l16 84h50q33 0 57.5 15.5t39.5 42t25.5 60t16.5 68.5l53 277q12 61 34.5 109t49.5 82t53.5 54.5t48.5 26.5l3 6q-18 6 -38 26.5t-33 54.5t-16.5 83t9.5 113l51 270q6 37 10 69.5t-2 59.5t-23.5 42t-50.5 15h-53l17 80h79q92 0 127 -60.5t17 -154.5l-56 -278 q-10 -49 -12 -97.5t5 -86t28.5 -64.5t62.5 -35l-14 -82q-86 -16 -129 -91t-65 -191l-58 -291q-16 -92 -72.5 -149.5t-146.5 -57.5h-84z" />
<glyph unicode="~" d="M55 494q51 70 113.5 107.5t132.5 37.5q49 0 91 -17.5t82 -38t79 -38t82 -17.5q41 0 77 19.5t76 73.5l74 -50q-47 -74 -105.5 -113.5t-133.5 -39.5q-43 0 -85 17.5t-85 38t-85 37.5t-85 17q-45 0 -79 -22.5t-79 -69.5z" />
<glyph unicode="&#xa1;" horiz-adv-x="450" d="M43 -416q23 111 52.5 249t59 282.5t58.5 284t51 249.5h98l-192 -1065h-127zM285 862q6 37 13 73t15 73h140q-6 -37 -13.5 -73t-15.5 -73h-139z" />
<glyph unicode="&#xa2;" horiz-adv-x="794" d="M57 295q0 59 7.5 119.5t17.5 120.5q16 92 48 177t82 151.5t123 108.5t169 48q10 51 19 101t20 102h71q-10 -51 -19 -101.5t-20 -101.5q92 -10 154 -61.5t78 -137.5l-117 -55q-10 59 -46 94t-91 41l-156 -795q61 6 112.5 41t78.5 93l108 -60q-47 -84 -129 -136t-192 -56 l-43 -219h-72l43 221q-74 8 -121 36.5t-74.5 70.5t-39 93.5t-11.5 104.5zM186 317q0 -86 31 -140t109 -68l153 790q-61 -10 -106 -45t-77 -87t-53.5 -114.5t-33.5 -128.5q-23 -113 -23 -207z" />
<glyph unicode="&#xa3;" d="M-12 0q4 27 9 53.5t9 52.5q92 113 157.5 238t90.5 281h-154l21 102h139v51q0 66 -13.5 132.5t-10.5 125.5q0 84 26.5 157t75.5 127t119.5 85t158.5 31q276 0 310 -273q-29 -10 -59.5 -18t-59.5 -19q-12 88 -55 140.5t-144 52.5q-111 0 -174 -86t-63 -215q0 -66 13 -140.5 t7 -150.5h254q-4 -27 -9 -51.5t-11 -50.5h-246q-29 -154 -80 -276t-137 -232h559l-23 -117h-710z" />
<glyph unicode="&#xa4;" horiz-adv-x="1052" d="M117 324l123 120q-72 100 -72 213q0 117 74 215l-123 121q37 41 78 78l120 -119q102 72 218 72q115 0 215 -72q4 4 21 22.5t38 39.5l38 38l21 21l78 -80l-121 -119q76 -104 76 -217t-74 -215q10 -10 26.5 -25.5t34.5 -32.5l34 -34l26 -26q-23 -23 -40 -41.5t-40 -38.5 l-116 121q-98 -74 -217 -74q-117 0 -218 76q-6 -4 -23.5 -22.5t-37.5 -38t-39 -38.5l-22 -22q-23 25 -45.5 46.5t-32.5 31.5zM283 659q0 -51 19.5 -97t53 -81t78.5 -55t98 -20q51 0 98.5 20t81 54t54 80t20.5 97q0 53 -19 99.5t-53 81t-81 54t-101 19.5q-51 0 -96 -19.5 t-78.5 -53t-54 -80t-20.5 -99.5z" />
<glyph unicode="&#xa5;" d="M47 346q4 23 8 44.5t8 43.5h281l25 123q0 6 -1 26.5t-1 24.5h-269l17 84h237q-41 184 -77.5 366.5t-77.5 366.5h127q6 -31 17 -86t23.5 -122.5t27 -141.5t26.5 -141.5t23.5 -122.5t17.5 -86h2q31 55 65.5 114.5t80.5 138.5t108.5 186.5t150.5 260.5h131l-440 -733h244 l-8 -41q-4 -20 -9 -43h-274l-23 -57l-22 -117h287l-19 -88h-284l-70 -346h-119q4 23 13.5 72t19.5 102t20.5 101.5t14.5 70.5h-281z" />
<glyph unicode="&#xa6;" horiz-adv-x="391" d="M147 -332v844h103v-844h-103zM147 616v850h103v-850h-103z" />
<glyph unicode="&#xa7;" horiz-adv-x="897" d="M25 -29l75 78q49 -53 106.5 -74.5t125.5 -21.5q57 0 108.5 15.5t89 44t59 69.5t21.5 94q0 66 -52 119t-167 111q-117 59 -176 115.5t-59 146.5q0 92 50 161.5t136 122.5q-33 37 -50.5 74t-17.5 90q0 72 28 131.5t77 101.5t115.5 65.5t144.5 23.5q190 0 297 -113l-80 -88 q-51 53 -107.5 72.5t-115.5 19.5q-102 0 -167 -58.5t-65 -140.5q0 -35 17.5 -64.5t46.5 -54t65.5 -46t77.5 -41.5q45 -23 89 -50.5t80 -62.5t58.5 -78t22.5 -98q0 -90 -48 -161t-126 -124q49 -72 49 -160q0 -74 -28.5 -136t-82 -109t-127 -74t-163.5 -27q-92 0 -176 36 t-131 91zM279 692q0 -51 36.5 -90t89 -70.5t108.5 -57t93 -50.5q59 31 95 86t36 113q0 70 -54 113.5t-151 90.5q-25 12 -51 26.5t-55 31.5q-57 -27 -102 -80.5t-45 -112.5z" />
<glyph unicode="&#xa8;" horiz-adv-x="854" d="M319 1219l27 139h127l-27 -139h-127zM659 1219l27 139h127l-27 -139h-127z" />
<glyph unicode="&#xa9;" horiz-adv-x="1531" d="M106 698q0 154 47.5 286t134.5 228.5t210 150.5t274 54q150 0 271.5 -54t208.5 -150.5t134.5 -228.5t47.5 -286t-47.5 -283.5t-134.5 -226t-208.5 -150.5t-271.5 -54q-154 0 -276.5 54t-208.5 150.5t-133.5 226t-47.5 283.5zM207 698q0 -131 41 -244.5t114.5 -198.5 t178 -133t231.5 -48q129 0 232.5 48t176 133t112.5 198.5t40 244.5q0 133 -40 248t-113.5 199t-177 132t-230.5 48q-131 0 -235.5 -49t-178 -133t-112.5 -199t-39 -246zM508 524v322q0 119 71.5 195.5t196.5 76.5q98 0 169 -52t87 -148l-94 -33q-12 63 -54 102t-108 39 q-82 0 -126 -53t-44 -125v-326q0 -70 44 -123t126 -53q66 0 106 37t54 104l96 -30q-18 -100 -88 -152.5t-168 -52.5q-125 0 -196.5 74.5t-71.5 197.5z" />
<glyph unicode="&#xaa;" horiz-adv-x="616" d="M113 754q0 41 6 87t14 87q12 68 34.5 125t56.5 99t81 66.5t113 24.5q47 0 86 -18.5t59 -53.5l15 66h102q-35 -166 -66.5 -334t-64.5 -334h-100l14 70q-33 -35 -77 -56.5t-101 -21.5q-90 0 -131 53.5t-41 139.5zM219 772q0 -51 22.5 -83t82.5 -32q37 0 62.5 13.5t44 35 t31.5 48t23 53.5q16 53 28.5 111.5t16.5 107.5q4 47 -24.5 84t-87.5 37q-49 0 -80 -24.5t-53 -67.5q-12 -27 -24.5 -64t-22 -77t-14.5 -77.5t-5 -64.5z" />
<glyph unicode="&#xab;" horiz-adv-x="839" d="M104 469l306 373h127l-304 -375l156 -373h-125zM410 469l303 373h129l-305 -375l155 -373h-123z" />
<glyph unicode="&#xac;" d="M63 543l21 102h786l-90 -465h-108l69 363h-678z" />
<glyph unicode="&#xad;" horiz-adv-x="733" d="M119 508l24 117h537l-23 -117h-538z" />
<glyph unicode="&#xae;" horiz-adv-x="1064" d="M125 1006q0 94 28.5 175t83 139t130 92t168.5 34q92 0 165.5 -34t127 -92t82 -139t28.5 -175t-28.5 -174t-82 -138.5t-127 -91.5t-165.5 -33q-94 0 -170 33t-129.5 91.5t-82 138.5t-28.5 174zM197 1008q0 -80 23.5 -148.5t68.5 -119t106.5 -78t139.5 -27.5t139 28.5 t104 79t65.5 119t22.5 146.5q0 80 -23.5 148.5t-66.5 118.5t-104.5 79.5t-136.5 29.5q-78 0 -140.5 -29.5t-106.5 -79.5t-67.5 -118.5t-23.5 -148.5zM385 743v521h170q66 0 108 -39t42 -111q0 -47 -24 -85t-69 -56l103 -230h-82q-23 55 -46.5 110.5t-45.5 111.5h-84v-222 h-72zM457 1028h84q39 0 64.5 20.5t25.5 65.5q0 41 -24.5 62.5t-59.5 21.5h-90v-170z" />
<glyph unicode="&#xaf;" horiz-adv-x="862" d="M346 1221l23 114h499l-24 -114h-498z" />
<glyph unicode="&#xb0;" horiz-adv-x="671" d="M109 1202q0 47 18 89t49 74t73 50.5t91 18.5q51 0 93 -18.5t73 -50.5t48 -74t17 -89q0 -49 -18 -91t-49 -72.5t-73 -49t-91 -18.5t-91 18.5t-73 49t-49 72.5t-18 91zM193 1202q0 -63 41.5 -106t105.5 -43q61 0 103 43t42 106q0 61 -42 104.5t-103 43.5q-59 0 -103 -43.5 t-44 -104.5z" />
<glyph unicode="&#xb1;" d="M-33 20l21 103h782l-20 -103h-783zM74 565l20 101h340l68 350h98l-65 -350h339l-20 -101h-338l-70 -350h-100l70 350h-342z" />
<glyph unicode="&#xb2;" horiz-adv-x="552" d="M72 760l16 86l389 434q33 35 51.5 73t18.5 72q2 41 -23.5 69t-81.5 28q-49 0 -88 -35t-57 -101l-104 21q29 98 95 153.5t165 55.5q98 0 151 -47t49 -135q0 -57 -26.5 -107.5t-67.5 -95.5q-29 -31 -75 -82t-96 -106.5t-96 -105.5t-75 -81h322l-21 -96h-446z" />
<glyph unicode="&#xb3;" horiz-adv-x="552" d="M102 930l99 16q0 -51 23.5 -80.5t76.5 -29.5q47 0 80 19t54.5 50t30.5 70t9 80q0 47 -26.5 74.5t-81.5 27.5h-56q4 23 9.5 42.5t9.5 41.5h53q72 0 116 54.5t44 136.5q0 35 -25.5 63.5t-73.5 28.5q-49 0 -87 -29t-54 -84l-100 16q27 92 93 138.5t159 46.5q92 0 141 -47 t49 -119q0 -29 -6 -64.5t-22.5 -70.5t-44 -64.5t-68.5 -48.5q45 -23 57 -59.5t12 -71.5q0 -49 -12 -105.5t-44 -103.5t-86 -78.5t-138 -31.5t-137.5 45t-53.5 137z" />
<glyph unicode="&#xb4;" horiz-adv-x="856" d="M520 1171l201 332l119 -43l-248 -321z" />
<glyph unicode="&#xb5;" horiz-adv-x="905" d="M-45 -401q66 354 135.5 704t136.5 707h125l-131 -672q-10 -47 -6 -88t22.5 -72t55.5 -49t96 -18q55 0 99 21.5t78 58t56.5 87t32.5 105.5l123 627h125l-194 -1010h-127q6 29 11 59.5t13 61.5h-6q-49 -68 -121.5 -98.5t-144.5 -30.5q-111 0 -164 63l-2 -2l-90 -454h-123z " />
<glyph unicode="&#x3bc;" horiz-adv-x="905" d="M-45 -401q66 354 135.5 704t136.5 707h125l-131 -672q-10 -47 -6 -88t22.5 -72t55.5 -49t96 -18q55 0 99 21.5t78 58t56.5 87t32.5 105.5l123 627h125l-194 -1010h-127q6 29 11 59.5t13 61.5h-6q-49 -68 -121.5 -98.5t-144.5 -30.5q-111 0 -164 63l-2 -2l-90 -454h-123z " />
<glyph unicode="&#xb6;" horiz-adv-x="954" d="M150 985q0 82 25.5 167t74.5 154.5t124 112.5t173 43h506q-6 -29 -11.5 -59.5t-9.5 -61.5h-102l-242 -1507h-119l242 1507h-162l-239 -1507h-119l135 864q-131 0 -203.5 73t-72.5 214z" />
<glyph unicode="&#xb7;" horiz-adv-x="380" d="M145 461l31 166h156l-33 -166h-154z" />
<glyph unicode="&#xb8;" horiz-adv-x="874" d="M102 -385q8 16 15.5 34.5t17.5 35.5q35 -16 69 -21.5t60 -5.5q41 0 78 22.5t37 69.5q0 41 -28.5 60.5t-78.5 19.5h-12q-6 8 -13 14t-16 15l91 184h34q18 0 35 -2q-16 -35 -31.5 -68.5t-35.5 -74.5q90 -8 122.5 -50.5t32.5 -85.5q0 -29 -12 -60.5t-39 -58t-69 -43 t-99 -16.5q-41 0 -82 7.5t-76 23.5z" />
<glyph unicode="&#xb9;" horiz-adv-x="460" d="M231 1411l25 111l150 90h100l-168 -852h-102l143 739q-6 -4 -27.5 -17.5t-46 -27.5t-46.5 -27.5t-28 -15.5z" />
<glyph unicode="&#xba;" horiz-adv-x="598" d="M113 766q0 47 6 92t16 86q16 63 37 117.5t47 89.5q35 45 85 69.5t118 24.5q115 0 167 -62.5t52 -148.5q0 -41 -6 -87t-17 -87q-29 -141 -94 -220t-196 -79q-61 0 -102.5 16.5t-66 45t-35.5 65.5t-11 78zM213 774q0 -47 23.5 -83t95.5 -36q53 0 87 26t54 67 q14 29 26.5 65.5t20.5 75.5t13.5 75.5t5.5 67.5q0 57 -32 89t-89 32q-63 0 -105 -43q-23 -23 -41 -62.5t-30 -84.5q-12 -47 -20.5 -99.5t-8.5 -89.5z" />
<glyph unicode="&#xbb;" horiz-adv-x="839" d="M31 94l309 377l-162 371h125l162 -373l-307 -375h-127zM336 94l307 377l-160 371h123l164 -373l-309 -375h-125z" />
<glyph unicode="&#xbc;" horiz-adv-x="1269" d="M47 -35l1049 1495h104l-1050 -1495h-103zM250 1223l24 110l150 90h100l-168 -852h-102l143 740q-6 -4 -27.5 -17.5t-46 -28t-46 -27.5t-27.5 -15zM592 129l20 88l375 633h113l-377 -627h221l47 240h105l-47 -240h75l-20 -94h-74l-26 -131h-101l25 131h-336z" />
<glyph unicode="&#xbd;" horiz-adv-x="1269" d="M29 -35l1048 1495h105l-1051 -1495h-102zM233 1223l25 110l150 90h100l-168 -852h-102l143 740q-6 -4 -27.5 -17.5t-46 -28t-46.5 -27.5t-28 -15zM635 -2l16 86l389 434q33 35 51.5 73t18.5 73q2 41 -23.5 68.5t-80.5 27.5q-49 0 -88 -35t-58 -100l-104 20 q29 98 95.5 153.5t164.5 55.5t151.5 -47t49.5 -135q0 -57 -27 -107.5t-68 -95.5q-29 -31 -75 -82t-96 -106.5t-96 -105.5t-75 -81h322l-21 -96h-446z" />
<glyph unicode="&#xbe;" horiz-adv-x="1269" d="M111 745l98 17q0 -51 23.5 -81t76.5 -30q47 0 80 19.5t54.5 50.5t30.5 69.5t9 79.5q0 47 -26.5 75t-81.5 28h-56q4 23 9.5 42t9.5 42h53q72 0 116 54t44 136q0 35 -25.5 63.5t-72.5 28.5q-49 0 -87 -28.5t-55 -83.5l-100 16q27 92 93.5 138t158.5 46t141 -47t49 -118 q0 -29 -6 -65t-22.5 -70.5t-44 -64.5t-68.5 -48q45 -23 57.5 -59.5t12.5 -71.5q0 -49 -12.5 -105.5t-44 -103.5t-86 -79t-138.5 -32t-137 45t-53 137zM127 -35l1049 1495h104l-1051 -1495h-102zM645 129l21 88l374 633h113l-377 -627h221l47 240h105l-47 -240h76l-21 -94 h-74l-26 -131h-101l25 131h-336z" />
<glyph unicode="&#xbf;" horiz-adv-x="847" d="M61 -131q0 61 12.5 109.5t34 89.5t48 75.5t55.5 65.5q41 47 81 86t72.5 76t56 75.5t32.5 83.5l26 134h131q-2 -12 -6 -32t-8 -41.5t-9 -41t-7 -31.5q-18 -88 -80 -162.5t-129.5 -147.5t-120.5 -146.5t-55 -157.5q0 -41 10 -78t32.5 -64.5t61.5 -44t94 -16.5q51 0 95 18.5 t78 51t55.5 75.5t31.5 93l129 -29q-43 -174 -146.5 -252t-258.5 -78q-145 0 -230.5 78t-85.5 211zM510 864q18 76 31 150h139l-29 -150h-141z" />
<glyph unicode="&#xc0;" horiz-adv-x="989" d="M-61 0q172 358 342 712.5t344 712.5h125q35 -358 67.5 -712.5t67.5 -712.5h-131l-25 342h-496q-39 -86 -78.5 -171t-80.5 -171h-135zM287 459h434q-10 111 -18.5 217t-18.5 217q-8 86 -13 174t-14 174h-6l-153 -338zM377 1681l67 103l304 -225l-41 -64z" />
<glyph unicode="&#xc1;" horiz-adv-x="989" d="M-61 0q172 358 342 712.5t344 712.5h125q35 -358 67.5 -712.5t67.5 -712.5h-131l-25 342h-496q-39 -86 -78.5 -171t-80.5 -171h-135zM287 459h434q-10 111 -18.5 217t-18.5 217q-8 86 -13 174t-14 174h-6l-153 -338zM635 1552l326 230l36 -49q18 -25 35 -52 q-90 -47 -177 -95t-177 -95z" />
<glyph unicode="&#xc2;" horiz-adv-x="989" d="M-61 0q172 358 342 712.5t344 712.5h125q35 -358 67.5 -712.5t67.5 -712.5h-131l-25 342h-496q-39 -86 -78.5 -171t-80.5 -171h-135zM287 459h434q-10 111 -18.5 217t-18.5 217q-8 86 -13 174t-14 174h-6l-153 -338zM381 1554l317 236h86l213 -234l-57 -51l-217 162 l-299 -166z" />
<glyph unicode="&#xc3;" horiz-adv-x="989" d="M-61 0q172 358 342 712.5t344 712.5h125q35 -358 67.5 -712.5t67.5 -712.5h-131l-25 342h-496q-39 -86 -78.5 -171t-80.5 -171h-135zM287 459h434q-10 111 -18.5 217t-18.5 217q-8 86 -13 174t-14 174h-6l-153 -338zM397 1579q41 70 95.5 105.5t107.5 35.5q33 0 63.5 -13 t60.5 -28.5t58.5 -28t59.5 -12.5q29 0 57.5 17.5t63.5 62.5l69 -45q-41 -82 -96 -114.5t-105 -32.5q-35 0 -66.5 12t-61 27.5t-58.5 29t-55 13.5q-31 0 -58.5 -20.5t-62.5 -57.5z" />
<glyph unicode="&#xc4;" horiz-adv-x="989" d="M-61 0q172 358 342 712.5t344 712.5h125q35 -358 67.5 -712.5t67.5 -712.5h-131l-25 342h-496q-39 -86 -78.5 -171t-80.5 -171h-135zM287 459h434q-10 111 -18.5 217t-18.5 217q-8 86 -13 174t-14 174h-6l-153 -338zM473 1532l25 137h131l-27 -137h-129zM809 1532l29 137 h129l-27 -137h-131z" />
<glyph unicode="&#xc5;" horiz-adv-x="989" d="M-61 0q172 358 342 712.5t344 712.5h125q35 -358 67.5 -712.5t67.5 -712.5h-131l-25 342h-496q-39 -86 -78.5 -171t-80.5 -171h-135zM287 459h434q-10 111 -18.5 217t-18.5 217q-8 86 -13 174t-14 174h-6l-153 -338zM549 1610q0 45 17.5 85t48 69.5t71.5 47t86 17.5 q68 0 112 -42t44 -108q0 -47 -19.5 -88t-50.5 -69.5t-72 -45t-84 -16.5q-68 0 -110.5 42t-42.5 108zM625 1624q0 -41 24.5 -66.5t65.5 -25.5q27 0 51.5 10t42.5 28.5t29.5 43t11.5 51.5q0 39 -25.5 64.5t-66.5 25.5q-51 0 -92 -39t-41 -92z" />
<glyph unicode="&#xc6;" horiz-adv-x="1611" d="M-37 0q229 358 459.5 712.5t460.5 712.5h813l-17 -122h-608l-74 -521h525q-4 -29 -8.5 -58.5t-8.5 -57.5h-524l-37 -271q-18 -135 -39 -270h608l-16 -125h-739q14 96 26.5 193.5t26.5 195.5h-461q-63 -98 -125.5 -195.5t-126.5 -193.5h-135zM428 508h399 q29 199 57.5 396.5t57.5 398.5h-2z" />
<glyph unicode="&#xc7;" horiz-adv-x="948" d="M92 315q0 39 8.5 98.5t18.5 110.5l78 398q18 96 47.5 188t82 165t135.5 117t206 44q170 0 260 -83t100 -218l-133 -39q-2 94 -62.5 154.5t-166.5 60.5q-86 0 -141.5 -31t-92.5 -79t-57.5 -108.5t-34.5 -121.5q-10 -31 -22.5 -92.5t-25.5 -131t-24.5 -132t-17.5 -93.5 q-10 -47 -17.5 -99t-7.5 -93q0 -45 11.5 -85t37 -71t68.5 -48t107 -17q109 0 186.5 58t118.5 169l127 -45q-53 -147 -163 -223t-263 -80q-10 -23 -19.5 -44.5t-21.5 -45.5q90 -8 122.5 -50.5t32.5 -85.5q0 -29 -12 -60.5t-38.5 -58t-68.5 -43t-100 -16.5q-41 0 -82 7.5 t-75 23.5q8 16 15 34.5t17 35.5q35 -16 69 -21.5t60 -5.5q41 0 78 22.5t37 69.5q0 41 -28.5 60.5t-78.5 19.5h-12q-6 8 -13 14t-15 15q16 35 32.5 66.5t32.5 66.5q-150 14 -222.5 103t-72.5 220z" />
<glyph unicode="&#xc8;" horiz-adv-x="907" d="M49 0l277 1425h733l-27 -120h-600l-100 -521h518l-23 -118h-516l-108 -545h600l-21 -121h-733zM399 1681l68 103l303 -225l-41 -64z" />
<glyph unicode="&#xc9;" horiz-adv-x="907" d="M49 0l277 1425h733l-27 -120h-600l-100 -521h518l-23 -118h-516l-108 -545h600l-21 -121h-733zM602 1554l328 230l74 -101l-357 -192z" />
<glyph unicode="&#xca;" horiz-adv-x="907" d="M49 0l277 1425h733l-27 -120h-600l-100 -521h518l-23 -118h-516l-108 -545h600l-21 -121h-733zM393 1554l318 236h86l213 -234l-58 -51l-217 162l-299 -166z" />
<glyph unicode="&#xcb;" horiz-adv-x="907" d="M49 0l277 1425h733l-27 -120h-600l-100 -521h518l-23 -118h-516l-108 -545h600l-21 -121h-733zM463 1532l24 137h131l-26 -137h-129zM799 1532l28 137h129l-26 -137h-131z" />
<glyph unicode="&#xcc;" horiz-adv-x="415" d="M59 0l279 1425h131l-276 -1425h-134zM96 1681l68 103l303 -225l-41 -64z" />
<glyph unicode="&#xcd;" horiz-adv-x="415" d="M59 0l279 1425h131l-276 -1425h-134zM379 1554l328 230l71 -101l-356 -192z" />
<glyph unicode="&#xce;" horiz-adv-x="415" d="M59 0l279 1425h131l-276 -1425h-134zM109 1554l317 236h86l213 -234l-57 -51l-217 162l-299 -166z" />
<glyph unicode="&#xcf;" horiz-adv-x="415" d="M59 0l279 1425h131l-276 -1425h-134zM193 1544l26 137h127l-24 -137h-129zM526 1544l27 137h129l-27 -137h-129z" />
<glyph unicode="&#xd0;" horiz-adv-x="1044" d="M37 698q6 25 11 49.5t9 49.5h144l123 628h383q346 0 346 -305q0 -59 -15.5 -171.5t-38.5 -237.5q-14 -78 -28.5 -151t-29.5 -137.5t-31.5 -115.5t-32.5 -82q-72 -133 -178.5 -179t-239.5 -46h-410l133 698h-145zM201 119h256q109 0 180.5 38t112.5 105q23 39 40 89 t27 104q18 98 40 195.5t38 195.5q10 61 20.5 132t10.5 116q0 94 -51.5 152.5t-190.5 58.5h-252q-27 -129 -51.5 -255t-48.5 -253h196l-20 -99h-195z" />
<glyph unicode="&#xd1;" horiz-adv-x="1122" d="M47 0l279 1425h125l278 -825l105 -315h6l221 1140h127l-277 -1425h-125l-268 797l-117 354h-4q-20 -113 -49 -262.5t-59.5 -308t-60 -311t-52.5 -269.5h-129zM463 1561q41 70 95 105.5t108 35.5q33 0 63.5 -13.5t60 -28.5t58.5 -27.5t59 -12.5q29 0 57.5 17.5t63.5 62.5 l70 -45q-41 -82 -96.5 -115t-104.5 -33q-35 0 -66.5 12.5t-61.5 28t-58.5 28.5t-55.5 13q-31 0 -58.5 -20.5t-61.5 -57.5z" />
<glyph unicode="&#xd2;" horiz-adv-x="1005" d="M94 269q-12 83 4 173l113 570q14 76 45 152.5t84 136t132 97.5t194 38q104 0 179 -36t120 -96.5t58 -137t-1 -158.5l-107 -592q-18 -96 -54 -174t-92 -135.5t-132 -88t-174 -30.5q-115 0 -191.5 36.5t-121 99t-56.5 145.5zM221 313.5q4 -59.5 32 -104.5t80 -72.5 t132 -27.5q70 0 122 23.5t91 63.5t63.5 94t36.5 116l115 600q8 49 3 102t-32.5 98t-80 75t-138.5 30q-76 0 -129 -29t-89 -73t-57.5 -98t-31.5 -105l-109 -570q-12 -63 -8 -122.5zM461 1681l67 103l303 -225l-40 -64z" />
<glyph unicode="&#xd3;" horiz-adv-x="1005" d="M94 269q-12 83 4 173l113 570q14 76 45 152.5t84 136t132 97.5t194 38q104 0 179 -36t120 -96.5t58 -137t-1 -158.5l-107 -592q-18 -96 -54 -174t-92 -135.5t-132 -88t-174 -30.5q-115 0 -191.5 36.5t-121 99t-56.5 145.5zM221 313.5q4 -59.5 32 -104.5t80 -72.5 t132 -27.5q70 0 122 23.5t91 63.5t63.5 94t36.5 116l115 600q8 49 3 102t-32.5 98t-80 75t-138.5 30q-76 0 -129 -29t-89 -73t-57.5 -98t-31.5 -105l-109 -570q-12 -63 -8 -122.5zM621 1552l325 232l72 -101l-356 -194z" />
<glyph unicode="&#xd4;" horiz-adv-x="1005" d="M94 269q-12 83 4 173l113 570q14 76 45 152.5t84 136t132 97.5t194 38q104 0 179 -36t120 -96.5t58 -137t-1 -158.5l-107 -592q-18 -96 -54 -174t-92 -135.5t-132 -88t-174 -30.5q-115 0 -191.5 36.5t-121 99t-56.5 145.5zM221 313.5q4 -59.5 32 -104.5t80 -72.5 t132 -27.5q70 0 122 23.5t91 63.5t63.5 94t36.5 116l115 600q8 49 3 102t-32.5 98t-80 75t-138.5 30q-76 0 -129 -29t-89 -73t-57.5 -98t-31.5 -105l-109 -570q-12 -63 -8 -122.5zM403 1554l318 236h86l213 -234l-57 -51l-218 162l-299 -166z" />
<glyph unicode="&#xd5;" horiz-adv-x="1005" d="M94 269q-12 83 4 173l113 570q14 76 45 152.5t84 136t132 97.5t194 38q104 0 179 -36t120 -96.5t58 -137t-1 -158.5l-107 -592q-18 -96 -54 -174t-92 -135.5t-132 -88t-174 -30.5q-115 0 -191.5 36.5t-121 99t-56.5 145.5zM221 313.5q4 -59.5 32 -104.5t80 -72.5 t132 -27.5q70 0 122 23.5t91 63.5t63.5 94t36.5 116l115 600q8 49 3 102t-32.5 98t-80 75t-138.5 30q-76 0 -129 -29t-89 -73t-57.5 -98t-31.5 -105l-109 -570q-12 -63 -8 -122.5zM426 1579q41 70 95 105.5t108 35.5q33 0 63.5 -13t60 -28.5t58.5 -28t59 -12.5 q29 0 57.5 17.5t63.5 62.5l70 -45q-41 -82 -96.5 -114.5t-104.5 -32.5q-35 0 -66.5 12t-61.5 27.5t-58.5 29t-55.5 13.5q-31 0 -58.5 -20.5t-61.5 -57.5z" />
<glyph unicode="&#xd6;" horiz-adv-x="1005" d="M94 269q-12 83 4 173l113 570q14 76 45 152.5t84 136t132 97.5t194 38q104 0 179 -36t120 -96.5t58 -137t-1 -158.5l-107 -592q-18 -96 -54 -174t-92 -135.5t-132 -88t-174 -30.5q-115 0 -191.5 36.5t-121 99t-56.5 145.5zM221 313.5q4 -59.5 32 -104.5t80 -72.5 t132 -27.5q70 0 122 23.5t91 63.5t63.5 94t36.5 116l115 600q8 49 3 102t-32.5 98t-80 75t-138.5 30q-76 0 -129 -29t-89 -73t-57.5 -98t-31.5 -105l-109 -570q-12 -63 -8 -122.5zM489 1532l25 137h131l-27 -137h-129zM825 1532l29 137h129l-27 -137h-131z" />
<glyph unicode="&#xd7;" horiz-adv-x="944" d="M63 260l365 301l-233 295l77 64l234 -295l362 301l60 -80l-361 -299l238 -303l-78 -62l-240 301l-364 -303z" />
<glyph unicode="&#xd8;" horiz-adv-x="1005" d="M2 29l115 155q-47 113 -19 258l113 570q14 76 45 152.5t84 136t132 97.5t194 38q100 0 172.5 -34t117.5 -89l93 125l57 -39l-111 -148q27 -53 33 -115.5t-6 -127.5l-107 -592q-18 -96 -54 -174t-92 -135.5t-132 -88t-174 -30.5q-113 0 -188.5 35.5t-120.5 95.5l-97 -129z M219 322l649 874q-27 49 -80 82t-143 33q-76 0 -129 -29t-89 -73t-57.5 -98t-31.5 -105l-109 -570q-12 -61 -10 -114zM240 236q25 -57 79 -92t146 -35q70 0 122 23.5t91 63.5t63.5 94t36.5 116l115 600q4 27 5 54t-3 56z" />
<glyph unicode="&#xd9;" horiz-adv-x="1032" d="M106.5 257q-10.5 79 6.5 169l192 999h129q-8 -41 -22.5 -117.5t-34 -173t-40 -203t-38.5 -203.5t-33.5 -177t-23.5 -123q-12 -59 -9 -115.5t26.5 -99.5t71.5 -69.5t126 -26.5q82 0 141 27.5t99 75.5t63.5 110.5t36.5 132.5l186 962h133q-10 -53 -25.5 -130.5t-34 -169 t-37 -188.5t-35.5 -188.5t-31.5 -170t-24.5 -129.5q-18 -98 -54 -182.5t-93.5 -147t-138.5 -97t-189 -34.5q-111 0 -183.5 34.5t-112.5 95t-50.5 139.5zM444 1681l68 103l303 -225l-41 -64z" />
<glyph unicode="&#xda;" horiz-adv-x="1032" d="M106.5 257q-10.5 79 6.5 169l192 999h129q-8 -41 -22.5 -117.5t-34 -173t-40 -203t-38.5 -203.5t-33.5 -177t-23.5 -123q-12 -59 -9 -115.5t26.5 -99.5t71.5 -69.5t126 -26.5q82 0 141 27.5t99 75.5t63.5 110.5t36.5 132.5l186 962h133q-10 -53 -25.5 -130.5t-34 -169 t-37 -188.5t-35.5 -188.5t-31.5 -170t-24.5 -129.5q-18 -98 -54 -182.5t-93.5 -147t-138.5 -97t-189 -34.5q-111 0 -183.5 34.5t-112.5 95t-50.5 139.5zM631 1552l325 232l72 -101l-356 -194z" />
<glyph unicode="&#xdb;" horiz-adv-x="1032" d="M106.5 257q-10.5 79 6.5 169l192 999h129q-8 -41 -22.5 -117.5t-34 -173t-40 -203t-38.5 -203.5t-33.5 -177t-23.5 -123q-12 -59 -9 -115.5t26.5 -99.5t71.5 -69.5t126 -26.5q82 0 141 27.5t99 75.5t63.5 110.5t36.5 132.5l186 962h133q-10 -53 -25.5 -130.5t-34 -169 t-37 -188.5t-35.5 -188.5t-31.5 -170t-24.5 -129.5q-18 -98 -54 -182.5t-93.5 -147t-138.5 -97t-189 -34.5q-111 0 -183.5 34.5t-112.5 95t-50.5 139.5zM426 1554l317 236h86l213 -234l-57 -51l-217 162l-299 -166z" />
<glyph unicode="&#xdc;" horiz-adv-x="1032" d="M106.5 257q-10.5 79 6.5 169l192 999h129q-8 -41 -22.5 -117.5t-34 -173t-40 -203t-38.5 -203.5t-33.5 -177t-23.5 -123q-12 -59 -9 -115.5t26.5 -99.5t71.5 -69.5t126 -26.5q82 0 141 27.5t99 75.5t63.5 110.5t36.5 132.5l186 962h133q-10 -53 -25.5 -130.5t-34 -169 t-37 -188.5t-35.5 -188.5t-31.5 -170t-24.5 -129.5q-18 -98 -54 -182.5t-93.5 -147t-138.5 -97t-189 -34.5q-111 0 -183.5 34.5t-112.5 95t-50.5 139.5zM487 1532l25 137h131l-27 -137h-129zM823 1532l29 137h129l-27 -137h-131z" />
<glyph unicode="&#xdd;" horiz-adv-x="866" d="M209 1425h127q6 -29 20.5 -96t30.5 -141t30.5 -141.5t20.5 -96.5l47 -205h9q41 68 80.5 135.5t80.5 135.5q59 104 121 204.5t123 204.5h141l-514 -829l-114 -596h-127l114 596q-47 209 -95 414.5t-95 414.5zM528 1552l328 232q6 -8 15.5 -21.5t19.5 -29t19.5 -29.5 t15.5 -21q-88 -49 -176 -97t-181 -97q-10 16 -20.5 31.5t-20.5 31.5z" />
<glyph unicode="&#xde;" horiz-adv-x="978" d="M49 0q16 78 39 192.5t48.5 246.5t52 272.5t52 272.5t47 245.5t38.5 191.5h131l-54 -276h265q164 0 252 -80t88 -227q0 -94 -26 -188.5t-83 -170.5t-151.5 -123t-229.5 -47h-276q-4 -25 -12.5 -66.5t-17.5 -86.5t-17.5 -88t-12.5 -68h-133zM266 432h266q86 0 149.5 32 t105.5 85t62.5 119.5t20.5 138.5q0 96 -55 155.5t-172 59.5h-262z" />
<glyph unicode="&#xdf;" horiz-adv-x="890" d="M25 0q53 274 105 545.5t106 546.5q16 84 43.5 155.5t71.5 123.5t106.5 82t150.5 30q152 0 225.5 -78t73.5 -211q0 -113 -50 -201t-152 -131q66 -29 93 -89t27 -134q0 -102 -18.5 -217t-65.5 -211t-128 -158.5t-205 -62.5h-68l20 108h31q88 0 145.5 51.5t91.5 127 t47 162.5t13 161q0 37 -6 72t-21.5 63.5t-43 46t-72.5 17.5h-41q6 29 11 56.5t11 53.5h35q57 0 98 27t68 69t39 91t12 94q0 78 -45 127t-135 49q-49 0 -86 -18.5t-63.5 -49t-43 -69.5t-28.5 -80q-2 -8 -12.5 -58.5t-25.5 -126.5l-35 -174q-19 -97 -38.5 -199t-39 -201 t-36 -180t-27.5 -137.5t-13 -72.5h-125z" />
<glyph unicode="&#xe0;" horiz-adv-x="897" d="M78 279q0 59 8 123.5t20 127.5q20 104 52 194.5t80.5 157t115 103.5t158.5 37q78 0 138.5 -34t88.5 -95l2 2l13 57q6 29 10 58h123l-197 -1010h-123l25 119h-6q-53 -66 -112.5 -98.5t-151.5 -32.5q-127 0 -185.5 82t-58.5 209zM207 301q0 -39 8 -73.5t26.5 -61.5 t50.5 -42t79 -15q53 0 95 21.5t72.5 57t52 79.5t36.5 87q12 39 22 82t18.5 84t13.5 77t9 60q6 47 0 91.5t-25.5 78t-53 53t-85.5 19.5q-66 0 -113.5 -27.5t-82.5 -80.5q-31 -47 -52.5 -116t-37.5 -140q-14 -66 -23.5 -126.5t-9.5 -107.5zM412 1460l110 51l160 -346l-70 -30z " />
<glyph unicode="&#xe1;" horiz-adv-x="897" d="M78 279q0 59 8 123.5t20 127.5q20 104 52 194.5t80.5 157t115 103.5t158.5 37q78 0 138.5 -34t88.5 -95l2 2l13 57q6 29 10 58h123l-197 -1010h-123l25 119h-6q-53 -66 -112.5 -98.5t-151.5 -32.5q-127 0 -185.5 82t-58.5 209zM207 301q0 -39 8 -73.5t26.5 -61.5 t50.5 -42t79 -15q53 0 95 21.5t72.5 57t52 79.5t36.5 87q12 39 22 82t18.5 84t13.5 77t9 60q6 47 0 91.5t-25.5 78t-53 53t-85.5 19.5q-66 0 -113.5 -27.5t-82.5 -80.5q-31 -47 -52.5 -116t-37.5 -140q-14 -66 -23.5 -126.5t-9.5 -107.5zM508 1171l201 332l118 -43 l-247 -321z" />
<glyph unicode="&#xe2;" horiz-adv-x="897" d="M78 279q0 59 8 123.5t20 127.5q20 104 52 194.5t80.5 157t115 103.5t158.5 37q78 0 138.5 -34t88.5 -95l2 2l13 57q6 29 10 58h123l-197 -1010h-123l25 119h-6q-53 -66 -112.5 -98.5t-151.5 -32.5q-127 0 -185.5 82t-58.5 209zM207 301q0 -39 8 -73.5t26.5 -61.5 t50.5 -42t79 -15q53 0 95 21.5t72.5 57t52 79.5t36.5 87q12 39 22 82t18.5 84t13.5 77t9 60q6 47 0 91.5t-25.5 78t-53 53t-85.5 19.5q-66 0 -113.5 -27.5t-82.5 -80.5q-31 -47 -52.5 -116t-37.5 -140q-14 -66 -23.5 -126.5t-9.5 -107.5zM293 1192l321 276h88l205 -272 l-67 -55l-199 205l-299 -207z" />
<glyph unicode="&#xe3;" horiz-adv-x="897" d="M78 279q0 59 8 123.5t20 127.5q20 104 52 194.5t80.5 157t115 103.5t158.5 37q78 0 138.5 -34t88.5 -95l2 2l13 57q6 29 10 58h123l-197 -1010h-123l25 119h-6q-53 -66 -112.5 -98.5t-151.5 -32.5q-127 0 -185.5 82t-58.5 209zM207 301q0 -39 8 -73.5t26.5 -61.5 t50.5 -42t79 -15q53 0 95 21.5t72.5 57t52 79.5t36.5 87q12 39 22 82t18.5 84t13.5 77t9 60q6 47 0 91.5t-25.5 78t-53 53t-85.5 19.5q-66 0 -113.5 -27.5t-82.5 -80.5q-31 -47 -52.5 -116t-37.5 -140q-14 -66 -23.5 -126.5t-9.5 -107.5zM305 1245q41 70 95.5 105.5 t107.5 35.5q33 0 63.5 -13t60.5 -28.5t58.5 -27.5t59.5 -12q29 0 57.5 17t62.5 62l70 -45q-41 -82 -96.5 -114.5t-104.5 -32.5q-35 0 -66.5 12.5t-61 27.5t-58.5 28.5t-55 13.5q-31 0 -58.5 -20.5t-62.5 -57.5z" />
<glyph unicode="&#xe4;" horiz-adv-x="897" d="M78 279q0 59 8 123.5t20 127.5q20 104 52 194.5t80.5 157t115 103.5t158.5 37q78 0 138.5 -34t88.5 -95l2 2l13 57q6 29 10 58h123l-197 -1010h-123l25 119h-6q-53 -66 -112.5 -98.5t-151.5 -32.5q-127 0 -185.5 82t-58.5 209zM207 301q0 -39 8 -73.5t26.5 -61.5 t50.5 -42t79 -15q53 0 95 21.5t72.5 57t52 79.5t36.5 87q12 39 22 82t18.5 84t13.5 77t9 60q6 47 0 91.5t-25.5 78t-53 53t-85.5 19.5q-66 0 -113.5 -27.5t-82.5 -80.5q-31 -47 -52.5 -116t-37.5 -140q-14 -66 -23.5 -126.5t-9.5 -107.5zM362 1219l27 139h127l-27 -139h-127 zM702 1219l27 139h127l-27 -139h-127z" />
<glyph unicode="&#xe5;" horiz-adv-x="897" d="M78 279q0 59 8 123.5t20 127.5q20 104 52 194.5t80.5 157t115 103.5t158.5 37q78 0 138.5 -34t88.5 -95l2 2l13 57q6 29 10 58h123l-197 -1010h-123l25 119h-6q-53 -66 -112.5 -98.5t-151.5 -32.5q-127 0 -185.5 82t-58.5 209zM207 301q0 -39 8 -73.5t26.5 -61.5 t50.5 -42t79 -15q53 0 95 21.5t72.5 57t52 79.5t36.5 87q12 39 22 82t18.5 84t13.5 77t9 60q6 47 0 91.5t-25.5 78t-53 53t-85.5 19.5q-66 0 -113.5 -27.5t-82.5 -80.5q-31 -47 -52.5 -116t-37.5 -140q-14 -66 -23.5 -126.5t-9.5 -107.5zM442 1272q0 45 17.5 85t48.5 69.5 t72 47t86 17.5q68 0 111.5 -42t43.5 -108q0 -47 -19.5 -88t-50 -69.5t-71.5 -45t-84 -16.5q-68 0 -111 42t-43 108zM518 1286q0 -41 24.5 -66.5t65.5 -25.5q27 0 51.5 10t43 28.5t29.5 43t11 51.5q0 39 -25.5 64.5t-66.5 25.5q-51 0 -92 -39t-41 -92z" />
<glyph unicode="&#xe6;" horiz-adv-x="1398" d="M35 219q0 174 111.5 269.5t297.5 95.5q53 0 103.5 -7.5t111.5 -15.5l29 154q16 84 -23.5 136t-156.5 52q-68 0 -126 -22.5t-97 -79.5q-25 16 -47.5 31.5t-44.5 31.5q53 78 141 118t188 40q43 0 86 -9t81 -27.5t66.5 -46.5t41.5 -67q47 63 120.5 107.5t167.5 44.5h7 q147 0 222 -68.5t75 -179.5q0 -160 -118 -253t-347 -97q-33 0 -73 2t-83 6q-6 -35 -10 -68.5t-4 -60.5q0 -104 41 -153.5t139 -49.5q72 0 135.5 36t97.5 89l95 -55q-53 -88 -140.5 -136t-203.5 -48q-106 0 -174 46t-91 130h-2q-61 -98 -154.5 -137t-199.5 -39 q-131 0 -196.5 64.5t-65.5 166.5zM158 246q0 -66 42 -104t136 -38q117 0 188.5 70t91.5 174l21 109q-55 10 -101.5 15t-93.5 7q-57 0 -108 -13t-90 -42t-62.5 -73t-23.5 -105zM788 545q35 -4 70 -6t64 -2q166 0 252 58t86 165q0 66 -47.5 104.5t-133.5 38.5 q-66 0 -113.5 -25.5t-81.5 -71.5t-58 -112.5t-38 -148.5z" />
<glyph unicode="&#xe7;" horiz-adv-x="768" d="M57 295q0 59 7.5 119.5t17.5 120.5q16 94 50 182t88 155.5t132 108.5t183 41q106 0 181 -51t91 -150l-117 -55q-10 66 -55 101.5t-111 35.5q-72 0 -125 -32.5t-91 -86t-61.5 -121t-37.5 -139.5q-23 -113 -23 -207q0 -96 40 -153.5t149 -57.5q68 0 126 36t87 98l108 -60 q-49 -86 -133 -138t-198 -54q-10 -23 -19.5 -44.5t-21.5 -45.5q90 -8 122.5 -50.5t32.5 -85.5q0 -29 -12 -60.5t-39 -58t-69 -43t-99 -16.5q-41 0 -82 7.5t-76 23.5q8 16 15.5 34.5t17.5 35.5q35 -16 69 -21.5t60 -5.5q41 0 78 22.5t37 69.5q0 41 -28.5 60.5t-78.5 19.5h-12 q-6 8 -13 14t-16 15q16 35 33 66.5t33 66.5q-72 8 -118 36.5t-72.5 70.5t-38 92.5t-11.5 103.5z" />
<glyph unicode="&#xe8;" horiz-adv-x="839" d="M68 301q0 72 9 154t30.5 161.5t56.5 153.5t85 130t118.5 90t158.5 34q143 0 220 -66.5t77 -175.5q0 -164 -119.5 -260t-377.5 -96q-23 0 -59 1t-68 5q-4 -29 -7.5 -58.5t-3.5 -56.5q0 -90 38 -150.5t141 -60.5q61 0 128.5 34t104.5 89l102 -57q-55 -82 -143 -133 t-205 -51q-84 0 -139 27.5t-88 71.5t-46 100.5t-13 113.5zM219 545q29 -4 66 -6t61 -2q94 0 161.5 17t109.5 48t61.5 72t19.5 90q0 63 -48 103t-134 40q-123 0 -194.5 -99t-102.5 -263zM371 1460l110 51l160 -346l-70 -30z" />
<glyph unicode="&#xe9;" horiz-adv-x="839" d="M68 301q0 72 9 154t30.5 161.5t56.5 153.5t85 130t118.5 90t158.5 34q143 0 220 -66.5t77 -175.5q0 -164 -119.5 -260t-377.5 -96q-23 0 -59 1t-68 5q-4 -29 -7.5 -58.5t-3.5 -56.5q0 -90 38 -150.5t141 -60.5q61 0 128.5 34t104.5 89l102 -57q-55 -82 -143 -133 t-205 -51q-84 0 -139 27.5t-88 71.5t-46 100.5t-13 113.5zM219 545q29 -4 66 -6t61 -2q94 0 161.5 17t109.5 48t61.5 72t19.5 90q0 63 -48 103t-134 40q-123 0 -194.5 -99t-102.5 -263zM492 1171l200 332l119 -43l-248 -321z" />
<glyph unicode="&#xea;" horiz-adv-x="839" d="M68 301q0 72 9 154t30.5 161.5t56.5 153.5t85 130t118.5 90t158.5 34q143 0 220 -66.5t77 -175.5q0 -164 -119.5 -260t-377.5 -96q-23 0 -59 1t-68 5q-4 -29 -7.5 -58.5t-3.5 -56.5q0 -90 38 -150.5t141 -60.5q61 0 128.5 34t104.5 89l102 -57q-55 -82 -143 -133 t-205 -51q-84 0 -139 27.5t-88 71.5t-46 100.5t-13 113.5zM219 545q29 -4 66 -6t61 -2q94 0 161.5 17t109.5 48t61.5 72t19.5 90q0 63 -48 103t-134 40q-123 0 -194.5 -99t-102.5 -263zM260 1192l322 276h88l204 -272l-67 -55l-199 205l-299 -207z" />
<glyph unicode="&#xeb;" horiz-adv-x="839" d="M68 301q0 72 9 154t30.5 161.5t56.5 153.5t85 130t118.5 90t158.5 34q143 0 220 -66.5t77 -175.5q0 -164 -119.5 -260t-377.5 -96q-23 0 -59 1t-68 5q-4 -29 -7.5 -58.5t-3.5 -56.5q0 -90 38 -150.5t141 -60.5q61 0 128.5 34t104.5 89l102 -57q-55 -82 -143 -133 t-205 -51q-84 0 -139 27.5t-88 71.5t-46 100.5t-13 113.5zM219 545q29 -4 66 -6t61 -2q94 0 161.5 17t109.5 48t61.5 72t19.5 90q0 63 -48 103t-134 40q-123 0 -194.5 -99t-102.5 -263zM348 1219l27 139h127l-27 -139h-127zM688 1219l27 139h127l-27 -139h-127z" />
<glyph unicode="&#xec;" horiz-adv-x="378" d="M84 0l197 1012h127l-197 -1012h-127zM141 1460l111 51l160 -346l-70 -30z" />
<glyph unicode="&#xed;" horiz-adv-x="378" d="M43 0l197 1012h127l-197 -1012h-127zM279 1171l200 332l119 -43l-248 -321z" />
<glyph unicode="&#xee;" horiz-adv-x="516" d="M100 1192l322 276h88l205 -272l-68 -55l-198 205l-299 -207zM115 0l196 1012h127l-196 -1012h-127z" />
<glyph unicode="&#xef;" horiz-adv-x="475" d="M106 0l197 1012h127l-197 -1012h-127zM170 1219l27 139h127l-27 -139h-127zM510 1219l27 139h127l-27 -139h-127z" />
<glyph unicode="&#xf0;" horiz-adv-x="888" d="M70 283q0 57 7 121.5t19 123.5q20 96 56 181.5t77 132.5q51 59 115 91t150 32q37 0 73.5 -9.5t69.5 -28t58.5 -46t39.5 -64.5h6q10 47 15.5 98.5t5.5 100.5q0 45 -5 85t-20 73l-164 -105l-34 57l168 109q-66 117 -240 133l35 105q68 -6 118 -22.5t87.5 -39t64.5 -50.5 t45 -56l164 106l37 -59l-86 -54q-43 -27 -86 -55q33 -86 33 -213q0 -47 -6.5 -118.5t-17.5 -156.5t-29.5 -177.5t-43.5 -180.5q-23 -82 -53.5 -156.5t-79.5 -131t-118.5 -89t-168.5 -32.5q-82 0 -138 26.5t-90 68.5t-49 94.5t-15 105.5zM189.5 279.5q3.5 -50.5 22.5 -90 t58 -64.5t107 -25q66 0 116 28t82 77q39 57 75 166.5t36 236.5q0 49 -9 93t-32.5 77t-61.5 52.5t-94 19.5q-78 0 -131 -45t-86.5 -113.5t-52 -150.5t-26.5 -158q-7 -53 -3.5 -103.5z" />
<glyph unicode="&#xf1;" horiz-adv-x="892" d="M27 0l196 1012h125l-24 -131h4q59 76 134 108.5t146 32.5q66 0 114 -22.5t78.5 -61.5t42 -93t1.5 -116q0 -4 -8.5 -47t-20.5 -109.5t-28.5 -147.5t-32 -161t-28.5 -150.5t-21 -113.5h-130q8 39 21.5 103.5t28 138t30 150.5t27.5 140.5t19.5 103.5t7.5 44q6 41 5 80 t-18.5 68.5t-52.5 48t-96 18.5q-59 0 -106.5 -23.5t-81 -62.5t-56 -91t-33.5 -110l-118 -608h-125zM283 1245q41 70 95 105.5t107 35.5q33 0 64 -13t60.5 -28.5t58 -27.5t59.5 -12q29 0 57.5 17t63.5 62l70 -45q-41 -82 -96.5 -114.5t-104.5 -32.5q-35 0 -67 12.5 t-61.5 27.5t-58 28.5t-55.5 13.5q-31 0 -58.5 -20.5t-62.5 -57.5z" />
<glyph unicode="&#xf2;" horiz-adv-x="866" d="M70 281q0 82 8 161.5t28 157.5q23 88 53.5 162t71.5 125q53 66 124 100.5t167 34.5q80 0 137.5 -24.5t93 -67.5t53 -98.5t17.5 -116.5q0 -63 -10 -136t-25 -139q-23 -109 -55.5 -193.5t-81.5 -142t-118.5 -87t-165.5 -29.5q-86 0 -143.5 24.5t-91.5 66.5t-48 94.5 t-14 107.5zM190 311q0 -41 7.5 -78.5t28 -67.5t56 -47.5t95.5 -17.5q90 0 145.5 46.5t85.5 123.5q18 45 34.5 101.5t29 116t19.5 117t7 104.5q0 98 -50 149t-136 51q-88 0 -154 -59q-43 -39 -73.5 -106.5t-52 -144.5t-32 -154t-10.5 -134zM379 1460l110 51l160 -346l-69 -30 z" />
<glyph unicode="&#xf3;" horiz-adv-x="866" d="M70 281q0 82 8 161.5t28 157.5q23 88 53.5 162t71.5 125q53 66 124 100.5t167 34.5q80 0 137.5 -24.5t93 -67.5t53 -98.5t17.5 -116.5q0 -63 -10 -136t-25 -139q-23 -109 -55.5 -193.5t-81.5 -142t-118.5 -87t-165.5 -29.5q-86 0 -143.5 24.5t-91.5 66.5t-48 94.5 t-14 107.5zM190 311q0 -41 7.5 -78.5t28 -67.5t56 -47.5t95.5 -17.5q90 0 145.5 46.5t85.5 123.5q18 45 34.5 101.5t29 116t19.5 117t7 104.5q0 98 -50 149t-136 51q-88 0 -154 -59q-43 -39 -73.5 -106.5t-52 -144.5t-32 -154t-10.5 -134zM528 1171l201 332l119 -43 l-248 -321z" />
<glyph unicode="&#xf4;" horiz-adv-x="866" d="M70 281q0 82 8 161.5t28 157.5q23 88 53.5 162t71.5 125q53 66 124 100.5t167 34.5q80 0 137.5 -24.5t93 -67.5t53 -98.5t17.5 -116.5q0 -63 -10 -136t-25 -139q-23 -109 -55.5 -193.5t-81.5 -142t-118.5 -87t-165.5 -29.5q-86 0 -143.5 24.5t-91.5 66.5t-48 94.5 t-14 107.5zM190 311q0 -41 7.5 -78.5t28 -67.5t56 -47.5t95.5 -17.5q90 0 145.5 46.5t85.5 123.5q18 45 34.5 101.5t29 116t19.5 117t7 104.5q0 98 -50 149t-136 51q-88 0 -154 -59q-43 -39 -73.5 -106.5t-52 -144.5t-32 -154t-10.5 -134zM276 1192l322 276h88l205 -272 l-68 -55l-198 205l-299 -207z" />
<glyph unicode="&#xf5;" horiz-adv-x="866" d="M70 281q0 82 8 161.5t28 157.5q23 88 53.5 162t71.5 125q53 66 124 100.5t167 34.5q80 0 137.5 -24.5t93 -67.5t53 -98.5t17.5 -116.5q0 -63 -10 -136t-25 -139q-23 -109 -55.5 -193.5t-81.5 -142t-118.5 -87t-165.5 -29.5q-86 0 -143.5 24.5t-91.5 66.5t-48 94.5 t-14 107.5zM190 311q0 -41 7.5 -78.5t28 -67.5t56 -47.5t95.5 -17.5q90 0 145.5 46.5t85.5 123.5q18 45 34.5 101.5t29 116t19.5 117t7 104.5q0 98 -50 149t-136 51q-88 0 -154 -59q-43 -39 -73.5 -106.5t-52 -144.5t-32 -154t-10.5 -134zM264 1245q41 70 95.5 105.5 t107.5 35.5q33 0 63.5 -13t60.5 -28.5t58.5 -27.5t59.5 -12q29 0 57.5 17t62.5 62l70 -45q-41 -82 -96 -114.5t-105 -32.5q-35 0 -66.5 12.5t-61 27.5t-58.5 28.5t-55 13.5q-31 0 -58.5 -20.5t-62.5 -57.5z" />
<glyph unicode="&#xf6;" horiz-adv-x="866" d="M70 281q0 82 8 161.5t28 157.5q23 88 53.5 162t71.5 125q53 66 124 100.5t167 34.5q80 0 137.5 -24.5t93 -67.5t53 -98.5t17.5 -116.5q0 -63 -10 -136t-25 -139q-23 -109 -55.5 -193.5t-81.5 -142t-118.5 -87t-165.5 -29.5q-86 0 -143.5 24.5t-91.5 66.5t-48 94.5 t-14 107.5zM190 311q0 -41 7.5 -78.5t28 -67.5t56 -47.5t95.5 -17.5q90 0 145.5 46.5t85.5 123.5q18 45 34.5 101.5t29 116t19.5 117t7 104.5q0 98 -50 149t-136 51q-88 0 -154 -59q-43 -39 -73.5 -106.5t-52 -144.5t-32 -154t-10.5 -134zM346 1219l27 139h127l-27 -139 h-127zM686 1219l27 139h127l-27 -139h-127z" />
<glyph unicode="&#xf7;" d="M61 543l23 102h793l-21 -102h-795zM311 240q0 47 36 78.5t79 31.5q35 0 56.5 -21.5t19.5 -56.5q0 -45 -36 -77.5t-77 -32.5q-35 0 -57.5 21.5t-20.5 56.5zM442 913q0 45 36 77t79 32q33 0 54.5 -20.5t21.5 -55.5q0 -45 -36 -77.5t-79 -32.5q-35 0 -56.5 22t-19.5 55z" />
<glyph unicode="&#xf8;" horiz-adv-x="866" d="M8 43l86 98q-14 33 -19 68t-5 72q0 82 8 161.5t28 157.5q23 88 53.5 162t71.5 125q53 66 124 100.5t167 34.5q86 0 145.5 -29.5t96.5 -77.5l94 109l55 -45l-112 -131q23 -63 22 -133q0 -63 -10 -136t-25 -139q-23 -109 -55.5 -193.5t-81.5 -142t-118.5 -87t-165.5 -29.5 q-88 0 -144.5 25.5t-91.5 66.5l-72 -82zM190 284q0 -13 3 -28l483 557q-23 47 -65 71.5t-99 24.5q-88 0 -154 -59q-43 -39 -73.5 -106.5t-52 -144.5t-32 -153.5t-10.5 -134.5v-27zM217 178q18 -35 56 -56.5t104 -21.5q90 0 145.5 46.5t85.5 123.5q18 45 34.5 101.5t29 116 t19.5 117t7 104.5q0 14 -2 22z" />
<glyph unicode="&#xf9;" horiz-adv-x="901" d="M84 281q0 2 8 45t20.5 109.5t28 148.5t30.5 161.5t28.5 150.5t21.5 116h127q-8 -39 -20.5 -104.5t-26.5 -140.5t-28.5 -152.5t-27 -141t-19.5 -104.5t-7 -43q-8 -45 -6 -84t20.5 -69t54.5 -46t95 -16q100 0 172 72.5t94 176.5l125 652h127q-8 -41 -23.5 -121t-35 -179.5 t-41 -207t-40 -205.5t-33.5 -178t-23 -121h-127q2 8 5 25.5t7 37t8 37t6 25.5h-6q-59 -74 -132 -105.5t-144 -31.5q-135 0 -198 82t-40 211zM381 1460l111 51l159 -346l-69 -30z" />
<glyph unicode="&#xfa;" horiz-adv-x="901" d="M84 281q0 2 8 45t20.5 109.5t28 148.5t30.5 161.5t28.5 150.5t21.5 116h127q-8 -39 -20.5 -104.5t-26.5 -140.5t-28.5 -152.5t-27 -141t-19.5 -104.5t-7 -43q-8 -45 -6 -84t20.5 -69t54.5 -46t95 -16q100 0 172 72.5t94 176.5l125 652h127q-8 -41 -23.5 -121t-35 -179.5 t-41 -207t-40 -205.5t-33.5 -178t-23 -121h-127q2 8 5 25.5t7 37t8 37t6 25.5h-6q-59 -74 -132 -105.5t-144 -31.5q-135 0 -198 82t-40 211zM524 1171l201 332l119 -43l-248 -321z" />
<glyph unicode="&#xfb;" horiz-adv-x="901" d="M84 281q0 2 8 45t20.5 109.5t28 148.5t30.5 161.5t28.5 150.5t21.5 116h127q-8 -39 -20.5 -104.5t-26.5 -140.5t-28.5 -152.5t-27 -141t-19.5 -104.5t-7 -43q-8 -45 -6 -84t20.5 -69t54.5 -46t95 -16q100 0 172 72.5t94 176.5l125 652h127q-8 -41 -23.5 -121t-35 -179.5 t-41 -207t-40 -205.5t-33.5 -178t-23 -121h-127q2 8 5 25.5t7 37t8 37t6 25.5h-6q-59 -74 -132 -105.5t-144 -31.5q-135 0 -198 82t-40 211zM279 1192l321 276h88l205 -272l-68 -55l-198 205l-299 -207z" />
<glyph unicode="&#xfc;" horiz-adv-x="901" d="M84 281q0 2 8 45t20.5 109.5t28 148.5t30.5 161.5t28.5 150.5t21.5 116h127q-8 -39 -20.5 -104.5t-26.5 -140.5t-28.5 -152.5t-27 -141t-19.5 -104.5t-7 -43q-8 -45 -6 -84t20.5 -69t54.5 -46t95 -16q100 0 172 72.5t94 176.5l125 652h127q-8 -41 -23.5 -121t-35 -179.5 t-41 -207t-40 -205.5t-33.5 -178t-23 -121h-127q2 8 5 25.5t7 37t8 37t6 25.5h-6q-59 -74 -132 -105.5t-144 -31.5q-135 0 -198 82t-40 211zM358 1219l27 139h127l-27 -139h-127zM698 1219l27 139h127l-27 -139h-127z" />
<glyph unicode="&#xfd;" horiz-adv-x="753" d="M-119 -299q72 4 133.5 28.5t118.5 100.5q23 29 41.5 58.5t40.5 72.5l-123 1049h129q10 -111 20.5 -220.5t20.5 -220.5q6 -55 12.5 -119.5t10.5 -130t7 -129t1 -114.5h4q51 92 104.5 206.5t104.5 238.5t98 250t86 239h129q-129 -362 -259 -645t-265 -506 q-74 -127 -169 -196t-224 -69h-21v107zM426 1171l201 332l118 -43l-247 -321z" />
<glyph unicode="&#xfe;" horiz-adv-x="876" d="M-63 -406q23 117 51 266.5t60 313.5t65.5 336t65.5 336t61.5 312.5t52.5 266.5h125l-105 -528h4q53 59 116 93t153 34q117 0 178 -67.5t61 -198.5q2 -66 -8 -142.5t-22 -140.5q-20 -98 -51 -186t-79.5 -154.5t-117 -104.5t-164.5 -38q-78 0 -133 34.5t-86 92.5h-4 l-101 -525h-122zM211 301q0 -80 39 -134t125 -54q119 0 190 92q39 53 63.5 134t43.5 169q10 53 15 102t7 92q0 41 -7 77t-25.5 63.5t-52.5 43t-85 15.5q-86 0 -146.5 -56.5t-86.5 -131.5q-29 -86 -48.5 -175t-27.5 -173q-2 -16 -3 -32t-1 -32z" />
<glyph unicode="&#xff;" horiz-adv-x="753" d="M-119 -299q72 4 133.5 28.5t118.5 100.5q23 29 41.5 58.5t40.5 72.5l-123 1049h129q10 -111 20.5 -220.5t20.5 -220.5q6 -55 12.5 -119.5t10.5 -130t7 -129t1 -114.5h4q51 92 104.5 206.5t104.5 238.5t98 250t86 239h129q-129 -362 -259 -645t-265 -506 q-74 -127 -169 -196t-224 -69h-21v107zM244 1219l26 139h127l-26 -139h-127zM584 1219l26 139h127l-26 -139h-127z" />
<glyph unicode="&#x152;" horiz-adv-x="1402" d="M102.5 254q-10.5 78 6.5 162l108 592q16 86 49 163.5t86.5 137t131 94.5t186.5 35q33 0 67.5 -4t63.5 -11q182 0 357 1t358 1l-25 -120h-580q-27 -131 -51 -261.5t-49 -261.5h516l-22 -116h-517q-27 -137 -53 -273.5t-55 -273.5h600l-20 -119h-674q-29 -6 -72 -9t-78 -3 q-104 0 -175 34.5t-109.5 94t-49 137.5zM229 317.5q0 -63.5 25 -110.5t77 -74t142 -27q43 0 78 13l227 1175q-45 23 -108 23q-82 0 -139.5 -27.5t-95.5 -75t-60.5 -110t-34.5 -131.5l-96 -518q-15 -74 -15 -137.5z" />
<glyph unicode="&#x153;" horiz-adv-x="1423" d="M70 281q0 82 8 161.5t28 157.5q23 88 53.5 162t71.5 125q53 66 124 100.5t167 34.5q117 0 183.5 -50t95.5 -128q53 80 132 130t189 50q143 0 220 -66.5t77 -175.5q0 -164 -119.5 -260t-377.5 -96q-23 0 -59 1t-68 5q-4 -29 -7.5 -58.5t-3.5 -56.5q0 -90 38 -150.5 t141 -60.5q61 0 128.5 34t104.5 89l102 -57q-55 -82 -143 -133t-205 -51q-115 0 -176 47t-88 117q-51 -80 -127 -122t-192 -42q-86 0 -143.5 24.5t-91.5 66.5t-48 94.5t-14 107.5zM190 311q0 -41 7.5 -78.5t28 -67.5t56 -47.5t95.5 -17.5q90 0 145.5 46.5t85.5 123.5 q18 45 34.5 101.5t29 116t19.5 117t7 104.5q0 98 -50 149t-136 51q-88 0 -154 -59q-43 -39 -73.5 -106.5t-52 -144.5t-32 -154t-10.5 -134zM815 545q29 -4 66 -6t61 -2q94 0 161.5 17t109.5 48t61.5 72t19.5 90q0 63 -48 103t-134 40q-123 0 -194.5 -99t-102.5 -263z" />
<glyph unicode="&#x178;" horiz-adv-x="866" d="M209 1425h127q6 -29 20.5 -96t30.5 -141t30.5 -141.5t20.5 -96.5l47 -205h9q41 68 80.5 135.5t80.5 135.5q59 104 121 204.5t123 204.5h141l-514 -829l-114 -596h-127l114 596q-47 209 -95 414.5t-95 414.5zM410 1532l24 137h131l-26 -137h-129zM745 1532l29 137h129 l-26 -137h-132z" />
<glyph unicode="&#x2c6;" horiz-adv-x="866" d="M289 1192l321 276h88l205 -272l-67 -55l-199 205l-299 -207z" />
<glyph unicode="&#x2dc;" d="M295 1245q41 70 95 105.5t108 35.5q33 0 63.5 -13t60 -28.5t58.5 -27.5t59 -12q29 0 57.5 17t63.5 62l70 -45q-41 -82 -96.5 -114.5t-104.5 -32.5q-35 0 -66.5 12.5t-61.5 27.5t-58.5 28.5t-55.5 13.5q-31 0 -58.5 -20.5t-61.5 -57.5z" />
<glyph unicode="&#x2013;" horiz-adv-x="1011" d="M51 483l25 123h930l-25 -123h-930z" />
<glyph unicode="&#x2014;" horiz-adv-x="2037" d="M39 483l24 123h1956l-22 -123h-1958z" />
<glyph unicode="&#x2018;" horiz-adv-x="407" d="M248 1081l35 168l133 215h76l-95 -215h41l-32 -168h-158z" />
<glyph unicode="&#x2019;" horiz-adv-x="407" d="M250 1081l94 215h-43l35 170h156l-33 -170l-131 -215h-78z" />
<glyph unicode="&#x201a;" horiz-adv-x="387" d="M-25 -219l95 213h-41l32 170h156l-33 -168l-133 -215h-76z" />
<glyph unicode="&#x201c;" horiz-adv-x="555" d="M205 1081l33 168l133 215h75l-92 -215h41l-35 -168h-155zM436 1081l33 168l133 215h76l-92 -215h39l-33 -168h-156z" />
<glyph unicode="&#x201d;" horiz-adv-x="555" d="M211 1081l96 215h-41l33 170h158l-33 -170l-135 -215h-78zM444 1081l95 215h-41l34 170h154l-33 -170l-133 -215h-76z" />
<glyph unicode="&#x201e;" horiz-adv-x="641" d="M-18 -217l92 213h-41l35 168h155l-33 -168l-133 -213h-75zM221 -217l92 213h-41l35 168h156l-33 -168l-133 -213h-76z" />
<glyph unicode="&#x2022;" horiz-adv-x="782" d="M176 551q0 45 17.5 86t47 70.5t69.5 47t85 17.5t85 -17.5t70 -47t47 -70.5t17 -86t-17 -85t-47 -69.5t-70 -47t-85 -17.5t-85 17.5t-69.5 47t-47 69.5t-17.5 85z" />
<glyph unicode="&#x2026;" horiz-adv-x="1298" d="M41 0l31 166h153l-30 -166h-154zM475 0l31 166h153l-30 -166h-154zM915 0l31 166h156l-31 -166h-156z" />
<glyph unicode="&#x2039;" horiz-adv-x="559" d="M70 469l307 373h127l-307 -375l159 -373h-125z" />
<glyph unicode="&#x203a;" horiz-adv-x="542" d="M31 94l309 377l-162 371h125l164 -373l-309 -375h-127z" />
<glyph unicode="&#x20ac;" d="M55 565l19 86h76l24 133h-78l19 84h78l16 82q18 92 48 180.5t82 156t130 108.5t193 41q145 0 227 -72t98 -195l-131 -41q-10 86 -61.5 137.5t-137.5 51.5q-84 0 -139 -34t-91 -88t-57.5 -120.5t-33.5 -132.5l-14 -74h397l-17 -84h-397l-24 -133h397l-16 -86h-398 l-31 -164q-10 -55 -8 -108t23.5 -95t64.5 -68t113 -26q94 0 165 51.5t111 145.5l123 -43q-57 -135 -162.5 -202.5t-246.5 -67.5q-102 0 -170 32.5t-105 90t-45 134.5t8 165l27 155h-76z" />
<glyph unicode="&#x2122;" horiz-adv-x="1499" d="M70 1329v96h524v-96h-211v-706h-102v706h-211zM692 623v800h99q61 -135 122.5 -269t122.5 -267q59 133 121 267t121 269h96v-800h-100v548l-201 -421h-82l-196 421h-4v-548h-99z" />
<glyph unicode="&#xe000;" horiz-adv-x="1010" d="M0 1010h1010v-1010h-1010v1010z" />
<glyph unicode="&#xfb01;" horiz-adv-x="835" d="M8 -317l238 1222h-115l21 107h114l41 209q29 152 114 214t204 62q92 0 157.5 -29.5t106.5 -83.5l-94 -88q-31 39 -77 58.5t-102 19.5q-78 0 -122.5 -43t-61.5 -119l-37 -200h428l-196 -1012h-125l176 905h-303l-238 -1222h-129z" />
<glyph unicode="&#xfb02;" horiz-adv-x="878" d="M10 -317l236 1222h-115l21 107h114l41 207q29 152 113 218t209 66q35 0 110.5 -11t167.5 -50l-231 -1188q-6 -31 -6 -53q0 -41 22.5 -64.5t77.5 -23.5h29l-25 -119h-22q-98 0 -155.5 39t-57.5 127q0 37 6 73l217 1115q-31 16 -70 23t-69 7q-158 0 -189 -168l-39 -198h199 l-21 -107h-198l-236 -1222h-129z" />
<glyph unicode="&#xfb03;" horiz-adv-x="1267" d="M8 -317l236 1222h-115l23 107h114l35 182q14 74 45 127t74 87t96 49.5t113 15.5q57 0 108 -12.5t90 -39.5q49 47 105.5 66.5t128.5 19.5q178 0 264 -110l-94 -90q-61 80 -180 79q-158 0 -187 -159l-43 -215h430l-196 -1012h-127l174 905h-301l-236 -1222h-127l236 1222 h-301l-236 -1222h-129zM393 1012h303l41 219q4 20 9.5 40.5t15.5 39.5q-33 23 -72 31t-74 8q-82 0 -127 -41t-59 -117z" />
<glyph unicode="&#xfb04;" horiz-adv-x="1308" d="M10 -317l236 1222h-115l21 107h114l37 182q29 150 119 213t213 63q121 0 192 -51q47 47 105.5 68.5t124.5 21.5q37 0 112.5 -11t167.5 -50q-53 -266 -94 -481t-71.5 -370t-48 -243t-19.5 -100q-4 -16 -4 -29v-24q0 -41 22.5 -64.5t77.5 -23.5h29q-4 -27 -12.5 -61 t-12.5 -58h-24q-98 0 -155.5 39t-57.5 127q0 37 6 73l219 1121q-31 16 -70 23t-69 7q-84 0 -129 -40.5t-62 -126.5l-43 -205h205l-18 -107h-207l-236 -1222h-127l238 1222h-299l-238 -1222h-127zM395 1012h299l41 213q4 23 9.5 43t15.5 39q-31 23 -68 33t-74 10 q-82 0 -128 -41t-60 -115z" />
</font>
</defs>
</svg>
